<?xml version="1.0" encoding="UTF-8" standalone="no"?>
<!DOCTYPE svg PUBLIC "-//W3C//DTD SVG 1.1//EN"
 "http://www.w3.org/Graphics/SVG/1.1/DTD/svg11.dtd">
<!-- Generated by graphviz version 10.0.1 (20240210.2158)
 -->
<!-- Title: Flow Pages: 1 -->
<svg width="556pt" height="300pt"
 viewBox="0.00 0.00 556.00 300.00" xmlns="http://www.w3.org/2000/svg" xmlns:xlink="http://www.w3.org/1999/xlink">
<g id="graph0" class="graph" transform="scale(1 1) rotate(0) translate(4 296)">
<title>Flow</title>
<polygon fill="#ffffff" stroke="none" points="-4,4 -4,-296 552,-296 552,4 -4,4"/>
<!-- Step_13563799040 -->
<g id="node1" class="node">
<title>Step_13563799040</title>
<path fill="#43fda2" stroke="#30c1d7" d="M114,-248.5C114,-248.5 196,-248.5 196,-248.5 202,-248.5 208,-254.5 208,-260.5 208,-260.5 208,-279.5 208,-279.5 208,-285.5 202,-291.5 196,-291.5 196,-291.5 114,-291.5 114,-291.5 108,-291.5 102,-285.5 102,-279.5 102,-279.5 102,-260.5 102,-260.5 102,-254.5 108,-248.5 114,-248.5"/>
<text text-anchor="middle" x="155" y="-278" font-family="Monaco, Consolas, monospace" font-size="10.00" fill="#000000">rephrase</text>
<polyline fill="none" stroke="#30c1d7" points="102,-270 208,-270"/>
<text text-anchor="start" x="110" y="-256.5" font-family="Monaco, Consolas, monospace" font-size="10.00" fill="#000000">tone=Aggressive</text>
</g>
<!-- Step_13563797408 -->
<g id="node9" class="node">
<title>Step_13563797408</title>
<path fill="#43fda2" stroke="#30c1d7" d="M356,-164C356,-164 268,-164 268,-164 262,-164 256,-158 256,-152 256,-152 256,-140 256,-140 256,-134 262,-128 268,-128 268,-128 356,-128 356,-128 362,-128 368,-134 368,-140 368,-140 368,-152 368,-152 368,-158 362,-164 356,-164"/>
<text text-anchor="middle" x="312" y="-143.25" font-family="Monaco, Consolas, monospace" font-size="10.00" fill="#000000">star_mobile_chat</text>
</g>
<!-- Step_13563799040&#45;&gt;Step_13563797408 -->
<g id="edge3" class="edge">
<title>Step_13563799040&#45;&gt;Step_13563797408</title>
<path fill="none" stroke="#30c1d7" d="M205.57,-248.15C210.59,-245.31 215.49,-242.24 220,-239 246.4,-220.01 271.88,-192.97 289.13,-172.94"/>
<polygon fill="#30c1d7" stroke="#30c1d7" points="291.69,-175.33 295.48,-165.44 286.35,-170.81 291.69,-175.33"/>
</g>
<!-- Step_13563799088 -->
<g id="node2" class="node">
<title>Step_13563799088</title>
<path fill="#43fda2" stroke="#30c1d7" d="M114,-186.5C114,-186.5 196,-186.5 196,-186.5 202,-186.5 208,-192.5 208,-198.5 208,-198.5 208,-217.5 208,-217.5 208,-223.5 202,-229.5 196,-229.5 196,-229.5 114,-229.5 114,-229.5 108,-229.5 102,-223.5 102,-217.5 102,-217.5 102,-198.5 102,-198.5 102,-192.5 108,-186.5 114,-186.5"/>
<text text-anchor="middle" x="155" y="-216" font-family="Monaco, Consolas, monospace" font-size="10.00" fill="#000000">rephrase</text>
<polyline fill="none" stroke="#30c1d7" points="102,-208 208,-208"/>
<text text-anchor="start" x="110" y="-194.5" font-family="Monaco, Consolas, monospace" font-size="10.00" fill="#000000">tone=Optimistic</text>
</g>
<!-- Step_13563799088&#45;&gt;Step_13563797408 -->
<g id="edge6" class="edge">
<title>Step_13563799088&#45;&gt;Step_13563797408</title>
<path fill="none" stroke="#30c1d7" d="M208.48,-187.01C223.18,-181.13 239.22,-174.71 254.16,-168.74"/>
<polygon fill="#30c1d7" stroke="#30c1d7" points="255.42,-172 263.4,-165.04 252.82,-165.5 255.42,-172"/>
</g>
<!-- Step_13563797216 -->
<g id="node3" class="node">
<title>Step_13563797216</title>
<path fill="#43fda2" stroke="#30c1d7" d="M108,-124.5C108,-124.5 202,-124.5 202,-124.5 208,-124.5 214,-130.5 214,-136.5 214,-136.5 214,-155.5 214,-155.5 214,-161.5 208,-167.5 202,-167.5 202,-167.5 108,-167.5 108,-167.5 102,-167.5 96,-161.5 96,-155.5 96,-155.5 96,-136.5 96,-136.5 96,-130.5 102,-124.5 108,-124.5"/>
<text text-anchor="middle" x="155" y="-154" font-family="Monaco, Consolas, monospace" font-size="10.00" fill="#000000">rephrase</text>
<polyline fill="none" stroke="#30c1d7" points="96,-146 214,-146"/>
<text text-anchor="start" x="104" y="-132.5" font-family="Monaco, Consolas, monospace" font-size="10.00" fill="#000000">tone=Manipulative</text>
</g>
<!-- Step_13563797216&#45;&gt;Step_13563797408 -->
<g id="edge11" class="edge">
<title>Step_13563797216&#45;&gt;Step_13563797408</title>
<path fill="none" stroke="#30c1d7" d="M214.16,-146C224.02,-146 234.33,-146 244.38,-146"/>
<polygon fill="#30c1d7" stroke="#30c1d7" points="244.08,-149.5 254.08,-146 244.08,-142.5 244.08,-149.5"/>
</g>
<!-- Step_13563799280 -->
<g id="node4" class="node">
<title>Step_13563799280</title>
<path fill="#43fda2" stroke="#30c1d7" d="M456,-164C456,-164 416,-164 416,-164 410,-164 404,-158 404,-152 404,-152 404,-140 404,-140 404,-134 410,-128 416,-128 416,-128 456,-128 456,-128 462,-128 468,-134 468,-140 468,-140 468,-152 468,-152 468,-158 462,-164 456,-164"/>
<text text-anchor="middle" x="436" y="-143.25" font-family="Monaco, Consolas, monospace" font-size="10.00" fill="#000000">evaluate</text>
</g>
<!-- _EndNode_13584269136 -->
<g id="node8" class="node">
<title>_EndNode_13584269136</title>
<ellipse fill="none" stroke="#30c1d7" stroke-dasharray="5,2" cx="526" cy="-146" rx="18" ry="18"/>
<ellipse fill="none" stroke="#30c1d7" stroke-dasharray="5,2" cx="526" cy="-146" rx="22" ry="22"/>
<text text-anchor="middle" x="526" y="-143.25" font-family="Monaco, Consolas, monospace" font-size="10.00" fill="#30c1d7">||</text>
</g>
<!-- Step_13563799280&#45;&gt;_EndNode_13584269136 -->
<g id="edge9" class="edge">
<title>Step_13563799280&#45;&gt;_EndNode_13584269136</title>
<path fill="none" stroke="#30c1d7" stroke-dasharray="5,2" d="M468.27,-146C476.08,-146 484.47,-146 492.35,-146"/>
<polygon fill="#30c1d7" stroke="#30c1d7" points="492.24,-149.5 502.24,-146 492.24,-142.5 492.24,-149.5"/>
</g>
<!-- Step_13563796784 -->
<g id="node5" class="node">
<title>Step_13563796784</title>
<path fill="#43fda2" stroke="#30c1d7" d="M117,-62.5C117,-62.5 193,-62.5 193,-62.5 199,-62.5 205,-68.5 205,-74.5 205,-74.5 205,-93.5 205,-93.5 205,-99.5 199,-105.5 193,-105.5 193,-105.5 117,-105.5 117,-105.5 111,-105.5 105,-99.5 105,-93.5 105,-93.5 105,-74.5 105,-74.5 105,-68.5 111,-62.5 117,-62.5"/>
<text text-anchor="middle" x="155" y="-92" font-family="Monaco, Consolas, monospace" font-size="10.00" fill="#000000">rephrase</text>
<polyline fill="none" stroke="#30c1d7" points="105,-84 205,-84"/>
<text text-anchor="start" x="113" y="-70.5" font-family="Monaco, Consolas, monospace" font-size="10.00" fill="#000000">tone=Sarcastic</text>
</g>
<!-- Step_13563796784&#45;&gt;Step_13563797408 -->
<g id="edge7" class="edge">
<title>Step_13563796784&#45;&gt;Step_13563797408</title>
<path fill="none" stroke="#30c1d7" d="M205.47,-103.79C221.09,-110.04 238.48,-116.99 254.55,-123.42"/>
<polygon fill="#30c1d7" stroke="#30c1d7" points="252.91,-126.53 263.49,-127 255.51,-120.03 252.91,-126.53"/>
</g>
<!-- DictProducer_13563796304 -->
<g id="node6" class="node">
<title>DictProducer_13563796304</title>
<path fill="none" stroke="#30c1d7" d="M42,-164C42,-164 12,-164 12,-164 6,-164 0,-158 0,-152 0,-152 0,-140 0,-140 0,-134 6,-128 12,-128 12,-128 42,-128 42,-128 48,-128 54,-134 54,-140 54,-140 54,-152 54,-152 54,-158 48,-164 42,-164"/>
<text text-anchor="middle" x="27" y="-143.25" font-family="Monaco, Consolas, monospace" font-size="10.00" fill="#000000">input</text>
</g>
<!-- DictProducer_13563796304&#45;&gt;Step_13563799040 -->
<g id="edge2" class="edge">
<title>DictProducer_13563796304&#45;&gt;Step_13563799040</title>
<path fill="none" stroke="#30c1d7" d="M36.41,-164.18C46.63,-184.62 65.57,-217.71 90,-239 91.07,-239.94 92.18,-240.85 93.31,-241.74"/>
<polygon fill="#30c1d7" stroke="#30c1d7" points="91.04,-244.42 101.23,-247.3 95.06,-238.69 91.04,-244.42"/>
</g>
<!-- DictProducer_13563796304&#45;&gt;Step_13563799088 -->
<g id="edge1" class="edge">
<title>DictProducer_13563796304&#45;&gt;Step_13563799088</title>
<path fill="none" stroke="#30c1d7" d="M54.21,-159.2C65.24,-164.73 78.23,-171.21 90,-177 92.71,-178.33 95.49,-179.7 98.29,-181.07"/>
<polygon fill="#30c1d7" stroke="#30c1d7" points="96.63,-184.15 107.15,-185.39 99.7,-177.86 96.63,-184.15"/>
</g>
<!-- DictProducer_13563796304&#45;&gt;Step_13563797216 -->
<g id="edge4" class="edge">
<title>DictProducer_13563796304&#45;&gt;Step_13563797216</title>
<path fill="none" stroke="#30c1d7" d="M54.41,-146C63.36,-146 73.81,-146 84.51,-146"/>
<polygon fill="#30c1d7" stroke="#30c1d7" points="84.19,-149.5 94.19,-146 84.19,-142.5 84.19,-149.5"/>
</g>
<!-- DictProducer_13563796304&#45;&gt;Step_13563796784 -->
<g id="edge12" class="edge">
<title>DictProducer_13563796304&#45;&gt;Step_13563796784</title>
<path fill="none" stroke="#30c1d7" d="M54.21,-132.8C65.24,-127.27 78.23,-120.79 90,-115 92.71,-113.67 95.49,-112.3 98.29,-110.93"/>
<polygon fill="#30c1d7" stroke="#30c1d7" points="99.7,-114.14 107.15,-106.61 96.63,-107.85 99.7,-114.14"/>
</g>
<!-- Step_13563799376 -->
<g id="node7" class="node">
<title>Step_13563799376</title>
<path fill="#43fda2" stroke="#30c1d7" d="M102,-0.5C102,-0.5 208,-0.5 208,-0.5 214,-0.5 220,-6.5 220,-12.5 220,-12.5 220,-31.5 220,-31.5 220,-37.5 214,-43.5 208,-43.5 208,-43.5 102,-43.5 102,-43.5 96,-43.5 90,-37.5 90,-31.5 90,-31.5 90,-12.5 90,-12.5 90,-6.5 96,-0.5 102,-0.5"/>
<text text-anchor="middle" x="155" y="-30" font-family="Monaco, Consolas, monospace" font-size="10.00" fill="#000000">rephrase</text>
<polyline fill="none" stroke="#30c1d7" points="90,-22 220,-22"/>
<text text-anchor="start" x="98" y="-8.5" font-family="Monaco, Consolas, monospace" font-size="10.00" fill="#000000">tone=Guilt&#45;Inducing</text>
</g>
<!-- DictProducer_13563796304&#45;&gt;Step_13563799376 -->
<g id="edge5" class="edge">
<title>DictProducer_13563796304&#45;&gt;Step_13563799376</title>
<path fill="none" stroke="#30c1d7" d="M36.41,-127.82C46.63,-107.38 65.57,-74.29 90,-53 91.07,-52.06 92.18,-51.15 93.31,-50.26"/>
<polygon fill="#30c1d7" stroke="#30c1d7" points="95.06,-53.31 101.23,-44.7 91.04,-47.58 95.06,-53.31"/>
</g>
<!-- Step_13563799376&#45;&gt;Step_13563797408 -->
<g id="edge10" class="edge">
<title>Step_13563799376&#45;&gt;Step_13563797408</title>
<path fill="none" stroke="#30c1d7" d="M205.57,-43.85C210.59,-46.69 215.49,-49.76 220,-53 246.4,-71.99 271.88,-99.03 289.13,-119.06"/>
<polygon fill="#30c1d7" stroke="#30c1d7" points="286.35,-121.19 295.48,-126.56 291.69,-116.67 286.35,-121.19"/>
</g>
<!-- Step_13563797408&#45;&gt;Step_13563799280 -->
<g id="edge8" class="edge">
<title>Step_13563797408&#45;&gt;Step_13563799280</title>
<path fill="none" stroke="#30c1d7" d="M368.29,-146C376.33,-146 384.5,-146 392.24,-146"/>
<polygon fill="#30c1d7" stroke="#30c1d7" points="392.07,-149.5 402.07,-146 392.07,-142.5 392.07,-149.5"/>
</g>
</g>
</svg>
