<?xml version="1.0" encoding="UTF-8" standalone="no"?>
<!DOCTYPE svg PUBLIC "-//W3C//DTD SVG 1.1//EN"
 "http://www.w3.org/Graphics/SVG/1.1/DTD/svg11.dtd">
<!-- Generated by graphviz version 2.46.0 (20210118.1747)
 -->
<!-- Title: Flow Pages: 1 -->
<svg width="313pt" height="104pt"
 viewBox="0.00 0.00 313.15 104.00" xmlns="http://www.w3.org/2000/svg" xmlns:xlink="http://www.w3.org/1999/xlink">
<g id="graph0" class="graph" transform="scale(1 1) rotate(0) translate(4 100)">
<title>Flow</title>
<polygon fill="#ffffff" stroke="transparent" points="-4,4 -4,-100 309.15,-100 309.15,4 -4,4"/>
<!-- DictProducer_2848082201872 -->
<g id="node1" class="node">
<title>DictProducer_2848082201872</title>
<path fill="#43fda2" stroke="#30c1d7" d="M12,-28.5C12,-28.5 57,-28.5 57,-28.5 63,-28.5 69,-34.5 69,-40.5 69,-40.5 69,-54.5 69,-54.5 69,-60.5 63,-66.5 57,-66.5 57,-66.5 12,-66.5 12,-66.5 6,-66.5 0,-60.5 0,-54.5 0,-54.5 0,-40.5 0,-40.5 0,-34.5 6,-28.5 12,-28.5"/>
<text text-anchor="middle" x="34.5" y="-54.5" font-family="Monaco, Consolas, monospace" font-size="10.00" fill="#000000">input</text>
<polyline fill="none" stroke="#30c1d7" points="0,-47.5 69,-47.5 "/>
<text text-anchor="start" x="8" y="-35.5" font-family="Monaco, Consolas, monospace" font-size="10.00" fill="#000000">name=input</text>
</g>
<!-- Step_2848752346896 -->
<g id="node2" class="node">
<title>Step_2848752346896</title>
<path fill="#43fda2" stroke="#30c1d7" d="M117,-57.5C117,-57.5 194,-57.5 194,-57.5 200,-57.5 206,-63.5 206,-69.5 206,-69.5 206,-83.5 206,-83.5 206,-89.5 200,-95.5 194,-95.5 194,-95.5 117,-95.5 117,-95.5 111,-95.5 105,-89.5 105,-83.5 105,-83.5 105,-69.5 105,-69.5 105,-63.5 111,-57.5 117,-57.5"/>
<text text-anchor="middle" x="155.5" y="-83.5" font-family="Monaco, Consolas, monospace" font-size="10.00" fill="#000000">augment</text>
<polyline fill="none" stroke="#30c1d7" points="105,-76.5 206,-76.5 "/>
<text text-anchor="start" x="113" y="-64.5" font-family="Monaco, Consolas, monospace" font-size="10.00" fill="#000000">label=misleading</text>
</g>
<!-- DictProducer_2848082201872&#45;&gt;Step_2848752346896 -->
<g id="edge1" class="edge">
<title>DictProducer_2848082201872&#45;&gt;Step_2848752346896</title>
<path fill="none" stroke="#30c1d7" d="M69.28,-55.73C77.27,-57.68 86.02,-59.81 94.78,-61.95"/>
<polygon fill="#30c1d7" stroke="#30c1d7" points="94.09,-65.38 104.64,-64.35 95.75,-58.58 94.09,-65.38"/>
</g>
<!-- Step_2848117330384 -->
<g id="node4" class="node">
<title>Step_2848117330384</title>
<path fill="#43fda2" stroke="#30c1d7" d="M122.5,-0.5C122.5,-0.5 188.5,-0.5 188.5,-0.5 194.5,-0.5 200.5,-6.5 200.5,-12.5 200.5,-12.5 200.5,-26.5 200.5,-26.5 200.5,-32.5 194.5,-38.5 188.5,-38.5 188.5,-38.5 122.5,-38.5 122.5,-38.5 116.5,-38.5 110.5,-32.5 110.5,-26.5 110.5,-26.5 110.5,-12.5 110.5,-12.5 110.5,-6.5 116.5,-0.5 122.5,-0.5"/>
<text text-anchor="middle" x="155.5" y="-26.5" font-family="Monaco, Consolas, monospace" font-size="10.00" fill="#000000">augment</text>
<polyline fill="none" stroke="#30c1d7" points="110.5,-19.5 200.5,-19.5 "/>
<text text-anchor="start" x="118.5" y="-7.5" font-family="Monaco, Consolas, monospace" font-size="10.00" fill="#000000">label=original</text>
</g>
<!-- DictProducer_2848082201872&#45;&gt;Step_2848117330384 -->
<g id="edge2" class="edge">
<title>DictProducer_2848082201872&#45;&gt;Step_2848117330384</title>
<path fill="none" stroke="#30c1d7" d="M69.28,-39.55C78.97,-37.27 89.78,-34.73 100.36,-32.24"/>
<polygon fill="#30c1d7" stroke="#30c1d7" points="101.46,-35.58 110.39,-29.88 99.86,-28.76 101.46,-35.58"/>
</g>
<!-- _EndNode_2848117164816 -->
<g id="node3" class="node">
<title>_EndNode_2848117164816</title>
<ellipse fill="none" stroke="#30c1d7" stroke-dasharray="5,2" cx="273.58" cy="-47.5" rx="27.64" ry="27.64"/>
<ellipse fill="none" stroke="#30c1d7" stroke-dasharray="5,2" cx="273.58" cy="-47.5" rx="31.65" ry="31.65"/>
<text text-anchor="middle" x="273.58" y="-42.5" font-family="Monaco, Consolas, monospace" font-size="20.00" fill="#30c1d7">||</text>
</g>
<!-- Step_2848752346896&#45;&gt;_EndNode_2848117164816 -->
<g id="edge3" class="edge">
<title>Step_2848752346896&#45;&gt;_EndNode_2848117164816</title>
<path fill="none" stroke="#30c1d7" stroke-dasharray="5,2" d="M206.06,-64.12C215.01,-61.88 224.23,-59.58 232.85,-57.42"/>
<polygon fill="#30c1d7" stroke="#30c1d7" points="233.79,-60.8 242.64,-54.98 232.09,-54.01 233.79,-60.8"/>
</g>
<!-- Step_2848117330384&#45;&gt;_EndNode_2848117164816 -->
<g id="edge4" class="edge">
<title>Step_2848117330384&#45;&gt;_EndNode_2848117164816</title>
<path fill="none" stroke="#30c1d7" stroke-dasharray="5,2" d="M200.71,-30.17C211.19,-32.69 222.3,-35.37 232.58,-37.85"/>
<polygon fill="#30c1d7" stroke="#30c1d7" points="231.98,-41.31 242.52,-40.25 233.62,-34.5 231.98,-41.31"/>
</g>
</g>
</svg>
