<?xml version="1.0" encoding="UTF-8" standalone="no"?>
<!DOCTYPE svg PUBLIC "-//W3C//DTD SVG 1.1//EN"
 "http://www.w3.org/Graphics/SVG/1.1/DTD/svg11.dtd">
<!-- Generated by graphviz version 10.0.1 (20240210.2158)
 -->
<!-- Title: Flow Pages: 1 -->
<svg width="678pt" height="52pt"
 viewBox="0.00 0.00 678.00 52.00" xmlns="http://www.w3.org/2000/svg" xmlns:xlink="http://www.w3.org/1999/xlink">
<g id="graph0" class="graph" transform="scale(1 1) rotate(0) translate(4 48)">
<title>Flow</title>
<polygon fill="#ffffff" stroke="none" points="-4,4 -4,-48 674,-48 674,4 -4,4"/>
<!-- Step_13187253792 -->
<g id="node1" class="node">
<title>Step_13187253792</title>
<path fill="#43fda2" stroke="#30c1d7" d="M124,-0.5C124,-0.5 194,-0.5 194,-0.5 200,-0.5 206,-6.5 206,-12.5 206,-12.5 206,-31.5 206,-31.5 206,-37.5 200,-43.5 194,-43.5 194,-43.5 124,-43.5 124,-43.5 118,-43.5 112,-37.5 112,-31.5 112,-31.5 112,-12.5 112,-12.5 112,-6.5 118,-0.5 124,-0.5"/>
<text text-anchor="middle" x="159" y="-30" font-family="Monaco, Consolas, monospace" font-size="10.00" fill="#000000">personas</text>
<polyline fill="none" stroke="#30c1d7" points="112,-22 206,-22"/>
<text text-anchor="start" x="120" y="-8.5" font-family="Monaco, Consolas, monospace" font-size="10.00" fill="#000000">n_personas=10</text>
</g>
<!-- Step_13187263104 -->
<g id="node4" class="node">
<title>Step_13187263104</title>
<path fill="#43fda2" stroke="#30c1d7" d="M254,-0.5C254,-0.5 336,-0.5 336,-0.5 342,-0.5 348,-6.5 348,-12.5 348,-12.5 348,-31.5 348,-31.5 348,-37.5 342,-43.5 336,-43.5 336,-43.5 254,-43.5 254,-43.5 248,-43.5 242,-37.5 242,-31.5 242,-31.5 242,-12.5 242,-12.5 242,-6.5 248,-0.5 254,-0.5"/>
<text text-anchor="middle" x="295" y="-30" font-family="Monaco, Consolas, monospace" font-size="10.00" fill="#000000">challenges</text>
<polyline fill="none" stroke="#30c1d7" points="242,-22 348,-22"/>
<text text-anchor="start" x="250" y="-8.5" font-family="Monaco, Consolas, monospace" font-size="10.00" fill="#000000">n_challenges=10</text>
</g>
<!-- Step_13187253792&#45;&gt;Step_13187263104 -->
<g id="edge4" class="edge">
<title>Step_13187253792&#45;&gt;Step_13187263104</title>
<path fill="none" stroke="#30c1d7" d="M206.49,-22C214.2,-22 222.3,-22 230.35,-22"/>
<polygon fill="#30c1d7" stroke="#30c1d7" points="230.11,-25.5 240.11,-22 230.11,-18.5 230.11,-25.5"/>
</g>
<!-- DictProducer_13187259360 -->
<g id="node2" class="node">
<title>DictProducer_13187259360</title>
<path fill="none" stroke="#30c1d7" d="M64,-40C64,-40 12,-40 12,-40 6,-40 0,-34 0,-28 0,-28 0,-16 0,-16 0,-10 6,-4 12,-4 12,-4 64,-4 64,-4 70,-4 76,-10 76,-16 76,-16 76,-28 76,-28 76,-34 70,-40 64,-40"/>
<text text-anchor="middle" x="38" y="-19.25" font-family="Monaco, Consolas, monospace" font-size="10.00" fill="#000000">archetypes</text>
</g>
<!-- DictProducer_13187259360&#45;&gt;Step_13187253792 -->
<g id="edge2" class="edge">
<title>DictProducer_13187259360&#45;&gt;Step_13187253792</title>
<path fill="none" stroke="#30c1d7" d="M76.33,-22C83.92,-22 92.08,-22 100.2,-22"/>
<polygon fill="#30c1d7" stroke="#30c1d7" points="100.08,-25.5 110.08,-22 100.08,-18.5 100.08,-25.5"/>
</g>
<!-- Step_13187263056 -->
<g id="node3" class="node">
<title>Step_13187263056</title>
<path fill="#43fda2" stroke="#30c1d7" d="M478,-40C478,-40 396,-40 396,-40 390,-40 384,-34 384,-28 384,-28 384,-16 384,-16 384,-10 390,-4 396,-4 396,-4 478,-4 478,-4 484,-4 490,-10 490,-16 490,-16 490,-28 490,-28 490,-34 484,-40 478,-40"/>
<text text-anchor="middle" x="437" y="-19.25" font-family="Monaco, Consolas, monospace" font-size="10.00" fill="#000000">motorco_chatbot</text>
</g>
<!-- Step_13187257056 -->
<g id="node6" class="node">
<title>Step_13187257056</title>
<path fill="#43fda2" stroke="#30c1d7" d="M578,-40C578,-40 538,-40 538,-40 532,-40 526,-34 526,-28 526,-28 526,-16 526,-16 526,-10 532,-4 538,-4 538,-4 578,-4 578,-4 584,-4 590,-10 590,-16 590,-16 590,-28 590,-28 590,-34 584,-40 578,-40"/>
<text text-anchor="middle" x="558" y="-19.25" font-family="Monaco, Consolas, monospace" font-size="10.00" fill="#000000">evaluate</text>
</g>
<!-- Step_13187263056&#45;&gt;Step_13187257056 -->
<g id="edge3" class="edge">
<title>Step_13187263056&#45;&gt;Step_13187257056</title>
<path fill="none" stroke="#30c1d7" d="M490.2,-22C498.24,-22 506.47,-22 514.27,-22"/>
<polygon fill="#30c1d7" stroke="#30c1d7" points="514.21,-25.5 524.21,-22 514.21,-18.5 514.21,-25.5"/>
</g>
<!-- Step_13187263104&#45;&gt;Step_13187263056 -->
<g id="edge1" class="edge">
<title>Step_13187263104&#45;&gt;Step_13187263056</title>
<path fill="none" stroke="#30c1d7" d="M348.13,-22C356.06,-22 364.31,-22 372.45,-22"/>
<polygon fill="#30c1d7" stroke="#30c1d7" points="372.31,-25.5 382.31,-22 372.31,-18.5 372.31,-25.5"/>
</g>
<!-- _EndNode_13187258256 -->
<g id="node5" class="node">
<title>_EndNode_13187258256</title>
<ellipse fill="none" stroke="#30c1d7" stroke-dasharray="5,2" cx="648" cy="-22" rx="18" ry="18"/>
<ellipse fill="none" stroke="#30c1d7" stroke-dasharray="5,2" cx="648" cy="-22" rx="22" ry="22"/>
<text text-anchor="middle" x="648" y="-19.25" font-family="Monaco, Consolas, monospace" font-size="10.00" fill="#30c1d7">||</text>
</g>
<!-- Step_13187257056&#45;&gt;_EndNode_13187258256 -->
<g id="edge5" class="edge">
<title>Step_13187257056&#45;&gt;_EndNode_13187258256</title>
<path fill="none" stroke="#30c1d7" stroke-dasharray="5,2" d="M590.27,-22C598.08,-22 606.47,-22 614.35,-22"/>
<polygon fill="#30c1d7" stroke="#30c1d7" points="614.24,-25.5 624.24,-22 614.24,-18.5 614.24,-25.5"/>
</g>
</g>
</svg>
