<?xml version="1.0" encoding="UTF-8" standalone="no"?>
<!DOCTYPE svg PUBLIC "-//W3C//DTD SVG 1.1//EN"
 "http://www.w3.org/Graphics/SVG/1.1/DTD/svg11.dtd">
<!-- Generated by graphviz version 2.46.0 (20210118.1747)
 -->
<!-- Title: Flow Pages: 1 -->
<svg width="570pt" height="161pt"
 viewBox="0.00 0.00 570.15 161.00" xmlns="http://www.w3.org/2000/svg" xmlns:xlink="http://www.w3.org/1999/xlink">
<g id="graph0" class="graph" transform="scale(1 1) rotate(0) translate(4 157)">
<title>Flow</title>
<polygon fill="#ffffff" stroke="transparent" points="-4,4 -4,-157 566.15,-157 566.15,4 -4,4"/>
<!-- DictProducer_2848118504464 -->
<g id="node1" class="node">
<title>DictProducer_2848118504464</title>
<path fill="#43fda2" stroke="#30c1d7" d="M12,-57.5C12,-57.5 57,-57.5 57,-57.5 63,-57.5 69,-63.5 69,-69.5 69,-69.5 69,-83.5 69,-83.5 69,-89.5 63,-95.5 57,-95.5 57,-95.5 12,-95.5 12,-95.5 6,-95.5 0,-89.5 0,-83.5 0,-83.5 0,-69.5 0,-69.5 0,-63.5 6,-57.5 12,-57.5"/>
<text text-anchor="middle" x="34.5" y="-83.5" font-family="Monaco, Consolas, monospace" font-size="10.00" fill="#000000">input</text>
<polyline fill="none" stroke="#30c1d7" points="0,-76.5 69,-76.5 "/>
<text text-anchor="start" x="8" y="-64.5" font-family="Monaco, Consolas, monospace" font-size="10.00" fill="#000000">name=input</text>
</g>
<!-- Step_2848118128848 -->
<g id="node4" class="node">
<title>Step_2848118128848</title>
<path fill="#43fda2" stroke="#30c1d7" d="M117,-86.5C117,-86.5 194,-86.5 194,-86.5 200,-86.5 206,-92.5 206,-98.5 206,-98.5 206,-112.5 206,-112.5 206,-118.5 200,-124.5 194,-124.5 194,-124.5 117,-124.5 117,-124.5 111,-124.5 105,-118.5 105,-112.5 105,-112.5 105,-98.5 105,-98.5 105,-92.5 111,-86.5 117,-86.5"/>
<text text-anchor="middle" x="155.5" y="-112.5" font-family="Monaco, Consolas, monospace" font-size="10.00" fill="#000000">augment</text>
<polyline fill="none" stroke="#30c1d7" points="105,-105.5 206,-105.5 "/>
<text text-anchor="start" x="113" y="-93.5" font-family="Monaco, Consolas, monospace" font-size="10.00" fill="#000000">label=misleading</text>
</g>
<!-- DictProducer_2848118504464&#45;&gt;Step_2848118128848 -->
<g id="edge4" class="edge">
<title>DictProducer_2848118504464&#45;&gt;Step_2848118128848</title>
<path fill="none" stroke="#30c1d7" d="M69.28,-84.73C77.27,-86.68 86.02,-88.81 94.78,-90.95"/>
<polygon fill="#30c1d7" stroke="#30c1d7" points="94.09,-94.38 104.64,-93.35 95.75,-87.58 94.09,-94.38"/>
</g>
<!-- Step_2848752484048 -->
<g id="node6" class="node">
<title>Step_2848752484048</title>
<path fill="#43fda2" stroke="#30c1d7" d="M122.5,-29.5C122.5,-29.5 188.5,-29.5 188.5,-29.5 194.5,-29.5 200.5,-35.5 200.5,-41.5 200.5,-41.5 200.5,-55.5 200.5,-55.5 200.5,-61.5 194.5,-67.5 188.5,-67.5 188.5,-67.5 122.5,-67.5 122.5,-67.5 116.5,-67.5 110.5,-61.5 110.5,-55.5 110.5,-55.5 110.5,-41.5 110.5,-41.5 110.5,-35.5 116.5,-29.5 122.5,-29.5"/>
<text text-anchor="middle" x="155.5" y="-55.5" font-family="Monaco, Consolas, monospace" font-size="10.00" fill="#000000">augment</text>
<polyline fill="none" stroke="#30c1d7" points="110.5,-48.5 200.5,-48.5 "/>
<text text-anchor="start" x="118.5" y="-36.5" font-family="Monaco, Consolas, monospace" font-size="10.00" fill="#000000">label=original</text>
</g>
<!-- DictProducer_2848118504464&#45;&gt;Step_2848752484048 -->
<g id="edge8" class="edge">
<title>DictProducer_2848118504464&#45;&gt;Step_2848752484048</title>
<path fill="none" stroke="#30c1d7" d="M69.28,-68.55C78.97,-66.27 89.78,-63.73 100.36,-61.24"/>
<polygon fill="#30c1d7" stroke="#30c1d7" points="101.46,-64.58 110.39,-58.88 99.86,-57.76 101.46,-64.58"/>
</g>
<!-- Step_2848116515920 -->
<g id="node2" class="node">
<title>Step_2848116515920</title>
<path fill="#43fda2" stroke="#30c1d7" d="M359,-114.5C359,-114.5 451,-114.5 451,-114.5 457,-114.5 463,-120.5 463,-126.5 463,-126.5 463,-140.5 463,-140.5 463,-146.5 457,-152.5 451,-152.5 451,-152.5 359,-152.5 359,-152.5 353,-152.5 347,-146.5 347,-140.5 347,-140.5 347,-126.5 347,-126.5 347,-120.5 353,-114.5 359,-114.5"/>
<text text-anchor="middle" x="405" y="-140.5" font-family="Monaco, Consolas, monospace" font-size="10.00" fill="#000000">evaluate</text>
<polyline fill="none" stroke="#30c1d7" points="347,-133.5 463,-133.5 "/>
<text text-anchor="start" x="355" y="-121.5" font-family="Monaco, Consolas, monospace" font-size="10.00" fill="#000000">metric=completeness</text>
</g>
<!-- _EndNode_2848119570512 -->
<g id="node3" class="node">
<title>_EndNode_2848119570512</title>
<ellipse fill="none" stroke="#30c1d7" stroke-dasharray="5,2" cx="530.58" cy="-76.5" rx="27.64" ry="27.64"/>
<ellipse fill="none" stroke="#30c1d7" stroke-dasharray="5,2" cx="530.58" cy="-76.5" rx="31.65" ry="31.65"/>
<text text-anchor="middle" x="530.58" y="-71.5" font-family="Monaco, Consolas, monospace" font-size="20.00" fill="#30c1d7">||</text>
</g>
<!-- Step_2848116515920&#45;&gt;_EndNode_2848119570512 -->
<g id="edge9" class="edge">
<title>Step_2848116515920&#45;&gt;_EndNode_2848119570512</title>
<path fill="none" stroke="#30c1d7" stroke-dasharray="5,2" d="M447.49,-114.36C461.96,-107.69 478.11,-100.24 492.22,-93.73"/>
<polygon fill="#30c1d7" stroke="#30c1d7" points="494.01,-96.76 501.62,-89.39 491.07,-90.4 494.01,-96.76"/>
</g>
<!-- Step_2848116520656 -->
<g id="node5" class="node">
<title>Step_2848116520656</title>
<path fill="#43fda2" stroke="#30c1d7" d="M299,-94.5C299,-94.5 254,-94.5 254,-94.5 248,-94.5 242,-88.5 242,-82.5 242,-82.5 242,-70.5 242,-70.5 242,-64.5 248,-58.5 254,-58.5 254,-58.5 299,-58.5 299,-58.5 305,-58.5 311,-64.5 311,-70.5 311,-70.5 311,-82.5 311,-82.5 311,-88.5 305,-94.5 299,-94.5"/>
<text text-anchor="middle" x="276.5" y="-74" font-family="Monaco, Consolas, monospace" font-size="10.00" fill="#000000">ask_swifty</text>
</g>
<!-- Step_2848118128848&#45;&gt;Step_2848116520656 -->
<g id="edge7" class="edge">
<title>Step_2848118128848&#45;&gt;Step_2848116520656</title>
<path fill="none" stroke="#30c1d7" d="M206.28,-93.37C214.79,-91.29 223.58,-89.15 231.91,-87.12"/>
<polygon fill="#30c1d7" stroke="#30c1d7" points="232.92,-90.48 241.81,-84.71 231.26,-83.68 232.92,-90.48"/>
</g>
<!-- Step_2848116520656&#45;&gt;Step_2848116515920 -->
<g id="edge10" class="edge">
<title>Step_2848116520656&#45;&gt;Step_2848116515920</title>
<path fill="none" stroke="#30c1d7" d="M311.07,-91.63C323.68,-97.31 338.32,-103.9 352.2,-110.16"/>
<polygon fill="#30c1d7" stroke="#30c1d7" points="351.1,-113.5 361.65,-114.42 353.98,-107.12 351.1,-113.5"/>
</g>
<!-- Step_2848116509520 -->
<g id="node7" class="node">
<title>Step_2848116509520</title>
<path fill="#43fda2" stroke="#30c1d7" d="M366.5,-57.5C366.5,-57.5 443.5,-57.5 443.5,-57.5 449.5,-57.5 455.5,-63.5 455.5,-69.5 455.5,-69.5 455.5,-83.5 455.5,-83.5 455.5,-89.5 449.5,-95.5 443.5,-95.5 443.5,-95.5 366.5,-95.5 366.5,-95.5 360.5,-95.5 354.5,-89.5 354.5,-83.5 354.5,-83.5 354.5,-69.5 354.5,-69.5 354.5,-63.5 360.5,-57.5 366.5,-57.5"/>
<text text-anchor="middle" x="405" y="-83.5" font-family="Monaco, Consolas, monospace" font-size="10.00" fill="#000000">evaluate</text>
<polyline fill="none" stroke="#30c1d7" points="354.5,-76.5 455.5,-76.5 "/>
<text text-anchor="start" x="362.5" y="-64.5" font-family="Monaco, Consolas, monospace" font-size="10.00" fill="#000000">metric=relevancy</text>
</g>
<!-- Step_2848116520656&#45;&gt;Step_2848116509520 -->
<g id="edge2" class="edge">
<title>Step_2848116520656&#45;&gt;Step_2848116509520</title>
<path fill="none" stroke="#30c1d7" d="M311.07,-76.5C321.15,-76.5 332.54,-76.5 343.81,-76.5"/>
<polygon fill="#30c1d7" stroke="#30c1d7" points="344.07,-80 354.07,-76.5 344.07,-73 344.07,-80"/>
</g>
<!-- Step_2848116517328 -->
<g id="node8" class="node">
<title>Step_2848116517328</title>
<path fill="#43fda2" stroke="#30c1d7" d="M359,-0.5C359,-0.5 451,-0.5 451,-0.5 457,-0.5 463,-6.5 463,-12.5 463,-12.5 463,-26.5 463,-26.5 463,-32.5 457,-38.5 451,-38.5 451,-38.5 359,-38.5 359,-38.5 353,-38.5 347,-32.5 347,-26.5 347,-26.5 347,-12.5 347,-12.5 347,-6.5 353,-0.5 359,-0.5"/>
<text text-anchor="middle" x="405" y="-26.5" font-family="Monaco, Consolas, monospace" font-size="10.00" fill="#000000">evaluate</text>
<polyline fill="none" stroke="#30c1d7" points="347,-19.5 463,-19.5 "/>
<text text-anchor="start" x="355" y="-7.5" font-family="Monaco, Consolas, monospace" font-size="10.00" fill="#000000">metric=faithfulness</text>
</g>
<!-- Step_2848116520656&#45;&gt;Step_2848116517328 -->
<g id="edge6" class="edge">
<title>Step_2848116520656&#45;&gt;Step_2848116517328</title>
<path fill="none" stroke="#30c1d7" d="M311.07,-61.37C323.68,-55.69 338.32,-49.1 352.2,-42.84"/>
<polygon fill="#30c1d7" stroke="#30c1d7" points="353.98,-45.88 361.65,-38.58 351.1,-39.5 353.98,-45.88"/>
</g>
<!-- Step_2848752484048&#45;&gt;Step_2848116520656 -->
<g id="edge1" class="edge">
<title>Step_2848752484048&#45;&gt;Step_2848116520656</title>
<path fill="none" stroke="#30c1d7" d="M200.81,-58.93C211.02,-61.33 221.87,-63.88 232.04,-66.27"/>
<polygon fill="#30c1d7" stroke="#30c1d7" points="231.41,-69.72 241.94,-68.6 233.01,-62.91 231.41,-69.72"/>
</g>
<!-- Step_2848116509520&#45;&gt;_EndNode_2848119570512 -->
<g id="edge5" class="edge">
<title>Step_2848116509520&#45;&gt;_EndNode_2848119570512</title>
<path fill="none" stroke="#30c1d7" stroke-dasharray="5,2" d="M455.55,-76.5C466.53,-76.5 478.05,-76.5 488.64,-76.5"/>
<polygon fill="#30c1d7" stroke="#30c1d7" points="488.86,-80 498.86,-76.5 488.86,-73 488.86,-80"/>
</g>
<!-- Step_2848116517328&#45;&gt;_EndNode_2848119570512 -->
<g id="edge3" class="edge">
<title>Step_2848116517328&#45;&gt;_EndNode_2848119570512</title>
<path fill="none" stroke="#30c1d7" stroke-dasharray="5,2" d="M447.49,-38.64C461.96,-45.31 478.11,-52.76 492.22,-59.27"/>
<polygon fill="#30c1d7" stroke="#30c1d7" points="491.07,-62.6 501.62,-63.61 494.01,-56.24 491.07,-62.6"/>
</g>
</g>
</svg>
