<?xml version="1.0" encoding="UTF-8" standalone="no"?>
<!DOCTYPE svg PUBLIC "-//W3C//DTD SVG 1.1//EN"
 "http://www.w3.org/Graphics/SVG/1.1/DTD/svg11.dtd">
<!-- Generated by graphviz version 10.0.1 (20240210.2158)
 -->
<!-- Title: Flow Pages: 1 -->
<svg width="574pt" height="218pt"
 viewBox="0.00 0.00 574.00 217.50" xmlns="http://www.w3.org/2000/svg" xmlns:xlink="http://www.w3.org/1999/xlink">
<g id="graph0" class="graph" transform="scale(1 1) rotate(0) translate(4 213.5)">
<title>Flow</title>
<polygon fill="#ffffff" stroke="none" points="-4,4 -4,-213.5 570,-213.5 570,4 -4,4"/>
<!-- Step_6201471776 -->
<g id="node1" class="node">
<title>Step_6201471776</title>
<path fill="#43fda2" stroke="#30c1d7" d="M105,-152.5C105,-152.5 223,-152.5 223,-152.5 229,-152.5 235,-158.5 235,-164.5 235,-164.5 235,-197 235,-197 235,-203 229,-209 223,-209 223,-209 105,-209 105,-209 99,-209 93,-203 93,-197 93,-197 93,-164.5 93,-164.5 93,-158.5 99,-152.5 105,-152.5"/>
<text text-anchor="middle" x="164" y="-195.5" font-family="Monaco, Consolas, monospace" font-size="10.00" fill="#000000">augment</text>
<polyline fill="none" stroke="#30c1d7" points="93,-187.5 235,-187.5"/>
<text text-anchor="start" x="101" y="-174" font-family="Monaco, Consolas, monospace" font-size="10.00" fill="#000000">prefix=Guess...ssage:</text>
<text text-anchor="start" x="101" y="-160.5" font-family="Monaco, Consolas, monospace" font-size="10.00" fill="#000000">label=opposite_day</text>
</g>
<!-- Step_6201467216 -->
<g id="node4" class="node">
<title>Step_6201467216</title>
<path fill="#43fda2" stroke="#30c1d7" d="M374,-122.75C374,-122.75 286,-122.75 286,-122.75 280,-122.75 274,-116.75 274,-110.75 274,-110.75 274,-98.75 274,-98.75 274,-92.75 280,-86.75 286,-86.75 286,-86.75 374,-86.75 374,-86.75 380,-86.75 386,-92.75 386,-98.75 386,-98.75 386,-110.75 386,-110.75 386,-116.75 380,-122.75 374,-122.75"/>
<text text-anchor="middle" x="330" y="-102" font-family="Monaco, Consolas, monospace" font-size="10.00" fill="#000000">star_mobile_chat</text>
</g>
<!-- Step_6201471776&#45;&gt;Step_6201467216 -->
<g id="edge2" class="edge">
<title>Step_6201471776&#45;&gt;Step_6201467216</title>
<path fill="none" stroke="#30c1d7" d="M227,-152.02C244.12,-144.09 262.47,-135.58 278.82,-128"/>
<polygon fill="#30c1d7" stroke="#30c1d7" points="280.27,-131.19 287.87,-123.81 277.33,-124.84 280.27,-131.19"/>
</g>
<!-- _EndNode_13585273136 -->
<g id="node2" class="node">
<title>_EndNode_13585273136</title>
<ellipse fill="none" stroke="#30c1d7" stroke-dasharray="5,2" cx="544" cy="-104.75" rx="18" ry="18"/>
<ellipse fill="none" stroke="#30c1d7" stroke-dasharray="5,2" cx="544" cy="-104.75" rx="22" ry="22"/>
<text text-anchor="middle" x="544" y="-102" font-family="Monaco, Consolas, monospace" font-size="10.00" fill="#30c1d7">||</text>
</g>
<!-- DictProducer_6201473360 -->
<g id="node3" class="node">
<title>DictProducer_6201473360</title>
<path fill="none" stroke="#30c1d7" d="M42,-122.75C42,-122.75 12,-122.75 12,-122.75 6,-122.75 0,-116.75 0,-110.75 0,-110.75 0,-98.75 0,-98.75 0,-92.75 6,-86.75 12,-86.75 12,-86.75 42,-86.75 42,-86.75 48,-86.75 54,-92.75 54,-98.75 54,-98.75 54,-110.75 54,-110.75 54,-116.75 48,-122.75 42,-122.75"/>
<text text-anchor="middle" x="27" y="-102" font-family="Monaco, Consolas, monospace" font-size="10.00" fill="#000000">input</text>
</g>
<!-- DictProducer_6201473360&#45;&gt;Step_6201471776 -->
<g id="edge4" class="edge">
<title>DictProducer_6201473360&#45;&gt;Step_6201471776</title>
<path fill="none" stroke="#30c1d7" d="M54.31,-121.43C65.24,-128.22 78.13,-136.04 90,-142.75 92.31,-144.06 94.67,-145.37 97.05,-146.69"/>
<polygon fill="#30c1d7" stroke="#30c1d7" points="95.2,-149.67 105.66,-151.38 98.55,-143.52 95.2,-149.67"/>
</g>
<!-- Step_6201474992 -->
<g id="node5" class="node">
<title>Step_6201474992</title>
<path fill="#43fda2" stroke="#30c1d7" d="M102,-76.5C102,-76.5 226,-76.5 226,-76.5 232,-76.5 238,-82.5 238,-88.5 238,-88.5 238,-121 238,-121 238,-127 232,-133 226,-133 226,-133 102,-133 102,-133 96,-133 90,-127 90,-121 90,-121 90,-88.5 90,-88.5 90,-82.5 96,-76.5 102,-76.5"/>
<text text-anchor="middle" x="164" y="-119.5" font-family="Monaco, Consolas, monospace" font-size="10.00" fill="#000000">augment</text>
<polyline fill="none" stroke="#30c1d7" points="90,-111.5 238,-111.5"/>
<text text-anchor="start" x="98" y="-98" font-family="Monaco, Consolas, monospace" font-size="10.00" fill="#000000">prefix=If the...ssage:</text>
<text text-anchor="start" x="98" y="-84.5" font-family="Monaco, Consolas, monospace" font-size="10.00" fill="#000000">label=mission_appeal</text>
</g>
<!-- DictProducer_6201473360&#45;&gt;Step_6201474992 -->
<g id="edge6" class="edge">
<title>DictProducer_6201473360&#45;&gt;Step_6201474992</title>
<path fill="none" stroke="#30c1d7" d="M54.35,-104.75C61.5,-104.75 69.64,-104.75 78.19,-104.75"/>
<polygon fill="#30c1d7" stroke="#30c1d7" points="78.08,-108.25 88.08,-104.75 78.08,-101.25 78.08,-108.25"/>
</g>
<!-- Step_6201471152 -->
<g id="node6" class="node">
<title>Step_6201471152</title>
<path fill="#43fda2" stroke="#30c1d7" d="M102,-0.5C102,-0.5 226,-0.5 226,-0.5 232,-0.5 238,-6.5 238,-12.5 238,-12.5 238,-45 238,-45 238,-51 232,-57 226,-57 226,-57 102,-57 102,-57 96,-57 90,-51 90,-45 90,-45 90,-12.5 90,-12.5 90,-6.5 96,-0.5 102,-0.5"/>
<text text-anchor="middle" x="164" y="-43.5" font-family="Monaco, Consolas, monospace" font-size="10.00" fill="#000000">augment</text>
<polyline fill="none" stroke="#30c1d7" points="90,-35.5 238,-35.5"/>
<text text-anchor="start" x="98" y="-22" font-family="Monaco, Consolas, monospace" font-size="10.00" fill="#000000">prefix=Hey th...ssage:</text>
<text text-anchor="start" x="98" y="-8.5" font-family="Monaco, Consolas, monospace" font-size="10.00" fill="#000000">label=positi...mation</text>
</g>
<!-- DictProducer_6201473360&#45;&gt;Step_6201471152 -->
<g id="edge5" class="edge">
<title>DictProducer_6201473360&#45;&gt;Step_6201471152</title>
<path fill="none" stroke="#30c1d7" d="M54.31,-88.07C65.24,-81.28 78.13,-73.46 90,-66.75 92.31,-65.44 94.67,-64.13 97.05,-62.81"/>
<polygon fill="#30c1d7" stroke="#30c1d7" points="98.55,-65.98 105.66,-58.12 95.2,-59.83 98.55,-65.98"/>
</g>
<!-- Step_6201467120 -->
<g id="node7" class="node">
<title>Step_6201467120</title>
<path fill="#43fda2" stroke="#30c1d7" d="M474,-122.75C474,-122.75 434,-122.75 434,-122.75 428,-122.75 422,-116.75 422,-110.75 422,-110.75 422,-98.75 422,-98.75 422,-92.75 428,-86.75 434,-86.75 434,-86.75 474,-86.75 474,-86.75 480,-86.75 486,-92.75 486,-98.75 486,-98.75 486,-110.75 486,-110.75 486,-116.75 480,-122.75 474,-122.75"/>
<text text-anchor="middle" x="454" y="-102" font-family="Monaco, Consolas, monospace" font-size="10.00" fill="#000000">evaluate</text>
</g>
<!-- Step_6201467216&#45;&gt;Step_6201467120 -->
<g id="edge7" class="edge">
<title>Step_6201467216&#45;&gt;Step_6201467120</title>
<path fill="none" stroke="#30c1d7" d="M386.29,-104.75C394.33,-104.75 402.5,-104.75 410.24,-104.75"/>
<polygon fill="#30c1d7" stroke="#30c1d7" points="410.07,-108.25 420.07,-104.75 410.07,-101.25 410.07,-108.25"/>
</g>
<!-- Step_6201474992&#45;&gt;Step_6201467216 -->
<g id="edge8" class="edge">
<title>Step_6201474992&#45;&gt;Step_6201467216</title>
<path fill="none" stroke="#30c1d7" d="M238.37,-104.75C246.39,-104.75 254.52,-104.75 262.45,-104.75"/>
<polygon fill="#30c1d7" stroke="#30c1d7" points="262.38,-108.25 272.38,-104.75 262.38,-101.25 262.38,-108.25"/>
</g>
<!-- Step_6201471152&#45;&gt;Step_6201467216 -->
<g id="edge1" class="edge">
<title>Step_6201471152&#45;&gt;Step_6201467216</title>
<path fill="none" stroke="#30c1d7" d="M227,-57.48C244.12,-65.41 262.47,-73.92 278.82,-81.5"/>
<polygon fill="#30c1d7" stroke="#30c1d7" points="277.33,-84.66 287.87,-85.69 280.27,-78.31 277.33,-84.66"/>
</g>
<!-- Step_6201467120&#45;&gt;_EndNode_13585273136 -->
<g id="edge3" class="edge">
<title>Step_6201467120&#45;&gt;_EndNode_13585273136</title>
<path fill="none" stroke="#30c1d7" stroke-dasharray="5,2" d="M486.27,-104.75C494.08,-104.75 502.47,-104.75 510.35,-104.75"/>
<polygon fill="#30c1d7" stroke="#30c1d7" points="510.24,-108.25 520.24,-104.75 510.24,-101.25 510.24,-108.25"/>
</g>
</g>
</svg>
