<?xml version="1.0" encoding="UTF-8" standalone="no"?>
<!DOCTYPE svg PUBLIC "-//W3C//DTD SVG 1.1//EN"
 "http://www.w3.org/Graphics/SVG/1.1/DTD/svg11.dtd">
<!-- Generated by graphviz version 10.0.1 (20240210.2158)
 -->
<!-- Title: Flow Pages: 1 -->
<svg width="314pt" height="300pt"
 viewBox="0.00 0.00 314.00 300.00" xmlns="http://www.w3.org/2000/svg" xmlns:xlink="http://www.w3.org/1999/xlink">
<g id="graph0" class="graph" transform="scale(1 1) rotate(0) translate(4 296)">
<title>Flow</title>
<polygon fill="#ffffff" stroke="none" points="-4,4 -4,-296 310,-296 310,4 -4,4"/>
<!-- Step_13573984032 -->
<g id="node1" class="node">
<title>Step_13573984032</title>
<path fill="#43fda2" stroke="#30c1d7" d="M117,-248.5C117,-248.5 199,-248.5 199,-248.5 205,-248.5 211,-254.5 211,-260.5 211,-260.5 211,-279.5 211,-279.5 211,-285.5 205,-291.5 199,-291.5 199,-291.5 117,-291.5 117,-291.5 111,-291.5 105,-285.5 105,-279.5 105,-279.5 105,-260.5 105,-260.5 105,-254.5 111,-248.5 117,-248.5"/>
<text text-anchor="middle" x="158" y="-278" font-family="Monaco, Consolas, monospace" font-size="10.00" fill="#000000">augment</text>
<polyline fill="none" stroke="#30c1d7" points="105,-270 211,-270"/>
<text text-anchor="start" x="113" y="-256.5" font-family="Monaco, Consolas, monospace" font-size="10.00" fill="#000000">language=French</text>
</g>
<!-- _EndNode_13570834112 -->
<g id="node6" class="node">
<title>_EndNode_13570834112</title>
<ellipse fill="none" stroke="#30c1d7" stroke-dasharray="5,2" cx="284" cy="-146" rx="18" ry="18"/>
<ellipse fill="none" stroke="#30c1d7" stroke-dasharray="5,2" cx="284" cy="-146" rx="22" ry="22"/>
<text text-anchor="middle" x="284" y="-143.25" font-family="Monaco, Consolas, monospace" font-size="10.00" fill="#30c1d7">||</text>
</g>
<!-- Step_13573984032&#45;&gt;_EndNode_13570834112 -->
<g id="edge8" class="edge">
<title>Step_13573984032&#45;&gt;_EndNode_13570834112</title>
<path fill="none" stroke="#30c1d7" stroke-dasharray="5,2" d="M211.4,-249.55C216.61,-246.43 221.6,-242.92 226,-239 245.34,-221.79 260.28,-196.45 270,-176.56"/>
<polygon fill="#30c1d7" stroke="#30c1d7" points="273.16,-178.07 274.22,-167.53 266.81,-175.11 273.16,-178.07"/>
</g>
<!-- DictProducer_13562008624 -->
<g id="node2" class="node">
<title>DictProducer_13562008624</title>
<path fill="none" stroke="#30c1d7" d="M42,-164C42,-164 12,-164 12,-164 6,-164 0,-158 0,-152 0,-152 0,-140 0,-140 0,-134 6,-128 12,-128 12,-128 42,-128 42,-128 48,-128 54,-134 54,-140 54,-140 54,-152 54,-152 54,-158 48,-164 42,-164"/>
<text text-anchor="middle" x="27" y="-143.25" font-family="Monaco, Consolas, monospace" font-size="10.00" fill="#000000">input</text>
</g>
<!-- DictProducer_13562008624&#45;&gt;Step_13573984032 -->
<g id="edge1" class="edge">
<title>DictProducer_13562008624&#45;&gt;Step_13573984032</title>
<path fill="none" stroke="#30c1d7" d="M36.34,-164.26C46.5,-184.77 65.38,-217.92 90,-239 91.68,-240.44 93.44,-241.82 95.25,-243.16"/>
<polygon fill="#30c1d7" stroke="#30c1d7" points="93.21,-246 103.49,-248.55 97.04,-240.14 93.21,-246"/>
</g>
<!-- Step_13574646592 -->
<g id="node3" class="node">
<title>Step_13574646592</title>
<path fill="#43fda2" stroke="#30c1d7" d="M108,-186.5C108,-186.5 208,-186.5 208,-186.5 214,-186.5 220,-192.5 220,-198.5 220,-198.5 220,-217.5 220,-217.5 220,-223.5 214,-229.5 208,-229.5 208,-229.5 108,-229.5 108,-229.5 102,-229.5 96,-223.5 96,-217.5 96,-217.5 96,-198.5 96,-198.5 96,-192.5 102,-186.5 108,-186.5"/>
<text text-anchor="middle" x="158" y="-216" font-family="Monaco, Consolas, monospace" font-size="10.00" fill="#000000">augment</text>
<polyline fill="none" stroke="#30c1d7" points="96,-208 220,-208"/>
<text text-anchor="start" x="104" y="-194.5" font-family="Monaco, Consolas, monospace" font-size="10.00" fill="#000000">language=Pig Latin</text>
</g>
<!-- DictProducer_13562008624&#45;&gt;Step_13574646592 -->
<g id="edge3" class="edge">
<title>DictProducer_13562008624&#45;&gt;Step_13574646592</title>
<path fill="none" stroke="#30c1d7" d="M54.46,-159.45C65.42,-164.97 78.29,-171.36 90,-177 92.92,-178.41 95.92,-179.84 98.96,-181.28"/>
<polygon fill="#30c1d7" stroke="#30c1d7" points="97.43,-184.42 107.97,-185.52 100.41,-178.09 97.43,-184.42"/>
</g>
<!-- Step_13572851568 -->
<g id="node4" class="node">
<title>Step_13572851568</title>
<path fill="#43fda2" stroke="#30c1d7" d="M105,-124.5C105,-124.5 211,-124.5 211,-124.5 217,-124.5 223,-130.5 223,-136.5 223,-136.5 223,-155.5 223,-155.5 223,-161.5 217,-167.5 211,-167.5 211,-167.5 105,-167.5 105,-167.5 99,-167.5 93,-161.5 93,-155.5 93,-155.5 93,-136.5 93,-136.5 93,-130.5 99,-124.5 105,-124.5"/>
<text text-anchor="middle" x="158" y="-154" font-family="Monaco, Consolas, monospace" font-size="10.00" fill="#000000">augment</text>
<polyline fill="none" stroke="#30c1d7" points="93,-146 223,-146"/>
<text text-anchor="start" x="101" y="-132.5" font-family="Monaco, Consolas, monospace" font-size="10.00" fill="#000000">language=Morse code</text>
</g>
<!-- DictProducer_13562008624&#45;&gt;Step_13572851568 -->
<g id="edge2" class="edge">
<title>DictProducer_13562008624&#45;&gt;Step_13572851568</title>
<path fill="none" stroke="#30c1d7" d="M54.42,-146C62.42,-146 71.63,-146 81.19,-146"/>
<polygon fill="#30c1d7" stroke="#30c1d7" points="81.01,-149.5 91.01,-146 81.01,-142.5 81.01,-149.5"/>
</g>
<!-- Step_13571228592 -->
<g id="node5" class="node">
<title>Step_13571228592</title>
<path fill="#43fda2" stroke="#30c1d7" d="M102,-62.5C102,-62.5 214,-62.5 214,-62.5 220,-62.5 226,-68.5 226,-74.5 226,-74.5 226,-93.5 226,-93.5 226,-99.5 220,-105.5 214,-105.5 214,-105.5 102,-105.5 102,-105.5 96,-105.5 90,-99.5 90,-93.5 90,-93.5 90,-74.5 90,-74.5 90,-68.5 96,-62.5 102,-62.5"/>
<text text-anchor="middle" x="158" y="-92" font-family="Monaco, Consolas, monospace" font-size="10.00" fill="#000000">augment</text>
<polyline fill="none" stroke="#30c1d7" points="90,-84 226,-84"/>
<text text-anchor="start" x="98" y="-70.5" font-family="Monaco, Consolas, monospace" font-size="10.00" fill="#000000">language=Hexadecimal</text>
</g>
<!-- DictProducer_13562008624&#45;&gt;Step_13571228592 -->
<g id="edge6" class="edge">
<title>DictProducer_13562008624&#45;&gt;Step_13571228592</title>
<path fill="none" stroke="#30c1d7" d="M54.46,-132.55C65.42,-127.03 78.29,-120.64 90,-115 92.92,-113.59 95.92,-112.16 98.96,-110.72"/>
<polygon fill="#30c1d7" stroke="#30c1d7" points="100.41,-113.91 107.97,-106.48 97.43,-107.58 100.41,-113.91"/>
</g>
<!-- Step_13575682000 -->
<g id="node7" class="node">
<title>Step_13575682000</title>
<path fill="#43fda2" stroke="#30c1d7" d="M114,-0.5C114,-0.5 202,-0.5 202,-0.5 208,-0.5 214,-6.5 214,-12.5 214,-12.5 214,-31.5 214,-31.5 214,-37.5 208,-43.5 202,-43.5 202,-43.5 114,-43.5 114,-43.5 108,-43.5 102,-37.5 102,-31.5 102,-31.5 102,-12.5 102,-12.5 102,-6.5 108,-0.5 114,-0.5"/>
<text text-anchor="middle" x="158" y="-30" font-family="Monaco, Consolas, monospace" font-size="10.00" fill="#000000">augment</text>
<polyline fill="none" stroke="#30c1d7" points="102,-22 214,-22"/>
<text text-anchor="start" x="110" y="-8.5" font-family="Monaco, Consolas, monospace" font-size="10.00" fill="#000000">language=Spanish</text>
</g>
<!-- DictProducer_13562008624&#45;&gt;Step_13575682000 -->
<g id="edge7" class="edge">
<title>DictProducer_13562008624&#45;&gt;Step_13575682000</title>
<path fill="none" stroke="#30c1d7" d="M36.34,-127.74C46.5,-107.23 65.38,-74.08 90,-53 91.1,-52.06 92.22,-51.15 93.38,-50.25"/>
<polygon fill="#30c1d7" stroke="#30c1d7" points="95.2,-53.25 101.47,-44.7 91.24,-47.48 95.2,-53.25"/>
</g>
<!-- Step_13574646592&#45;&gt;_EndNode_13570834112 -->
<g id="edge9" class="edge">
<title>Step_13574646592&#45;&gt;_EndNode_13570834112</title>
<path fill="none" stroke="#30c1d7" stroke-dasharray="5,2" d="M207.49,-186.02C213.75,-183.05 220.05,-179.99 226,-177 235.33,-172.31 245.38,-166.95 254.4,-162.02"/>
<polygon fill="#30c1d7" stroke="#30c1d7" points="256.03,-165.12 263.09,-157.23 252.65,-158.99 256.03,-165.12"/>
</g>
<!-- Step_13572851568&#45;&gt;_EndNode_13570834112 -->
<g id="edge10" class="edge">
<title>Step_13572851568&#45;&gt;_EndNode_13570834112</title>
<path fill="none" stroke="#30c1d7" stroke-dasharray="5,2" d="M223.18,-146C232.66,-146 242.07,-146 250.53,-146"/>
<polygon fill="#30c1d7" stroke="#30c1d7" points="250.24,-149.5 260.24,-146 250.24,-142.5 250.24,-149.5"/>
</g>
<!-- Step_13571228592&#45;&gt;_EndNode_13570834112 -->
<g id="edge5" class="edge">
<title>Step_13571228592&#45;&gt;_EndNode_13570834112</title>
<path fill="none" stroke="#30c1d7" stroke-dasharray="5,2" d="M207.49,-105.98C213.75,-108.95 220.05,-112.01 226,-115 235.33,-119.69 245.38,-125.05 254.4,-129.98"/>
<polygon fill="#30c1d7" stroke="#30c1d7" points="252.65,-133.01 263.09,-134.77 256.03,-126.88 252.65,-133.01"/>
</g>
<!-- Step_13575682000&#45;&gt;_EndNode_13570834112 -->
<g id="edge4" class="edge">
<title>Step_13575682000&#45;&gt;_EndNode_13570834112</title>
<path fill="none" stroke="#30c1d7" stroke-dasharray="5,2" d="M213.76,-43.9C218.11,-46.65 222.27,-49.68 226,-53 245.34,-70.21 260.28,-95.55 270,-115.44"/>
<polygon fill="#30c1d7" stroke="#30c1d7" points="266.81,-116.89 274.22,-124.47 273.16,-113.93 266.81,-116.89"/>
</g>
</g>
</svg>
