<?xml version="1.0" encoding="UTF-8" standalone="no"?>
<!DOCTYPE svg PUBLIC "-//W3C//DTD SVG 1.1//EN"
 "http://www.w3.org/Graphics/SVG/1.1/DTD/svg11.dtd">
<!-- Generated by graphviz version 10.0.1 (20240210.2158)
 -->
<!-- Title: Flow Pages: 1 -->
<svg width="320pt" height="370pt"
 viewBox="0.00 0.00 320.00 369.50" xmlns="http://www.w3.org/2000/svg" xmlns:xlink="http://www.w3.org/1999/xlink">
<g id="graph0" class="graph" transform="scale(1 1) rotate(0) translate(4 365.5)">
<title>Flow</title>
<polygon fill="#ffffff" stroke="none" points="-4,4 -4,-365.5 316,-365.5 316,4 -4,4"/>
<!-- _EndNode_12923021136 -->
<g id="node1" class="node">
<title>_EndNode_12923021136</title>
<ellipse fill="none" stroke="#30c1d7" stroke-dasharray="5,2" cx="290" cy="-180.75" rx="18" ry="18"/>
<ellipse fill="none" stroke="#30c1d7" stroke-dasharray="5,2" cx="290" cy="-180.75" rx="22" ry="22"/>
<text text-anchor="middle" x="290" y="-178" font-family="Monaco, Consolas, monospace" font-size="10.00" fill="#30c1d7">||</text>
</g>
<!-- Step_12922726272 -->
<g id="node2" class="node">
<title>Step_12922726272</title>
<path fill="#43fda2" stroke="#30c1d7" d="M102,-304.5C102,-304.5 220,-304.5 220,-304.5 226,-304.5 232,-310.5 232,-316.5 232,-316.5 232,-349 232,-349 232,-355 226,-361 220,-361 220,-361 102,-361 102,-361 96,-361 90,-355 90,-349 90,-349 90,-316.5 90,-316.5 90,-310.5 96,-304.5 102,-304.5"/>
<text text-anchor="middle" x="161" y="-347.5" font-family="Monaco, Consolas, monospace" font-size="10.00" fill="#000000">augment</text>
<polyline fill="none" stroke="#30c1d7" points="90,-339.5 232,-339.5"/>
<text text-anchor="start" x="98" y="-326" font-family="Monaco, Consolas, monospace" font-size="10.00" fill="#000000">noise=Bad autocorrect</text>
<text text-anchor="start" x="98" y="-312.5" font-family="Monaco, Consolas, monospace" font-size="10.00" fill="#000000">n=1</text>
</g>
<!-- Step_12922726272&#45;&gt;_EndNode_12923021136 -->
<g id="edge8" class="edge">
<title>Step_12922726272&#45;&gt;_EndNode_12923021136</title>
<path fill="none" stroke="#30c1d7" stroke-dasharray="5,2" d="M221.25,-304.21C225.1,-301.28 228.73,-298.13 232,-294.75 254.54,-271.44 269.95,-237.45 279.01,-212.66"/>
<polygon fill="#30c1d7" stroke="#30c1d7" points="282.25,-214.01 282.23,-203.41 275.64,-211.71 282.25,-214.01"/>
</g>
<!-- DictProducer_12923013792 -->
<g id="node3" class="node">
<title>DictProducer_12923013792</title>
<path fill="none" stroke="#30c1d7" d="M42,-198.75C42,-198.75 12,-198.75 12,-198.75 6,-198.75 0,-192.75 0,-186.75 0,-186.75 0,-174.75 0,-174.75 0,-168.75 6,-162.75 12,-162.75 12,-162.75 42,-162.75 42,-162.75 48,-162.75 54,-168.75 54,-174.75 54,-174.75 54,-186.75 54,-186.75 54,-192.75 48,-198.75 42,-198.75"/>
<text text-anchor="middle" x="27" y="-178" font-family="Monaco, Consolas, monospace" font-size="10.00" fill="#000000">input</text>
</g>
<!-- DictProducer_12923013792&#45;&gt;Step_12922726272 -->
<g id="edge1" class="edge">
<title>DictProducer_12923013792&#45;&gt;Step_12922726272</title>
<path fill="none" stroke="#30c1d7" d="M34.16,-198.98C43.16,-223.35 61.95,-266.72 90,-294.75 90.73,-295.48 91.47,-296.19 92.23,-296.9"/>
<polygon fill="#30c1d7" stroke="#30c1d7" points="89.79,-299.42 99.71,-303.11 94.26,-294.03 89.79,-299.42"/>
</g>
<!-- Step_12922716336 -->
<g id="node4" class="node">
<title>Step_12922716336</title>
<path fill="#43fda2" stroke="#30c1d7" d="M102,-228.5C102,-228.5 220,-228.5 220,-228.5 226,-228.5 232,-234.5 232,-240.5 232,-240.5 232,-273 232,-273 232,-279 226,-285 220,-285 220,-285 102,-285 102,-285 96,-285 90,-279 90,-273 90,-273 90,-240.5 90,-240.5 90,-234.5 96,-228.5 102,-228.5"/>
<text text-anchor="middle" x="161" y="-271.5" font-family="Monaco, Consolas, monospace" font-size="10.00" fill="#000000">augment</text>
<polyline fill="none" stroke="#30c1d7" points="90,-263.5 232,-263.5"/>
<text text-anchor="start" x="98" y="-250" font-family="Monaco, Consolas, monospace" font-size="10.00" fill="#000000">noise=Insert...symbol</text>
<text text-anchor="start" x="98" y="-236.5" font-family="Monaco, Consolas, monospace" font-size="10.00" fill="#000000">n=1</text>
</g>
<!-- DictProducer_12923013792&#45;&gt;Step_12922716336 -->
<g id="edge2" class="edge">
<title>DictProducer_12923013792&#45;&gt;Step_12922716336</title>
<path fill="none" stroke="#30c1d7" d="M54.37,-197.33C65.31,-204.1 78.19,-211.93 90,-218.75 92.19,-220.01 94.42,-221.29 96.68,-222.57"/>
<polygon fill="#30c1d7" stroke="#30c1d7" points="94.96,-225.62 105.39,-227.46 98.38,-219.51 94.96,-225.62"/>
</g>
<!-- Step_12922717872 -->
<g id="node5" class="node">
<title>Step_12922717872</title>
<path fill="#43fda2" stroke="#30c1d7" d="M105,-152.5C105,-152.5 217,-152.5 217,-152.5 223,-152.5 229,-158.5 229,-164.5 229,-164.5 229,-197 229,-197 229,-203 223,-209 217,-209 217,-209 105,-209 105,-209 99,-209 93,-203 93,-197 93,-197 93,-164.5 93,-164.5 93,-158.5 99,-152.5 105,-152.5"/>
<text text-anchor="middle" x="161" y="-195.5" font-family="Monaco, Consolas, monospace" font-size="10.00" fill="#000000">augment</text>
<polyline fill="none" stroke="#30c1d7" points="93,-187.5 229,-187.5"/>
<text text-anchor="start" x="101" y="-174" font-family="Monaco, Consolas, monospace" font-size="10.00" fill="#000000">noise=Missin...space</text>
<text text-anchor="start" x="101" y="-160.5" font-family="Monaco, Consolas, monospace" font-size="10.00" fill="#000000">n=1</text>
</g>
<!-- DictProducer_12923013792&#45;&gt;Step_12922717872 -->
<g id="edge3" class="edge">
<title>DictProducer_12923013792&#45;&gt;Step_12922717872</title>
<path fill="none" stroke="#30c1d7" d="M54.39,-180.75C62.4,-180.75 71.63,-180.75 81.25,-180.75"/>
<polygon fill="#30c1d7" stroke="#30c1d7" points="81.14,-184.25 91.14,-180.75 81.14,-177.25 81.14,-184.25"/>
</g>
<!-- Step_12919239648 -->
<g id="node6" class="node">
<title>Step_12919239648</title>
<path fill="#43fda2" stroke="#30c1d7" d="M108,-76.5C108,-76.5 214,-76.5 214,-76.5 220,-76.5 226,-82.5 226,-88.5 226,-88.5 226,-121 226,-121 226,-127 220,-133 214,-133 214,-133 108,-133 108,-133 102,-133 96,-127 96,-121 96,-121 96,-88.5 96,-88.5 96,-82.5 102,-76.5 108,-76.5"/>
<text text-anchor="middle" x="161" y="-119.5" font-family="Monaco, Consolas, monospace" font-size="10.00" fill="#000000">augment</text>
<polyline fill="none" stroke="#30c1d7" points="96,-111.5 226,-111.5"/>
<text text-anchor="start" x="104" y="-98" font-family="Monaco, Consolas, monospace" font-size="10.00" fill="#000000">noise=Grammar error</text>
<text text-anchor="start" x="104" y="-84.5" font-family="Monaco, Consolas, monospace" font-size="10.00" fill="#000000">n=1</text>
</g>
<!-- DictProducer_12923013792&#45;&gt;Step_12919239648 -->
<g id="edge9" class="edge">
<title>DictProducer_12923013792&#45;&gt;Step_12919239648</title>
<path fill="none" stroke="#30c1d7" d="M54.37,-164.17C65.31,-157.4 78.19,-149.57 90,-142.75 92.19,-141.49 94.42,-140.21 96.68,-138.93"/>
<polygon fill="#30c1d7" stroke="#30c1d7" points="98.38,-141.99 105.39,-134.04 94.96,-135.88 98.38,-141.99"/>
</g>
<!-- Step_12922725360 -->
<g id="node7" class="node">
<title>Step_12922725360</title>
<path fill="#43fda2" stroke="#30c1d7" d="M102,-0.5C102,-0.5 220,-0.5 220,-0.5 226,-0.5 232,-6.5 232,-12.5 232,-12.5 232,-45 232,-45 232,-51 226,-57 220,-57 220,-57 102,-57 102,-57 96,-57 90,-51 90,-45 90,-45 90,-12.5 90,-12.5 90,-6.5 96,-0.5 102,-0.5"/>
<text text-anchor="middle" x="161" y="-43.5" font-family="Monaco, Consolas, monospace" font-size="10.00" fill="#000000">augment</text>
<polyline fill="none" stroke="#30c1d7" points="90,-35.5 232,-35.5"/>
<text text-anchor="start" x="98" y="-22" font-family="Monaco, Consolas, monospace" font-size="10.00" fill="#000000">noise=Delete...letter</text>
<text text-anchor="start" x="98" y="-8.5" font-family="Monaco, Consolas, monospace" font-size="10.00" fill="#000000">n=1</text>
</g>
<!-- DictProducer_12923013792&#45;&gt;Step_12922725360 -->
<g id="edge10" class="edge">
<title>DictProducer_12923013792&#45;&gt;Step_12922725360</title>
<path fill="none" stroke="#30c1d7" d="M34.16,-162.52C43.16,-138.15 61.95,-94.78 90,-66.75 90.73,-66.02 91.47,-65.31 92.23,-64.6"/>
<polygon fill="#30c1d7" stroke="#30c1d7" points="94.26,-67.47 99.71,-58.39 89.79,-62.08 94.26,-67.47"/>
</g>
<!-- Step_12922716336&#45;&gt;_EndNode_12923021136 -->
<g id="edge6" class="edge">
<title>Step_12922716336&#45;&gt;_EndNode_12923021136</title>
<path fill="none" stroke="#30c1d7" stroke-dasharray="5,2" d="M215.79,-228.2C221.3,-225.08 226.79,-221.89 232,-218.75 241.98,-212.73 252.67,-205.76 262.06,-199.43"/>
<polygon fill="#30c1d7" stroke="#30c1d7" points="263.75,-202.52 270.05,-194 259.81,-196.73 263.75,-202.52"/>
</g>
<!-- Step_12922717872&#45;&gt;_EndNode_12923021136 -->
<g id="edge4" class="edge">
<title>Step_12922717872&#45;&gt;_EndNode_12923021136</title>
<path fill="none" stroke="#30c1d7" stroke-dasharray="5,2" d="M229.22,-180.75C238.57,-180.75 247.82,-180.75 256.14,-180.75"/>
<polygon fill="#30c1d7" stroke="#30c1d7" points="256.07,-184.25 266.07,-180.75 256.07,-177.25 256.07,-184.25"/>
</g>
<!-- Step_12919239648&#45;&gt;_EndNode_12923021136 -->
<g id="edge7" class="edge">
<title>Step_12919239648&#45;&gt;_EndNode_12923021136</title>
<path fill="none" stroke="#30c1d7" stroke-dasharray="5,2" d="M215.79,-133.3C221.3,-136.42 226.79,-139.61 232,-142.75 241.98,-148.77 252.67,-155.74 262.06,-162.07"/>
<polygon fill="#30c1d7" stroke="#30c1d7" points="259.81,-164.77 270.05,-167.5 263.75,-158.98 259.81,-164.77"/>
</g>
<!-- Step_12922725360&#45;&gt;_EndNode_12923021136 -->
<g id="edge5" class="edge">
<title>Step_12922725360&#45;&gt;_EndNode_12923021136</title>
<path fill="none" stroke="#30c1d7" stroke-dasharray="5,2" d="M221.25,-57.29C225.1,-60.22 228.73,-63.37 232,-66.75 254.54,-90.06 269.95,-124.05 279.01,-148.84"/>
<polygon fill="#30c1d7" stroke="#30c1d7" points="275.64,-149.79 282.23,-158.09 282.25,-147.49 275.64,-149.79"/>
</g>
</g>
</svg>
