<?xml version="1.0" encoding="UTF-8" standalone="no"?>
<!DOCTYPE svg PUBLIC "-//W3C//DTD SVG 1.1//EN"
 "http://www.w3.org/Graphics/SVG/1.1/DTD/svg11.dtd">
<!-- Generated by graphviz version 10.0.1 (20240210.2158)
 -->
<!-- Title: Flow Pages: 1 -->
<svg width="288pt" height="52pt"
 viewBox="0.00 0.00 288.00 52.00" xmlns="http://www.w3.org/2000/svg" xmlns:xlink="http://www.w3.org/1999/xlink">
<g id="graph0" class="graph" transform="scale(1 1) rotate(0) translate(4 48)">
<title>Flow</title>
<polygon fill="#ffffff" stroke="none" points="-4,4 -4,-48 284,-48 284,4 -4,4"/>
<!-- _EndNode_13063474592 -->
<g id="node1" class="node">
<title>_EndNode_13063474592</title>
<ellipse fill="none" stroke="#30c1d7" stroke-dasharray="5,2" cx="258" cy="-22" rx="18" ry="18"/>
<ellipse fill="none" stroke="#30c1d7" stroke-dasharray="5,2" cx="258" cy="-22" rx="22" ry="22"/>
<text text-anchor="middle" x="258" y="-19.25" font-family="Monaco, Consolas, monospace" font-size="10.00" fill="#30c1d7">||</text>
</g>
<!-- Step_13040110768 -->
<g id="node2" class="node">
<title>Step_13040110768</title>
<path fill="#43fda2" stroke="#30c1d7" d="M124,-0.5C124,-0.5 188,-0.5 188,-0.5 194,-0.5 200,-6.5 200,-12.5 200,-12.5 200,-31.5 200,-31.5 200,-37.5 194,-43.5 188,-43.5 188,-43.5 124,-43.5 124,-43.5 118,-43.5 112,-37.5 112,-31.5 112,-31.5 112,-12.5 112,-12.5 112,-6.5 118,-0.5 124,-0.5"/>
<text text-anchor="middle" x="156" y="-30" font-family="Monaco, Consolas, monospace" font-size="10.00" fill="#000000">personas</text>
<polyline fill="none" stroke="#30c1d7" points="112,-22 200,-22"/>
<text text-anchor="start" x="120" y="-8.5" font-family="Monaco, Consolas, monospace" font-size="10.00" fill="#000000">n_personas=2</text>
</g>
<!-- Step_13040110768&#45;&gt;_EndNode_13063474592 -->
<g id="edge2" class="edge">
<title>Step_13040110768&#45;&gt;_EndNode_13063474592</title>
<path fill="none" stroke="#30c1d7" stroke-dasharray="5,2" d="M200.28,-22C208.32,-22 216.59,-22 224.25,-22"/>
<polygon fill="#30c1d7" stroke="#30c1d7" points="224.14,-25.5 234.14,-22 224.14,-18.5 224.14,-25.5"/>
</g>
<!-- DictProducer_13041099088 -->
<g id="node3" class="node">
<title>DictProducer_13041099088</title>
<path fill="none" stroke="#30c1d7" d="M64,-40C64,-40 12,-40 12,-40 6,-40 0,-34 0,-28 0,-28 0,-16 0,-16 0,-10 6,-4 12,-4 12,-4 64,-4 64,-4 70,-4 76,-10 76,-16 76,-16 76,-28 76,-28 76,-34 70,-40 64,-40"/>
<text text-anchor="middle" x="38" y="-19.25" font-family="Monaco, Consolas, monospace" font-size="10.00" fill="#000000">archetypes</text>
</g>
<!-- DictProducer_13041099088&#45;&gt;Step_13040110768 -->
<g id="edge1" class="edge">
<title>DictProducer_13041099088&#45;&gt;Step_13040110768</title>
<path fill="none" stroke="#30c1d7" d="M76.34,-22C83.99,-22 92.2,-22 100.32,-22"/>
<polygon fill="#30c1d7" stroke="#30c1d7" points="100.16,-25.5 110.16,-22 100.16,-18.5 100.16,-25.5"/>
</g>
</g>
</svg>
