<?xml version="1.0" encoding="UTF-8" standalone="no"?>
<!DOCTYPE svg PUBLIC "-//W3C//DTD SVG 1.1//EN"
 "http://www.w3.org/Graphics/SVG/1.1/DTD/svg11.dtd">
<!-- Generated by graphviz version 10.0.1 (20240210.2158)
 -->
<!-- Title: Flow Pages: 1 -->
<svg width="308pt" height="300pt"
 viewBox="0.00 0.00 308.00 300.00" xmlns="http://www.w3.org/2000/svg" xmlns:xlink="http://www.w3.org/1999/xlink">
<g id="graph0" class="graph" transform="scale(1 1) rotate(0) translate(4 296)">
<title>Flow</title>
<polygon fill="#ffffff" stroke="none" points="-4,4 -4,-296 304,-296 304,4 -4,4"/>
<!-- _EndNode_12919424784 -->
<g id="node1" class="node">
<title>_EndNode_12919424784</title>
<ellipse fill="none" stroke="#30c1d7" stroke-dasharray="5,2" cx="278" cy="-146" rx="18" ry="18"/>
<ellipse fill="none" stroke="#30c1d7" stroke-dasharray="5,2" cx="278" cy="-146" rx="22" ry="22"/>
<text text-anchor="middle" x="278" y="-143.25" font-family="Monaco, Consolas, monospace" font-size="10.00" fill="#30c1d7">||</text>
</g>
<!-- DictProducer_12919438752 -->
<g id="node2" class="node">
<title>DictProducer_12919438752</title>
<path fill="none" stroke="#30c1d7" d="M42,-164C42,-164 12,-164 12,-164 6,-164 0,-158 0,-152 0,-152 0,-140 0,-140 0,-134 6,-128 12,-128 12,-128 42,-128 42,-128 48,-128 54,-134 54,-140 54,-140 54,-152 54,-152 54,-158 48,-164 42,-164"/>
<text text-anchor="middle" x="27" y="-143.25" font-family="Monaco, Consolas, monospace" font-size="10.00" fill="#000000">input</text>
</g>
<!-- Step_12919425072 -->
<g id="node3" class="node">
<title>Step_12919425072</title>
<path fill="#43fda2" stroke="#30c1d7" d="M105,-248.5C105,-248.5 205,-248.5 205,-248.5 211,-248.5 217,-254.5 217,-260.5 217,-260.5 217,-279.5 217,-279.5 217,-285.5 211,-291.5 205,-291.5 205,-291.5 105,-291.5 105,-291.5 99,-291.5 93,-285.5 93,-279.5 93,-279.5 93,-260.5 93,-260.5 93,-254.5 99,-248.5 105,-248.5"/>
<text text-anchor="middle" x="155" y="-278" font-family="Monaco, Consolas, monospace" font-size="10.00" fill="#000000">augment</text>
<polyline fill="none" stroke="#30c1d7" points="93,-270 217,-270"/>
<text text-anchor="start" x="101" y="-256.5" font-family="Monaco, Consolas, monospace" font-size="10.00" fill="#000000">style=Inflammatory</text>
</g>
<!-- DictProducer_12919438752&#45;&gt;Step_12919425072 -->
<g id="edge7" class="edge">
<title>DictProducer_12919438752&#45;&gt;Step_12919425072</title>
<path fill="none" stroke="#30c1d7" d="M36.41,-164.18C46.63,-184.62 65.57,-217.71 90,-239 91.07,-239.94 92.18,-240.85 93.31,-241.74"/>
<polygon fill="#30c1d7" stroke="#30c1d7" points="91.04,-244.42 101.23,-247.3 95.06,-238.69 91.04,-244.42"/>
</g>
<!-- Step_12922718592 -->
<g id="node4" class="node">
<title>Step_12922718592</title>
<path fill="#43fda2" stroke="#30c1d7" d="M117,-186.5C117,-186.5 193,-186.5 193,-186.5 199,-186.5 205,-192.5 205,-198.5 205,-198.5 205,-217.5 205,-217.5 205,-223.5 199,-229.5 193,-229.5 193,-229.5 117,-229.5 117,-229.5 111,-229.5 105,-223.5 105,-217.5 105,-217.5 105,-198.5 105,-198.5 105,-192.5 111,-186.5 117,-186.5"/>
<text text-anchor="middle" x="155" y="-216" font-family="Monaco, Consolas, monospace" font-size="10.00" fill="#000000">augment</text>
<polyline fill="none" stroke="#30c1d7" points="105,-208 205,-208"/>
<text text-anchor="start" x="113" y="-194.5" font-family="Monaco, Consolas, monospace" font-size="10.00" fill="#000000">style=Violence</text>
</g>
<!-- DictProducer_12919438752&#45;&gt;Step_12922718592 -->
<g id="edge10" class="edge">
<title>DictProducer_12919438752&#45;&gt;Step_12922718592</title>
<path fill="none" stroke="#30c1d7" d="M54.21,-159.2C65.24,-164.73 78.23,-171.21 90,-177 92.71,-178.33 95.49,-179.7 98.29,-181.07"/>
<polygon fill="#30c1d7" stroke="#30c1d7" points="96.63,-184.15 107.15,-185.39 99.7,-177.86 96.63,-184.15"/>
</g>
<!-- Step_12922724496 -->
<g id="node5" class="node">
<title>Step_12922724496</title>
<path fill="#43fda2" stroke="#30c1d7" d="M114,-124.5C114,-124.5 196,-124.5 196,-124.5 202,-124.5 208,-130.5 208,-136.5 208,-136.5 208,-155.5 208,-155.5 208,-161.5 202,-167.5 196,-167.5 196,-167.5 114,-167.5 114,-167.5 108,-167.5 102,-161.5 102,-155.5 102,-155.5 102,-136.5 102,-136.5 102,-130.5 108,-124.5 114,-124.5"/>
<text text-anchor="middle" x="155" y="-154" font-family="Monaco, Consolas, monospace" font-size="10.00" fill="#000000">augment</text>
<polyline fill="none" stroke="#30c1d7" points="102,-146 208,-146"/>
<text text-anchor="start" x="110" y="-132.5" font-family="Monaco, Consolas, monospace" font-size="10.00" fill="#000000">style=Fake news</text>
</g>
<!-- DictProducer_12919438752&#45;&gt;Step_12922724496 -->
<g id="edge1" class="edge">
<title>DictProducer_12919438752&#45;&gt;Step_12922724496</title>
<path fill="none" stroke="#30c1d7" d="M54.41,-146C65.02,-146 77.74,-146 90.49,-146"/>
<polygon fill="#30c1d7" stroke="#30c1d7" points="90.13,-149.5 100.13,-146 90.13,-142.5 90.13,-149.5"/>
</g>
<!-- Step_12922717344 -->
<g id="node6" class="node">
<title>Step_12922717344</title>
<path fill="#43fda2" stroke="#30c1d7" d="M102,-62.5C102,-62.5 208,-62.5 208,-62.5 214,-62.5 220,-68.5 220,-74.5 220,-74.5 220,-93.5 220,-93.5 220,-99.5 214,-105.5 208,-105.5 208,-105.5 102,-105.5 102,-105.5 96,-105.5 90,-99.5 90,-93.5 90,-93.5 90,-74.5 90,-74.5 90,-68.5 96,-62.5 102,-62.5"/>
<text text-anchor="middle" x="155" y="-92" font-family="Monaco, Consolas, monospace" font-size="10.00" fill="#000000">augment</text>
<polyline fill="none" stroke="#30c1d7" points="90,-84 220,-84"/>
<text text-anchor="start" x="98" y="-70.5" font-family="Monaco, Consolas, monospace" font-size="10.00" fill="#000000">style=SQL Injection</text>
</g>
<!-- DictProducer_12919438752&#45;&gt;Step_12922717344 -->
<g id="edge3" class="edge">
<title>DictProducer_12919438752&#45;&gt;Step_12922717344</title>
<path fill="none" stroke="#30c1d7" d="M54.21,-132.8C65.24,-127.27 78.23,-120.79 90,-115 92.71,-113.67 95.49,-112.3 98.29,-110.93"/>
<polygon fill="#30c1d7" stroke="#30c1d7" points="99.7,-114.14 107.15,-106.61 96.63,-107.85 99.7,-114.14"/>
</g>
<!-- Step_12919425504 -->
<g id="node7" class="node">
<title>Step_12919425504</title>
<path fill="#43fda2" stroke="#30c1d7" d="M120,-0.5C120,-0.5 190,-0.5 190,-0.5 196,-0.5 202,-6.5 202,-12.5 202,-12.5 202,-31.5 202,-31.5 202,-37.5 196,-43.5 190,-43.5 190,-43.5 120,-43.5 120,-43.5 114,-43.5 108,-37.5 108,-31.5 108,-31.5 108,-12.5 108,-12.5 108,-6.5 114,-0.5 120,-0.5"/>
<text text-anchor="middle" x="155" y="-30" font-family="Monaco, Consolas, monospace" font-size="10.00" fill="#000000">augment</text>
<polyline fill="none" stroke="#30c1d7" points="108,-22 202,-22"/>
<text text-anchor="start" x="116" y="-8.5" font-family="Monaco, Consolas, monospace" font-size="10.00" fill="#000000">style=Hateful</text>
</g>
<!-- DictProducer_12919438752&#45;&gt;Step_12919425504 -->
<g id="edge4" class="edge">
<title>DictProducer_12919438752&#45;&gt;Step_12919425504</title>
<path fill="none" stroke="#30c1d7" d="M36.41,-127.82C46.63,-107.38 65.57,-74.29 90,-53 92.57,-50.76 95.33,-48.64 98.21,-46.65"/>
<polygon fill="#30c1d7" stroke="#30c1d7" points="99.82,-49.77 106.44,-41.49 96.11,-43.83 99.82,-49.77"/>
</g>
<!-- Step_12919425072&#45;&gt;_EndNode_12919424784 -->
<g id="edge2" class="edge">
<title>Step_12919425072&#45;&gt;_EndNode_12919424784</title>
<path fill="none" stroke="#30c1d7" stroke-dasharray="5,2" d="M207.98,-248.11C212.26,-245.35 216.34,-242.32 220,-239 239.18,-221.62 254.13,-196.29 263.9,-176.45"/>
<polygon fill="#30c1d7" stroke="#30c1d7" points="267.04,-177.99 268.14,-167.45 260.71,-175 267.04,-177.99"/>
</g>
<!-- Step_12922718592&#45;&gt;_EndNode_12919424784 -->
<g id="edge5" class="edge">
<title>Step_12922718592&#45;&gt;_EndNode_12919424784</title>
<path fill="none" stroke="#30c1d7" stroke-dasharray="5,2" d="M201.93,-186.08C208.03,-183.07 214.18,-179.99 220,-177 229.29,-172.23 239.33,-166.85 248.35,-161.92"/>
<polygon fill="#30c1d7" stroke="#30c1d7" points="249.97,-165.03 257.05,-157.14 246.6,-158.89 249.97,-165.03"/>
</g>
<!-- Step_12922724496&#45;&gt;_EndNode_12919424784 -->
<g id="edge8" class="edge">
<title>Step_12922724496&#45;&gt;_EndNode_12919424784</title>
<path fill="none" stroke="#30c1d7" stroke-dasharray="5,2" d="M208.37,-146C220.56,-146 233.21,-146 244.27,-146"/>
<polygon fill="#30c1d7" stroke="#30c1d7" points="244.04,-149.5 254.04,-146 244.04,-142.5 244.04,-149.5"/>
</g>
<!-- Step_12922717344&#45;&gt;_EndNode_12919424784 -->
<g id="edge6" class="edge">
<title>Step_12922717344&#45;&gt;_EndNode_12919424784</title>
<path fill="none" stroke="#30c1d7" stroke-dasharray="5,2" d="M201.93,-105.92C208.03,-108.93 214.18,-112.01 220,-115 229.29,-119.77 239.33,-125.15 248.35,-130.08"/>
<polygon fill="#30c1d7" stroke="#30c1d7" points="246.6,-133.11 257.05,-134.86 249.97,-126.97 246.6,-133.11"/>
</g>
<!-- Step_12919425504&#45;&gt;_EndNode_12919424784 -->
<g id="edge9" class="edge">
<title>Step_12919425504&#45;&gt;_EndNode_12919424784</title>
<path fill="none" stroke="#30c1d7" stroke-dasharray="5,2" d="M202.44,-40.51C208.72,-44.12 214.78,-48.28 220,-53 239.18,-70.38 254.13,-95.71 263.9,-115.55"/>
<polygon fill="#30c1d7" stroke="#30c1d7" points="260.71,-117 268.14,-124.55 267.04,-114.01 260.71,-117"/>
</g>
</g>
</svg>
