<?xml version="1.0" encoding="UTF-8" standalone="no"?>
<!DOCTYPE svg PUBLIC "-//W3C//DTD SVG 1.1//EN"
 "http://www.w3.org/Graphics/SVG/1.1/DTD/svg11.dtd">
<!-- Generated by graphviz version 10.0.1 (20240210.2158)
 -->
<!-- Title: Flow Pages: 1 -->
<svg width="320pt" height="300pt"
 viewBox="0.00 0.00 320.00 300.00" xmlns="http://www.w3.org/2000/svg" xmlns:xlink="http://www.w3.org/1999/xlink">
<g id="graph0" class="graph" transform="scale(1 1) rotate(0) translate(4 296)">
<title>Flow</title>
<polygon fill="#ffffff" stroke="none" points="-4,4 -4,-296 316,-296 316,4 -4,4"/>
<!-- Step_12923019216 -->
<g id="node1" class="node">
<title>Step_12923019216</title>
<path fill="#43fda2" stroke="#30c1d7" d="M120,-248.5C120,-248.5 202,-248.5 202,-248.5 208,-248.5 214,-254.5 214,-260.5 214,-260.5 214,-279.5 214,-279.5 214,-285.5 208,-291.5 202,-291.5 202,-291.5 120,-291.5 120,-291.5 114,-291.5 108,-285.5 108,-279.5 108,-279.5 108,-260.5 108,-260.5 108,-254.5 114,-248.5 120,-248.5"/>
<text text-anchor="middle" x="161" y="-278" font-family="Monaco, Consolas, monospace" font-size="10.00" fill="#000000">augment</text>
<polyline fill="none" stroke="#30c1d7" points="108,-270 214,-270"/>
<text text-anchor="start" x="116" y="-256.5" font-family="Monaco, Consolas, monospace" font-size="10.00" fill="#000000">dialect=Caveman</text>
</g>
<!-- _EndNode_12923025216 -->
<g id="node3" class="node">
<title>_EndNode_12923025216</title>
<ellipse fill="none" stroke="#30c1d7" stroke-dasharray="5,2" cx="290" cy="-146" rx="18" ry="18"/>
<ellipse fill="none" stroke="#30c1d7" stroke-dasharray="5,2" cx="290" cy="-146" rx="22" ry="22"/>
<text text-anchor="middle" x="290" y="-143.25" font-family="Monaco, Consolas, monospace" font-size="10.00" fill="#30c1d7">||</text>
</g>
<!-- Step_12923019216&#45;&gt;_EndNode_12923025216 -->
<g id="edge7" class="edge">
<title>Step_12923019216&#45;&gt;_EndNode_12923025216</title>
<path fill="none" stroke="#30c1d7" stroke-dasharray="5,2" d="M214.24,-251.19C220.59,-247.69 226.7,-243.64 232,-239 251.48,-221.95 266.41,-196.6 276.09,-176.66"/>
<polygon fill="#30c1d7" stroke="#30c1d7" points="279.26,-178.15 280.29,-167.61 272.91,-175.21 279.26,-178.15"/>
</g>
<!-- DictProducer_12922815792 -->
<g id="node2" class="node">
<title>DictProducer_12922815792</title>
<path fill="none" stroke="#30c1d7" d="M42,-164C42,-164 12,-164 12,-164 6,-164 0,-158 0,-152 0,-152 0,-140 0,-140 0,-134 6,-128 12,-128 12,-128 42,-128 42,-128 48,-128 54,-134 54,-140 54,-140 54,-152 54,-152 54,-158 48,-164 42,-164"/>
<text text-anchor="middle" x="27" y="-143.25" font-family="Monaco, Consolas, monospace" font-size="10.00" fill="#000000">input</text>
</g>
<!-- DictProducer_12922815792&#45;&gt;Step_12923019216 -->
<g id="edge4" class="edge">
<title>DictProducer_12922815792&#45;&gt;Step_12923019216</title>
<path fill="none" stroke="#30c1d7" d="M36.28,-164.34C46.38,-184.91 65.21,-218.13 90,-239 92.48,-241.09 95.12,-243.06 97.87,-244.91"/>
<polygon fill="#30c1d7" stroke="#30c1d7" points="95.9,-247.82 106.27,-250.01 99.54,-241.83 95.9,-247.82"/>
</g>
<!-- Step_12923015760 -->
<g id="node4" class="node">
<title>Step_12923015760</title>
<path fill="#43fda2" stroke="#30c1d7" d="M123,-186.5C123,-186.5 199,-186.5 199,-186.5 205,-186.5 211,-192.5 211,-198.5 211,-198.5 211,-217.5 211,-217.5 211,-223.5 205,-229.5 199,-229.5 199,-229.5 123,-229.5 123,-229.5 117,-229.5 111,-223.5 111,-217.5 111,-217.5 111,-198.5 111,-198.5 111,-192.5 117,-186.5 123,-186.5"/>
<text text-anchor="middle" x="161" y="-216" font-family="Monaco, Consolas, monospace" font-size="10.00" fill="#000000">augment</text>
<polyline fill="none" stroke="#30c1d7" points="111,-208 211,-208"/>
<text text-anchor="start" x="119" y="-194.5" font-family="Monaco, Consolas, monospace" font-size="10.00" fill="#000000">dialect=Pirate</text>
</g>
<!-- DictProducer_12922815792&#45;&gt;Step_12923015760 -->
<g id="edge1" class="edge">
<title>DictProducer_12922815792&#45;&gt;Step_12923015760</title>
<path fill="none" stroke="#30c1d7" d="M54.42,-159.55C65.37,-165.08 78.24,-171.46 90,-177 93.31,-178.56 96.71,-180.14 100.15,-181.72"/>
<polygon fill="#30c1d7" stroke="#30c1d7" points="98.61,-184.86 109.16,-185.81 101.5,-178.49 98.61,-184.86"/>
</g>
<!-- Step_12923016336 -->
<g id="node5" class="node">
<title>Step_12923016336</title>
<path fill="#43fda2" stroke="#30c1d7" d="M108,-124.5C108,-124.5 214,-124.5 214,-124.5 220,-124.5 226,-130.5 226,-136.5 226,-136.5 226,-155.5 226,-155.5 226,-161.5 220,-167.5 214,-167.5 214,-167.5 108,-167.5 108,-167.5 102,-167.5 96,-161.5 96,-155.5 96,-155.5 96,-136.5 96,-136.5 96,-130.5 102,-124.5 108,-124.5"/>
<text text-anchor="middle" x="161" y="-154" font-family="Monaco, Consolas, monospace" font-size="10.00" fill="#000000">augment</text>
<polyline fill="none" stroke="#30c1d7" points="96,-146 226,-146"/>
<text text-anchor="start" x="104" y="-132.5" font-family="Monaco, Consolas, monospace" font-size="10.00" fill="#000000">dialect=Valley Girl</text>
</g>
<!-- DictProducer_12922815792&#45;&gt;Step_12923016336 -->
<g id="edge10" class="edge">
<title>DictProducer_12922815792&#45;&gt;Step_12923016336</title>
<path fill="none" stroke="#30c1d7" d="M54.39,-146C63.27,-146 73.67,-146 84.41,-146"/>
<polygon fill="#30c1d7" stroke="#30c1d7" points="84.17,-149.5 94.17,-146 84.17,-142.5 84.17,-149.5"/>
</g>
<!-- Step_12923022000 -->
<g id="node6" class="node">
<title>Step_12923022000</title>
<path fill="#43fda2" stroke="#30c1d7" d="M120,-62.5C120,-62.5 202,-62.5 202,-62.5 208,-62.5 214,-68.5 214,-74.5 214,-74.5 214,-93.5 214,-93.5 214,-99.5 208,-105.5 202,-105.5 202,-105.5 120,-105.5 120,-105.5 114,-105.5 108,-99.5 108,-93.5 108,-93.5 108,-74.5 108,-74.5 108,-68.5 114,-62.5 120,-62.5"/>
<text text-anchor="middle" x="161" y="-92" font-family="Monaco, Consolas, monospace" font-size="10.00" fill="#000000">augment</text>
<polyline fill="none" stroke="#30c1d7" points="108,-84 214,-84"/>
<text text-anchor="start" x="116" y="-70.5" font-family="Monaco, Consolas, monospace" font-size="10.00" fill="#000000">dialect=LOLCats</text>
</g>
<!-- DictProducer_12922815792&#45;&gt;Step_12923022000 -->
<g id="edge9" class="edge">
<title>DictProducer_12922815792&#45;&gt;Step_12923022000</title>
<path fill="none" stroke="#30c1d7" d="M54.42,-132.45C65.37,-126.92 78.24,-120.54 90,-115 93.09,-113.55 96.26,-112.07 99.47,-110.6"/>
<polygon fill="#30c1d7" stroke="#30c1d7" points="100.75,-113.86 108.4,-106.53 97.85,-107.49 100.75,-113.86"/>
</g>
<!-- Step_12923024592 -->
<g id="node7" class="node">
<title>Step_12923024592</title>
<path fill="#43fda2" stroke="#30c1d7" d="M102,-0.5C102,-0.5 220,-0.5 220,-0.5 226,-0.5 232,-6.5 232,-12.5 232,-12.5 232,-31.5 232,-31.5 232,-37.5 226,-43.5 220,-43.5 220,-43.5 102,-43.5 102,-43.5 96,-43.5 90,-37.5 90,-31.5 90,-31.5 90,-12.5 90,-12.5 90,-6.5 96,-0.5 102,-0.5"/>
<text text-anchor="middle" x="161" y="-30" font-family="Monaco, Consolas, monospace" font-size="10.00" fill="#000000">augment</text>
<polyline fill="none" stroke="#30c1d7" points="90,-22 232,-22"/>
<text text-anchor="start" x="98" y="-8.5" font-family="Monaco, Consolas, monospace" font-size="10.00" fill="#000000">dialect=Shakespearean</text>
</g>
<!-- DictProducer_12922815792&#45;&gt;Step_12923024592 -->
<g id="edge6" class="edge">
<title>DictProducer_12922815792&#45;&gt;Step_12923024592</title>
<path fill="none" stroke="#30c1d7" d="M36.28,-127.66C46.38,-107.09 65.21,-73.87 90,-53 91.12,-52.06 92.26,-51.15 93.44,-50.25"/>
<polygon fill="#30c1d7" stroke="#30c1d7" points="95.33,-53.2 101.67,-44.71 91.42,-47.39 95.33,-53.2"/>
</g>
<!-- Step_12923015760&#45;&gt;_EndNode_12923025216 -->
<g id="edge5" class="edge">
<title>Step_12923015760&#45;&gt;_EndNode_12923025216</title>
<path fill="none" stroke="#30c1d7" stroke-dasharray="5,2" d="M211.19,-186.82C218.22,-183.62 225.32,-180.29 232,-177 241.37,-172.39 251.43,-167.05 260.45,-162.12"/>
<polygon fill="#30c1d7" stroke="#30c1d7" points="262.08,-165.22 269.14,-157.31 258.69,-159.09 262.08,-165.22"/>
</g>
<!-- Step_12923016336&#45;&gt;_EndNode_12923025216 -->
<g id="edge8" class="edge">
<title>Step_12923016336&#45;&gt;_EndNode_12923025216</title>
<path fill="none" stroke="#30c1d7" stroke-dasharray="5,2" d="M226.24,-146C236.68,-146 247.09,-146 256.35,-146"/>
<polygon fill="#30c1d7" stroke="#30c1d7" points="256.24,-149.5 266.24,-146 256.24,-142.5 256.24,-149.5"/>
</g>
<!-- Step_12923022000&#45;&gt;_EndNode_12923025216 -->
<g id="edge3" class="edge">
<title>Step_12923022000&#45;&gt;_EndNode_12923025216</title>
<path fill="none" stroke="#30c1d7" stroke-dasharray="5,2" d="M212.7,-105.87C219.23,-108.86 225.8,-111.95 232,-115 241.37,-119.61 251.43,-124.95 260.45,-129.88"/>
<polygon fill="#30c1d7" stroke="#30c1d7" points="258.69,-132.91 269.14,-134.69 262.08,-126.78 258.69,-132.91"/>
</g>
<!-- Step_12923024592&#45;&gt;_EndNode_12923025216 -->
<g id="edge2" class="edge">
<title>Step_12923024592&#45;&gt;_EndNode_12923025216</title>
<path fill="none" stroke="#30c1d7" stroke-dasharray="5,2" d="M219.56,-43.92C223.98,-46.65 228.2,-49.67 232,-53 251.48,-70.05 266.41,-95.4 276.09,-115.34"/>
<polygon fill="#30c1d7" stroke="#30c1d7" points="272.91,-116.79 280.29,-124.39 279.26,-113.85 272.91,-116.79"/>
</g>
</g>
</svg>
