<?xml version="1.0" encoding="UTF-8" standalone="no"?>
<!DOCTYPE svg PUBLIC "-//W3C//DTD SVG 1.1//EN"
 "http://www.w3.org/Graphics/SVG/1.1/DTD/svg11.dtd">
<!-- Generated by graphviz version 10.0.1 (20240210.2158)
 -->
<!-- Title: Flow Pages: 1 -->
<svg width="290pt" height="300pt"
 viewBox="0.00 0.00 290.00 300.00" xmlns="http://www.w3.org/2000/svg" xmlns:xlink="http://www.w3.org/1999/xlink">
<g id="graph0" class="graph" transform="scale(1 1) rotate(0) translate(4 296)">
<title>Flow</title>
<polygon fill="#ffffff" stroke="none" points="-4,4 -4,-296 286,-296 286,4 -4,4"/>
<!-- Step_12922723872 -->
<g id="node1" class="node">
<title>Step_12922723872</title>
<path fill="#43fda2" stroke="#30c1d7" d="M117,-248.5C117,-248.5 175,-248.5 175,-248.5 181,-248.5 187,-254.5 187,-260.5 187,-260.5 187,-279.5 187,-279.5 187,-285.5 181,-291.5 175,-291.5 175,-291.5 117,-291.5 117,-291.5 111,-291.5 105,-285.5 105,-279.5 105,-279.5 105,-260.5 105,-260.5 105,-254.5 111,-248.5 117,-248.5"/>
<text text-anchor="middle" x="146" y="-278" font-family="Monaco, Consolas, monospace" font-size="10.00" fill="#000000">augment</text>
<polyline fill="none" stroke="#30c1d7" points="105,-270 187,-270"/>
<text text-anchor="start" x="113" y="-256.5" font-family="Monaco, Consolas, monospace" font-size="10.00" fill="#000000">tone=Formal</text>
</g>
<!-- _EndNode_12922724544 -->
<g id="node6" class="node">
<title>_EndNode_12922724544</title>
<ellipse fill="none" stroke="#30c1d7" stroke-dasharray="5,2" cx="260" cy="-146" rx="18" ry="18"/>
<ellipse fill="none" stroke="#30c1d7" stroke-dasharray="5,2" cx="260" cy="-146" rx="22" ry="22"/>
<text text-anchor="middle" x="260" y="-143.25" font-family="Monaco, Consolas, monospace" font-size="10.00" fill="#30c1d7">||</text>
</g>
<!-- Step_12922723872&#45;&gt;_EndNode_12922724544 -->
<g id="edge8" class="edge">
<title>Step_12922723872&#45;&gt;_EndNode_12922724544</title>
<path fill="none" stroke="#30c1d7" stroke-dasharray="5,2" d="M187.45,-250.42C192.65,-247 197.66,-243.18 202,-239 220.52,-221.15 235.44,-196.05 245.36,-176.43"/>
<polygon fill="#30c1d7" stroke="#30c1d7" points="248.46,-178.06 249.68,-167.53 242.16,-175 248.46,-178.06"/>
</g>
<!-- Step_12922724400 -->
<g id="node2" class="node">
<title>Step_12922724400</title>
<path fill="#43fda2" stroke="#30c1d7" d="M105,-186.5C105,-186.5 187,-186.5 187,-186.5 193,-186.5 199,-192.5 199,-198.5 199,-198.5 199,-217.5 199,-217.5 199,-223.5 193,-229.5 187,-229.5 187,-229.5 105,-229.5 105,-229.5 99,-229.5 93,-223.5 93,-217.5 93,-217.5 93,-198.5 93,-198.5 93,-192.5 99,-186.5 105,-186.5"/>
<text text-anchor="middle" x="146" y="-216" font-family="Monaco, Consolas, monospace" font-size="10.00" fill="#000000">augment</text>
<polyline fill="none" stroke="#30c1d7" points="93,-208 199,-208"/>
<text text-anchor="start" x="101" y="-194.5" font-family="Monaco, Consolas, monospace" font-size="10.00" fill="#000000">tone=Aggressive</text>
</g>
<!-- Step_12922724400&#45;&gt;_EndNode_12922724544 -->
<g id="edge7" class="edge">
<title>Step_12922724400&#45;&gt;_EndNode_12922724544</title>
<path fill="none" stroke="#30c1d7" stroke-dasharray="5,2" d="M186.49,-186.14C200.9,-178.16 216.91,-169.3 230.22,-161.93"/>
<polygon fill="#30c1d7" stroke="#30c1d7" points="231.85,-165.03 238.9,-157.13 228.46,-158.91 231.85,-165.03"/>
</g>
<!-- Step_12922718496 -->
<g id="node3" class="node">
<title>Step_12922718496</title>
<path fill="#43fda2" stroke="#30c1d7" d="M108,-124.5C108,-124.5 184,-124.5 184,-124.5 190,-124.5 196,-130.5 196,-136.5 196,-136.5 196,-155.5 196,-155.5 196,-161.5 190,-167.5 184,-167.5 184,-167.5 108,-167.5 108,-167.5 102,-167.5 96,-161.5 96,-155.5 96,-155.5 96,-136.5 96,-136.5 96,-130.5 102,-124.5 108,-124.5"/>
<text text-anchor="middle" x="146" y="-154" font-family="Monaco, Consolas, monospace" font-size="10.00" fill="#000000">augment</text>
<polyline fill="none" stroke="#30c1d7" points="96,-146 196,-146"/>
<text text-anchor="start" x="104" y="-132.5" font-family="Monaco, Consolas, monospace" font-size="10.00" fill="#000000">tone=Sarcastic</text>
</g>
<!-- Step_12922718496&#45;&gt;_EndNode_12922724544 -->
<g id="edge4" class="edge">
<title>Step_12922718496&#45;&gt;_EndNode_12922724544</title>
<path fill="none" stroke="#30c1d7" stroke-dasharray="5,2" d="M196.45,-146C206.47,-146 216.78,-146 226.06,-146"/>
<polygon fill="#30c1d7" stroke="#30c1d7" points="226.05,-149.5 236.05,-146 226.05,-142.5 226.05,-149.5"/>
</g>
<!-- DictProducer_12922720416 -->
<g id="node4" class="node">
<title>DictProducer_12922720416</title>
<path fill="none" stroke="#30c1d7" d="M42,-164C42,-164 12,-164 12,-164 6,-164 0,-158 0,-152 0,-152 0,-140 0,-140 0,-134 6,-128 12,-128 12,-128 42,-128 42,-128 48,-128 54,-134 54,-140 54,-140 54,-152 54,-152 54,-158 48,-164 42,-164"/>
<text text-anchor="middle" x="27" y="-143.25" font-family="Monaco, Consolas, monospace" font-size="10.00" fill="#000000">input</text>
</g>
<!-- DictProducer_12922720416&#45;&gt;Step_12922723872 -->
<g id="edge3" class="edge">
<title>DictProducer_12922720416&#45;&gt;Step_12922723872</title>
<path fill="none" stroke="#30c1d7" d="M36.85,-164.28C47.33,-184.49 66.39,-217.09 90,-239 91.8,-240.67 93.7,-242.28 95.67,-243.83"/>
<polygon fill="#30c1d7" stroke="#30c1d7" points="93.29,-246.43 103.47,-249.38 97.35,-240.73 93.29,-246.43"/>
</g>
<!-- DictProducer_12922720416&#45;&gt;Step_12922724400 -->
<g id="edge2" class="edge">
<title>DictProducer_12922720416&#45;&gt;Step_12922724400</title>
<path fill="none" stroke="#30c1d7" d="M54.26,-159.91C65.97,-166.12 80.18,-173.65 93.86,-180.9"/>
<polygon fill="#30c1d7" stroke="#30c1d7" points="91.86,-183.8 102.34,-185.39 95.14,-177.62 91.86,-183.8"/>
</g>
<!-- DictProducer_12922720416&#45;&gt;Step_12922718496 -->
<g id="edge10" class="edge">
<title>DictProducer_12922720416&#45;&gt;Step_12922718496</title>
<path fill="none" stroke="#30c1d7" d="M54.26,-146C63.26,-146 73.75,-146 84.33,-146"/>
<polygon fill="#30c1d7" stroke="#30c1d7" points="84.27,-149.5 94.27,-146 84.27,-142.5 84.27,-149.5"/>
</g>
<!-- Step_12922724016 -->
<g id="node5" class="node">
<title>Step_12922724016</title>
<path fill="#43fda2" stroke="#30c1d7" d="M114,-62.5C114,-62.5 178,-62.5 178,-62.5 184,-62.5 190,-68.5 190,-74.5 190,-74.5 190,-93.5 190,-93.5 190,-99.5 184,-105.5 178,-105.5 178,-105.5 114,-105.5 114,-105.5 108,-105.5 102,-99.5 102,-93.5 102,-93.5 102,-74.5 102,-74.5 102,-68.5 108,-62.5 114,-62.5"/>
<text text-anchor="middle" x="146" y="-92" font-family="Monaco, Consolas, monospace" font-size="10.00" fill="#000000">augment</text>
<polyline fill="none" stroke="#30c1d7" points="102,-84 190,-84"/>
<text text-anchor="start" x="110" y="-70.5" font-family="Monaco, Consolas, monospace" font-size="10.00" fill="#000000">tone=Playful</text>
</g>
<!-- DictProducer_12922720416&#45;&gt;Step_12922724016 -->
<g id="edge9" class="edge">
<title>DictProducer_12922720416&#45;&gt;Step_12922724016</title>
<path fill="none" stroke="#30c1d7" d="M54.26,-132.09C65.97,-125.88 80.18,-118.35 93.86,-111.1"/>
<polygon fill="#30c1d7" stroke="#30c1d7" points="95.14,-114.38 102.34,-106.61 91.86,-108.2 95.14,-114.38"/>
</g>
<!-- Step_12922724304 -->
<g id="node7" class="node">
<title>Step_12922724304</title>
<path fill="#43fda2" stroke="#30c1d7" d="M102,-0.5C102,-0.5 190,-0.5 190,-0.5 196,-0.5 202,-6.5 202,-12.5 202,-12.5 202,-31.5 202,-31.5 202,-37.5 196,-43.5 190,-43.5 190,-43.5 102,-43.5 102,-43.5 96,-43.5 90,-37.5 90,-31.5 90,-31.5 90,-12.5 90,-12.5 90,-6.5 96,-0.5 102,-0.5"/>
<text text-anchor="middle" x="146" y="-30" font-family="Monaco, Consolas, monospace" font-size="10.00" fill="#000000">augment</text>
<polyline fill="none" stroke="#30c1d7" points="90,-22 202,-22"/>
<text text-anchor="start" x="98" y="-8.5" font-family="Monaco, Consolas, monospace" font-size="10.00" fill="#000000">tone=Indifferent</text>
</g>
<!-- DictProducer_12922720416&#45;&gt;Step_12922724304 -->
<g id="edge1" class="edge">
<title>DictProducer_12922720416&#45;&gt;Step_12922724304</title>
<path fill="none" stroke="#30c1d7" d="M36.85,-127.72C47.33,-107.51 66.39,-74.91 90,-53 90.88,-52.18 91.79,-51.37 92.72,-50.58"/>
<polygon fill="#30c1d7" stroke="#30c1d7" points="94.56,-53.58 100.39,-44.74 90.31,-48.02 94.56,-53.58"/>
</g>
<!-- Step_12922724016&#45;&gt;_EndNode_12922724544 -->
<g id="edge5" class="edge">
<title>Step_12922724016&#45;&gt;_EndNode_12922724544</title>
<path fill="none" stroke="#30c1d7" stroke-dasharray="5,2" d="M186.49,-105.86C200.9,-113.84 216.91,-122.7 230.22,-130.07"/>
<polygon fill="#30c1d7" stroke="#30c1d7" points="228.46,-133.09 238.9,-134.87 231.85,-126.97 228.46,-133.09"/>
</g>
<!-- Step_12922724304&#45;&gt;_EndNode_12922724544 -->
<g id="edge6" class="edge">
<title>Step_12922724304&#45;&gt;_EndNode_12922724544</title>
<path fill="none" stroke="#30c1d7" stroke-dasharray="5,2" d="M190.82,-43.88C194.8,-46.68 198.61,-49.73 202,-53 220.52,-70.85 235.44,-95.95 245.36,-115.57"/>
<polygon fill="#30c1d7" stroke="#30c1d7" points="242.16,-117 249.68,-124.47 248.46,-113.94 242.16,-117"/>
</g>
</g>
</svg>
