<?xml version="1.0" encoding="UTF-8" standalone="no"?>
<!DOCTYPE svg PUBLIC "-//W3C//DTD SVG 1.1//EN"
 "http://www.w3.org/Graphics/SVG/1.1/DTD/svg11.dtd">
<!-- Generated by graphviz version 2.46.0 (20210118.1747)
 -->
<!-- Title: Flow Pages: 1 -->
<svg width="539pt" height="262pt"
 viewBox="0.00 0.00 539.15 262.00" xmlns="http://www.w3.org/2000/svg" xmlns:xlink="http://www.w3.org/1999/xlink">
<g id="graph0" class="graph" transform="scale(1 1) rotate(0) translate(4 258)">
<title>Flow</title>
<polygon fill="#ffffff" stroke="transparent" points="-4,4 -4,-258 535.15,-258 535.15,4 -4,4"/>
<!-- Step_2932728761872 -->
<g id="node1" class="node">
<title>Step_2932728761872</title>
<path fill="#43fda2" stroke="#30c1d7" d="M119.5,-204.5C119.5,-204.5 222.5,-204.5 222.5,-204.5 228.5,-204.5 234.5,-210.5 234.5,-216.5 234.5,-216.5 234.5,-241.5 234.5,-241.5 234.5,-247.5 228.5,-253.5 222.5,-253.5 222.5,-253.5 119.5,-253.5 119.5,-253.5 113.5,-253.5 107.5,-247.5 107.5,-241.5 107.5,-241.5 107.5,-216.5 107.5,-216.5 107.5,-210.5 113.5,-204.5 119.5,-204.5"/>
<text text-anchor="middle" x="171" y="-241.5" font-family="Monaco, Consolas, monospace" font-size="10.00" fill="#000000">augment</text>
<polyline fill="none" stroke="#30c1d7" points="107.5,-234.5 234.5,-234.5 "/>
<text text-anchor="start" x="115.5" y="-222.5" font-family="Monaco, Consolas, monospace" font-size="10.00" fill="#000000">prefix=</text>
<text text-anchor="start" x="115.5" y="-211.5" font-family="Monaco, Consolas, monospace" font-size="10.00" fill="#000000">label=beaver...iginal</text>
</g>
<!-- Step_2932729099600 -->
<g id="node8" class="node">
<title>Step_2932729099600</title>
<path fill="#43fda2" stroke="#30c1d7" d="M325,-145C325,-145 285,-145 285,-145 279,-145 273,-139 273,-133 273,-133 273,-121 273,-121 273,-115 279,-109 285,-109 285,-109 325,-109 325,-109 331,-109 337,-115 337,-121 337,-121 337,-133 337,-133 337,-139 331,-145 325,-145"/>
<text text-anchor="middle" x="305" y="-124.5" font-family="Monaco, Consolas, monospace" font-size="10.00" fill="#000000">acme_chat</text>
</g>
<!-- Step_2932728761872&#45;&gt;Step_2932729099600 -->
<g id="edge5" class="edge">
<title>Step_2932728761872&#45;&gt;Step_2932729099600</title>
<path fill="none" stroke="#30c1d7" d="M222.97,-204.32C227.84,-201.38 232.6,-198.26 237,-195 253.59,-182.72 269.9,-166.29 282.27,-152.66"/>
<polygon fill="#30c1d7" stroke="#30c1d7" points="285.04,-154.81 289.07,-145.01 279.81,-150.15 285.04,-154.81"/>
</g>
<!-- DictProducer_2932729236496 -->
<g id="node2" class="node">
<title>DictProducer_2932729236496</title>
<path fill="#43fda2" stroke="#30c1d7" d="M12,-108C12,-108 57,-108 57,-108 63,-108 69,-114 69,-120 69,-120 69,-134 69,-134 69,-140 63,-146 57,-146 57,-146 12,-146 12,-146 6,-146 0,-140 0,-134 0,-134 0,-120 0,-120 0,-114 6,-108 12,-108"/>
<text text-anchor="middle" x="34.5" y="-134" font-family="Monaco, Consolas, monospace" font-size="10.00" fill="#000000">input</text>
<polyline fill="none" stroke="#30c1d7" points="0,-127 69,-127 "/>
<text text-anchor="start" x="8" y="-115" font-family="Monaco, Consolas, monospace" font-size="10.00" fill="#000000">name=input</text>
</g>
<!-- DictProducer_2932729236496&#45;&gt;Step_2932728761872 -->
<g id="edge10" class="edge">
<title>DictProducer_2932729236496&#45;&gt;Step_2932728761872</title>
<path fill="none" stroke="#30c1d7" d="M52.2,-146.15C65.53,-160.71 85.2,-180.61 105,-195 106.84,-196.34 108.74,-197.65 110.69,-198.95"/>
<polygon fill="#30c1d7" stroke="#30c1d7" points="109.1,-202.08 119.43,-204.44 112.83,-196.16 109.1,-202.08"/>
</g>
<!-- Step_2932729392848 -->
<g id="node5" class="node">
<title>Step_2932729392848</title>
<path fill="#43fda2" stroke="#30c1d7" d="M119.5,-136.5C119.5,-136.5 222.5,-136.5 222.5,-136.5 228.5,-136.5 234.5,-142.5 234.5,-148.5 234.5,-148.5 234.5,-173.5 234.5,-173.5 234.5,-179.5 228.5,-185.5 222.5,-185.5 222.5,-185.5 119.5,-185.5 119.5,-185.5 113.5,-185.5 107.5,-179.5 107.5,-173.5 107.5,-173.5 107.5,-148.5 107.5,-148.5 107.5,-142.5 113.5,-136.5 119.5,-136.5"/>
<text text-anchor="middle" x="171" y="-173.5" font-family="Monaco, Consolas, monospace" font-size="10.00" fill="#000000">augment</text>
<polyline fill="none" stroke="#30c1d7" points="107.5,-166.5 234.5,-166.5 "/>
<text text-anchor="start" x="115.5" y="-154.5" font-family="Monaco, Consolas, monospace" font-size="10.00" fill="#000000">prefix=Guess...ssage:</text>
<text text-anchor="start" x="115.5" y="-143.5" font-family="Monaco, Consolas, monospace" font-size="10.00" fill="#000000">label=opposite_day</text>
</g>
<!-- DictProducer_2932729236496&#45;&gt;Step_2932729392848 -->
<g id="edge1" class="edge">
<title>DictProducer_2932729236496&#45;&gt;Step_2932729392848</title>
<path fill="none" stroke="#30c1d7" d="M69.09,-135.49C77.79,-137.69 87.49,-140.14 97.36,-142.64"/>
<polygon fill="#30c1d7" stroke="#30c1d7" points="96.69,-146.08 107.24,-145.13 98.4,-139.29 96.69,-146.08"/>
</g>
<!-- Step_2932729392400 -->
<g id="node6" class="node">
<title>Step_2932729392400</title>
<path fill="#43fda2" stroke="#30c1d7" d="M117,-68.5C117,-68.5 225,-68.5 225,-68.5 231,-68.5 237,-74.5 237,-80.5 237,-80.5 237,-105.5 237,-105.5 237,-111.5 231,-117.5 225,-117.5 225,-117.5 117,-117.5 117,-117.5 111,-117.5 105,-111.5 105,-105.5 105,-105.5 105,-80.5 105,-80.5 105,-74.5 111,-68.5 117,-68.5"/>
<text text-anchor="middle" x="171" y="-105.5" font-family="Monaco, Consolas, monospace" font-size="10.00" fill="#000000">augment</text>
<polyline fill="none" stroke="#30c1d7" points="105,-98.5 237,-98.5 "/>
<text text-anchor="start" x="113" y="-86.5" font-family="Monaco, Consolas, monospace" font-size="10.00" fill="#000000">prefix=If the...ssage:</text>
<text text-anchor="start" x="113" y="-75.5" font-family="Monaco, Consolas, monospace" font-size="10.00" fill="#000000">label=mission_appeal</text>
</g>
<!-- DictProducer_2932729236496&#45;&gt;Step_2932729392400 -->
<g id="edge8" class="edge">
<title>DictProducer_2932729236496&#45;&gt;Step_2932729392400</title>
<path fill="none" stroke="#30c1d7" d="M69.09,-118.51C77.09,-116.49 85.95,-114.25 94.99,-111.96"/>
<polygon fill="#30c1d7" stroke="#30c1d7" points="96.02,-115.31 104.85,-109.47 94.3,-108.53 96.02,-115.31"/>
</g>
<!-- Step_2932728761616 -->
<g id="node7" class="node">
<title>Step_2932728761616</title>
<path fill="#43fda2" stroke="#30c1d7" d="M117,-0.5C117,-0.5 225,-0.5 225,-0.5 231,-0.5 237,-6.5 237,-12.5 237,-12.5 237,-37.5 237,-37.5 237,-43.5 231,-49.5 225,-49.5 225,-49.5 117,-49.5 117,-49.5 111,-49.5 105,-43.5 105,-37.5 105,-37.5 105,-12.5 105,-12.5 105,-6.5 111,-0.5 117,-0.5"/>
<text text-anchor="middle" x="171" y="-37.5" font-family="Monaco, Consolas, monospace" font-size="10.00" fill="#000000">augment</text>
<polyline fill="none" stroke="#30c1d7" points="105,-30.5 237,-30.5 "/>
<text text-anchor="start" x="113" y="-18.5" font-family="Monaco, Consolas, monospace" font-size="10.00" fill="#000000">prefix=Hey th...ssage:</text>
<text text-anchor="start" x="113" y="-7.5" font-family="Monaco, Consolas, monospace" font-size="10.00" fill="#000000">label=positi...mation</text>
</g>
<!-- DictProducer_2932729236496&#45;&gt;Step_2932728761616 -->
<g id="edge9" class="edge">
<title>DictProducer_2932729236496&#45;&gt;Step_2932728761616</title>
<path fill="none" stroke="#30c1d7" d="M52.2,-107.85C65.53,-93.29 85.2,-73.39 105,-59 106.84,-57.66 108.74,-56.35 110.69,-55.05"/>
<polygon fill="#30c1d7" stroke="#30c1d7" points="112.83,-57.84 119.43,-49.56 109.1,-51.92 112.83,-57.84"/>
</g>
<!-- Step_2932729209424 -->
<g id="node3" class="node">
<title>Step_2932729209424</title>
<path fill="#43fda2" stroke="#30c1d7" d="M420,-145C420,-145 385,-145 385,-145 379,-145 373,-139 373,-133 373,-133 373,-121 373,-121 373,-115 379,-109 385,-109 385,-109 420,-109 420,-109 426,-109 432,-115 432,-121 432,-121 432,-133 432,-133 432,-139 426,-145 420,-145"/>
<text text-anchor="middle" x="402.5" y="-124.5" font-family="Monaco, Consolas, monospace" font-size="10.00" fill="#000000">evaluate</text>
</g>
<!-- _EndNode_2932728256592 -->
<g id="node4" class="node">
<title>_EndNode_2932728256592</title>
<ellipse fill="none" stroke="#30c1d7" stroke-dasharray="5,2" cx="499.58" cy="-127" rx="27.64" ry="27.64"/>
<ellipse fill="none" stroke="#30c1d7" stroke-dasharray="5,2" cx="499.58" cy="-127" rx="31.65" ry="31.65"/>
<text text-anchor="middle" x="499.58" y="-122" font-family="Monaco, Consolas, monospace" font-size="20.00" fill="#30c1d7">||</text>
</g>
<!-- Step_2932729209424&#45;&gt;_EndNode_2932728256592 -->
<g id="edge3" class="edge">
<title>Step_2932729209424&#45;&gt;_EndNode_2932728256592</title>
<path fill="none" stroke="#30c1d7" stroke-dasharray="5,2" d="M432.03,-127C440.04,-127 448.91,-127 457.5,-127"/>
<polygon fill="#30c1d7" stroke="#30c1d7" points="457.75,-130.5 467.75,-127 457.75,-123.5 457.75,-130.5"/>
</g>
<!-- Step_2932729392848&#45;&gt;Step_2932729099600 -->
<g id="edge7" class="edge">
<title>Step_2932729392848&#45;&gt;Step_2932729099600</title>
<path fill="none" stroke="#30c1d7" d="M234.52,-144.9C244.2,-142.4 253.99,-139.88 263.03,-137.55"/>
<polygon fill="#30c1d7" stroke="#30c1d7" points="264.08,-140.9 272.89,-135.01 262.33,-134.12 264.08,-140.9"/>
</g>
<!-- Step_2932729392400&#45;&gt;Step_2932729099600 -->
<g id="edge4" class="edge">
<title>Step_2932729392400&#45;&gt;Step_2932729099600</title>
<path fill="none" stroke="#30c1d7" d="M237.23,-109.8C246.09,-112.08 254.98,-114.37 263.24,-116.5"/>
<polygon fill="#30c1d7" stroke="#30c1d7" points="262.41,-119.9 272.97,-119.01 264.16,-113.12 262.41,-119.9"/>
</g>
<!-- Step_2932728761616&#45;&gt;Step_2932729099600 -->
<g id="edge6" class="edge">
<title>Step_2932728761616&#45;&gt;Step_2932729099600</title>
<path fill="none" stroke="#30c1d7" d="M222.97,-49.68C227.84,-52.62 232.6,-55.74 237,-59 253.59,-71.28 269.9,-87.71 282.27,-101.34"/>
<polygon fill="#30c1d7" stroke="#30c1d7" points="279.81,-103.85 289.07,-108.99 285.04,-99.19 279.81,-103.85"/>
</g>
<!-- Step_2932729099600&#45;&gt;Step_2932729209424 -->
<g id="edge2" class="edge">
<title>Step_2932729099600&#45;&gt;Step_2932729209424</title>
<path fill="none" stroke="#30c1d7" d="M337.01,-127C345.21,-127 354.18,-127 362.74,-127"/>
<polygon fill="#30c1d7" stroke="#30c1d7" points="362.91,-130.5 372.91,-127 362.91,-123.5 362.91,-130.5"/>
</g>
</g>
</svg>
