<?xml version="1.0" encoding="UTF-8" standalone="no"?>
<!DOCTYPE svg PUBLIC "-//W3C//DTD SVG 1.1//EN"
 "http://www.w3.org/Graphics/SVG/1.1/DTD/svg11.dtd">
<!-- Generated by graphviz version 10.0.1 (20240210.2158)
 -->
<!-- Title: Flow Pages: 1 -->
<svg width="390pt" height="52pt"
 viewBox="0.00 0.00 390.00 52.00" xmlns="http://www.w3.org/2000/svg" xmlns:xlink="http://www.w3.org/1999/xlink">
<g id="graph0" class="graph" transform="scale(1 1) rotate(0) translate(4 48)">
<title>Flow</title>
<polygon fill="#ffffff" stroke="none" points="-4,4 -4,-48 386,-48 386,4 -4,4"/>
<!-- DictProducer_13584260736 -->
<g id="node1" class="node">
<title>DictProducer_13584260736</title>
<path fill="none" stroke="#30c1d7" d="M42,-40C42,-40 12,-40 12,-40 6,-40 0,-34 0,-28 0,-28 0,-16 0,-16 0,-10 6,-4 12,-4 12,-4 42,-4 42,-4 48,-4 54,-10 54,-16 54,-16 54,-28 54,-28 54,-34 48,-40 42,-40"/>
<text text-anchor="middle" x="27" y="-19.25" font-family="Monaco, Consolas, monospace" font-size="10.00" fill="#000000">input</text>
</g>
<!-- Step_13585193280 -->
<g id="node2" class="node">
<title>Step_13585193280</title>
<path fill="#43fda2" stroke="#30c1d7" d="M190,-40C190,-40 102,-40 102,-40 96,-40 90,-34 90,-28 90,-28 90,-16 90,-16 90,-10 96,-4 102,-4 102,-4 190,-4 190,-4 196,-4 202,-10 202,-16 202,-16 202,-28 202,-28 202,-34 196,-40 190,-40"/>
<text text-anchor="middle" x="146" y="-19.25" font-family="Monaco, Consolas, monospace" font-size="10.00" fill="#000000">star_mobile_chat</text>
</g>
<!-- DictProducer_13584260736&#45;&gt;Step_13585193280 -->
<g id="edge2" class="edge">
<title>DictProducer_13584260736&#45;&gt;Step_13585193280</title>
<path fill="none" stroke="#30c1d7" d="M54.26,-22C61.57,-22 69.85,-22 78.37,-22"/>
<polygon fill="#30c1d7" stroke="#30c1d7" points="78.13,-25.5 88.13,-22 78.13,-18.5 78.13,-25.5"/>
</g>
<!-- Step_13583903696 -->
<g id="node4" class="node">
<title>Step_13583903696</title>
<path fill="#43fda2" stroke="#30c1d7" d="M290,-40C290,-40 250,-40 250,-40 244,-40 238,-34 238,-28 238,-28 238,-16 238,-16 238,-10 244,-4 250,-4 250,-4 290,-4 290,-4 296,-4 302,-10 302,-16 302,-16 302,-28 302,-28 302,-34 296,-40 290,-40"/>
<text text-anchor="middle" x="270" y="-19.25" font-family="Monaco, Consolas, monospace" font-size="10.00" fill="#000000">evaluate</text>
</g>
<!-- Step_13585193280&#45;&gt;Step_13583903696 -->
<g id="edge3" class="edge">
<title>Step_13585193280&#45;&gt;Step_13583903696</title>
<path fill="none" stroke="#30c1d7" d="M202.29,-22C210.33,-22 218.5,-22 226.24,-22"/>
<polygon fill="#30c1d7" stroke="#30c1d7" points="226.07,-25.5 236.07,-22 226.07,-18.5 226.07,-25.5"/>
</g>
<!-- _EndNode_13585200720 -->
<g id="node3" class="node">
<title>_EndNode_13585200720</title>
<ellipse fill="none" stroke="#30c1d7" stroke-dasharray="5,2" cx="360" cy="-22" rx="18" ry="18"/>
<ellipse fill="none" stroke="#30c1d7" stroke-dasharray="5,2" cx="360" cy="-22" rx="22" ry="22"/>
<text text-anchor="middle" x="360" y="-19.25" font-family="Monaco, Consolas, monospace" font-size="10.00" fill="#30c1d7">||</text>
</g>
<!-- Step_13583903696&#45;&gt;_EndNode_13585200720 -->
<g id="edge1" class="edge">
<title>Step_13583903696&#45;&gt;_EndNode_13585200720</title>
<path fill="none" stroke="#30c1d7" stroke-dasharray="5,2" d="M302.27,-22C310.08,-22 318.47,-22 326.35,-22"/>
<polygon fill="#30c1d7" stroke="#30c1d7" points="326.24,-25.5 336.24,-22 326.24,-18.5 326.24,-25.5"/>
</g>
</g>
</svg>
