<?xml version="1.0" encoding="UTF-8" standalone="no"?>
<!DOCTYPE svg PUBLIC "-//W3C//DTD SVG 1.1//EN"
 "http://www.w3.org/Graphics/SVG/1.1/DTD/svg11.dtd">
<!-- Generated by graphviz version 2.46.0 (20210118.1747)
 -->
<!-- Title: Flow Pages: 1 -->
<svg width="313pt" height="218pt"
 viewBox="0.00 0.00 313.15 218.00" xmlns="http://www.w3.org/2000/svg" xmlns:xlink="http://www.w3.org/1999/xlink">
<g id="graph0" class="graph" transform="scale(1 1) rotate(0) translate(4 214)">
<title>Flow</title>
<polygon fill="#ffffff" stroke="transparent" points="-4,4 -4,-214 309.15,-214 309.15,4 -4,4"/>
<!-- DictProducer_2848118159888 -->
<g id="node1" class="node">
<title>DictProducer_2848118159888</title>
<path fill="#43fda2" stroke="#30c1d7" d="M12,-85.5C12,-85.5 57,-85.5 57,-85.5 63,-85.5 69,-91.5 69,-97.5 69,-97.5 69,-111.5 69,-111.5 69,-117.5 63,-123.5 57,-123.5 57,-123.5 12,-123.5 12,-123.5 6,-123.5 0,-117.5 0,-111.5 0,-111.5 0,-97.5 0,-97.5 0,-91.5 6,-85.5 12,-85.5"/>
<text text-anchor="middle" x="34.5" y="-111.5" font-family="Monaco, Consolas, monospace" font-size="10.00" fill="#000000">input</text>
<polyline fill="none" stroke="#30c1d7" points="0,-104.5 69,-104.5 "/>
<text text-anchor="start" x="8" y="-92.5" font-family="Monaco, Consolas, monospace" font-size="10.00" fill="#000000">name=input</text>
</g>
<!-- Step_2848118235152 -->
<g id="node2" class="node">
<title>Step_2848118235152</title>
<path fill="#43fda2" stroke="#30c1d7" d="M117,-171.5C117,-171.5 194,-171.5 194,-171.5 200,-171.5 206,-177.5 206,-183.5 206,-183.5 206,-197.5 206,-197.5 206,-203.5 200,-209.5 194,-209.5 194,-209.5 117,-209.5 117,-209.5 111,-209.5 105,-203.5 105,-197.5 105,-197.5 105,-183.5 105,-183.5 105,-177.5 111,-171.5 117,-171.5"/>
<text text-anchor="middle" x="155.5" y="-197.5" font-family="Monaco, Consolas, monospace" font-size="10.00" fill="#000000">augment_answer</text>
<polyline fill="none" stroke="#30c1d7" points="105,-190.5 206,-190.5 "/>
<text text-anchor="start" x="113" y="-178.5" font-family="Monaco, Consolas, monospace" font-size="10.00" fill="#000000">label=irrelevant</text>
</g>
<!-- DictProducer_2848118159888&#45;&gt;Step_2848118235152 -->
<g id="edge7" class="edge">
<title>DictProducer_2848118159888&#45;&gt;Step_2848118235152</title>
<path fill="none" stroke="#30c1d7" d="M56.31,-123.57C69.72,-135.42 87.81,-150.61 105,-162.5 106.64,-163.64 108.34,-164.77 110.06,-165.89"/>
<polygon fill="#30c1d7" stroke="#30c1d7" points="108.53,-169.06 118.87,-171.38 112.23,-163.12 108.53,-169.06"/>
</g>
<!-- Step_2848116845840 -->
<g id="node3" class="node">
<title>Step_2848116845840</title>
<path fill="#43fda2" stroke="#30c1d7" d="M122.5,-114.5C122.5,-114.5 188.5,-114.5 188.5,-114.5 194.5,-114.5 200.5,-120.5 200.5,-126.5 200.5,-126.5 200.5,-140.5 200.5,-140.5 200.5,-146.5 194.5,-152.5 188.5,-152.5 188.5,-152.5 122.5,-152.5 122.5,-152.5 116.5,-152.5 110.5,-146.5 110.5,-140.5 110.5,-140.5 110.5,-126.5 110.5,-126.5 110.5,-120.5 116.5,-114.5 122.5,-114.5"/>
<text text-anchor="middle" x="155.5" y="-140.5" font-family="Monaco, Consolas, monospace" font-size="10.00" fill="#000000">augment_answer</text>
<polyline fill="none" stroke="#30c1d7" points="110.5,-133.5 200.5,-133.5 "/>
<text text-anchor="start" x="118.5" y="-121.5" font-family="Monaco, Consolas, monospace" font-size="10.00" fill="#000000">label=golden</text>
</g>
<!-- DictProducer_2848118159888&#45;&gt;Step_2848116845840 -->
<g id="edge8" class="edge">
<title>DictProducer_2848118159888&#45;&gt;Step_2848116845840</title>
<path fill="none" stroke="#30c1d7" d="M69.28,-112.73C78.97,-115.09 89.78,-117.73 100.36,-120.31"/>
<polygon fill="#30c1d7" stroke="#30c1d7" points="99.85,-123.78 110.39,-122.75 101.51,-116.98 99.85,-123.78"/>
</g>
<!-- Step_2848118241872 -->
<g id="node5" class="node">
<title>Step_2848118241872</title>
<path fill="#43fda2" stroke="#30c1d7" d="M117,-57.5C117,-57.5 194,-57.5 194,-57.5 200,-57.5 206,-63.5 206,-69.5 206,-69.5 206,-83.5 206,-83.5 206,-89.5 200,-95.5 194,-95.5 194,-95.5 117,-95.5 117,-95.5 111,-95.5 105,-89.5 105,-83.5 105,-83.5 105,-69.5 105,-69.5 105,-63.5 111,-57.5 117,-57.5"/>
<text text-anchor="middle" x="155.5" y="-83.5" font-family="Monaco, Consolas, monospace" font-size="10.00" fill="#000000">augment_answer</text>
<polyline fill="none" stroke="#30c1d7" points="105,-76.5 206,-76.5 "/>
<text text-anchor="start" x="113" y="-64.5" font-family="Monaco, Consolas, monospace" font-size="10.00" fill="#000000">label=incomplete</text>
</g>
<!-- DictProducer_2848118159888&#45;&gt;Step_2848118241872 -->
<g id="edge1" class="edge">
<title>DictProducer_2848118159888&#45;&gt;Step_2848118241872</title>
<path fill="none" stroke="#30c1d7" d="M69.28,-96.55C77.27,-94.67 86.02,-92.61 94.78,-90.55"/>
<polygon fill="#30c1d7" stroke="#30c1d7" points="95.7,-93.93 104.64,-88.23 94.1,-87.12 95.7,-93.93"/>
</g>
<!-- Step_2848118154640 -->
<g id="node6" class="node">
<title>Step_2848118154640</title>
<path fill="#43fda2" stroke="#30c1d7" d="M117,-0.5C117,-0.5 194,-0.5 194,-0.5 200,-0.5 206,-6.5 206,-12.5 206,-12.5 206,-26.5 206,-26.5 206,-32.5 200,-38.5 194,-38.5 194,-38.5 117,-38.5 117,-38.5 111,-38.5 105,-32.5 105,-26.5 105,-26.5 105,-12.5 105,-12.5 105,-6.5 111,-0.5 117,-0.5"/>
<text text-anchor="middle" x="155.5" y="-26.5" font-family="Monaco, Consolas, monospace" font-size="10.00" fill="#000000">augment_answer</text>
<polyline fill="none" stroke="#30c1d7" points="105,-19.5 206,-19.5 "/>
<text text-anchor="start" x="113" y="-7.5" font-family="Monaco, Consolas, monospace" font-size="10.00" fill="#000000">label=unfaithful</text>
</g>
<!-- DictProducer_2848118159888&#45;&gt;Step_2848118154640 -->
<g id="edge5" class="edge">
<title>DictProducer_2848118159888&#45;&gt;Step_2848118154640</title>
<path fill="none" stroke="#30c1d7" d="M57.39,-85.47C70.76,-74.2 88.42,-59.94 105,-48.5 107.12,-47.04 109.31,-45.58 111.54,-44.13"/>
<polygon fill="#30c1d7" stroke="#30c1d7" points="113.66,-46.94 120.27,-38.66 109.94,-41.01 113.66,-46.94"/>
</g>
<!-- _EndNode_2848118016784 -->
<g id="node4" class="node">
<title>_EndNode_2848118016784</title>
<ellipse fill="none" stroke="#30c1d7" stroke-dasharray="5,2" cx="273.58" cy="-104.5" rx="27.64" ry="27.64"/>
<ellipse fill="none" stroke="#30c1d7" stroke-dasharray="5,2" cx="273.58" cy="-104.5" rx="31.65" ry="31.65"/>
<text text-anchor="middle" x="273.58" y="-99.5" font-family="Monaco, Consolas, monospace" font-size="20.00" fill="#30c1d7">||</text>
</g>
<!-- Step_2848118235152&#45;&gt;_EndNode_2848118016784 -->
<g id="edge4" class="edge">
<title>Step_2848118235152&#45;&gt;_EndNode_2848118016784</title>
<path fill="none" stroke="#30c1d7" stroke-dasharray="5,2" d="M192.19,-171.46C196.93,-168.61 201.65,-165.58 206,-162.5 218.49,-153.67 231.35,-142.91 242.41,-133.07"/>
<polygon fill="#30c1d7" stroke="#30c1d7" points="245.04,-135.41 250.11,-126.1 240.34,-130.22 245.04,-135.41"/>
</g>
<!-- Step_2848116845840&#45;&gt;_EndNode_2848118016784 -->
<g id="edge2" class="edge">
<title>Step_2848116845840&#45;&gt;_EndNode_2848118016784</title>
<path fill="none" stroke="#30c1d7" stroke-dasharray="5,2" d="M200.71,-122.45C211.29,-119.81 222.51,-117.01 232.86,-114.42"/>
<polygon fill="#30c1d7" stroke="#30c1d7" points="234.02,-117.74 242.87,-111.92 232.32,-110.95 234.02,-117.74"/>
</g>
<!-- Step_2848118241872&#45;&gt;_EndNode_2848118016784 -->
<g id="edge3" class="edge">
<title>Step_2848118241872&#45;&gt;_EndNode_2848118016784</title>
<path fill="none" stroke="#30c1d7" stroke-dasharray="5,2" d="M206.06,-88.46C215.01,-90.61 224.23,-92.84 232.85,-94.92"/>
<polygon fill="#30c1d7" stroke="#30c1d7" points="232.1,-98.34 242.64,-97.28 233.74,-91.53 232.1,-98.34"/>
</g>
<!-- Step_2848118154640&#45;&gt;_EndNode_2848118016784 -->
<g id="edge6" class="edge">
<title>Step_2848118154640&#45;&gt;_EndNode_2848118016784</title>
<path fill="none" stroke="#30c1d7" stroke-dasharray="5,2" d="M190.8,-38.57C195.98,-41.74 201.2,-45.11 206,-48.5 218.21,-57.12 230.93,-67.45 241.95,-76.87"/>
<polygon fill="#30c1d7" stroke="#30c1d7" points="239.78,-79.63 249.63,-83.53 244.37,-74.34 239.78,-79.63"/>
</g>
</g>
</svg>
