<?xml version="1.0" encoding="UTF-8" standalone="no"?>
<!DOCTYPE svg PUBLIC "-//W3C//DTD SVG 1.1//EN"
 "http://www.w3.org/Graphics/SVG/1.1/DTD/svg11.dtd">
<!-- Generated by graphviz version 10.0.1 (20240210.2158)
 -->
<!-- Title: Flow Pages: 1 -->
<svg width="432pt" height="294pt"
 viewBox="0.00 0.00 432.00 293.50" xmlns="http://www.w3.org/2000/svg" xmlns:xlink="http://www.w3.org/1999/xlink">
<g id="graph0" class="graph" transform="scale(1 1) rotate(0) translate(4 289.5)">
<title>Flow</title>
<polygon fill="#ffffff" stroke="none" points="-4,4 -4,-289.5 428,-289.5 428,4 -4,4"/>
<!-- Step_14007697680 -->
<g id="node1" class="node">
<title>Step_14007697680</title>
<path fill="#43fda2" stroke="#30c1d7" d="M105,-228.5C105,-228.5 223,-228.5 223,-228.5 229,-228.5 235,-234.5 235,-240.5 235,-240.5 235,-273 235,-273 235,-279 229,-285 223,-285 223,-285 105,-285 105,-285 99,-285 93,-279 93,-273 93,-273 93,-240.5 93,-240.5 93,-234.5 99,-228.5 105,-228.5"/>
<text text-anchor="middle" x="164" y="-271.5" font-family="Monaco, Consolas, monospace" font-size="10.00" fill="#000000">augment</text>
<polyline fill="none" stroke="#30c1d7" points="93,-263.5 235,-263.5"/>
<text text-anchor="start" x="101" y="-250" font-family="Monaco, Consolas, monospace" font-size="10.00" fill="#000000">prefix=Guess...ssage:</text>
<text text-anchor="start" x="101" y="-236.5" font-family="Monaco, Consolas, monospace" font-size="10.00" fill="#000000">label=opposite_day</text>
</g>
<!-- Step_14007268464 -->
<g id="node7" class="node">
<title>Step_14007268464</title>
<path fill="#43fda2" stroke="#30c1d7" d="M332,-160.75C332,-160.75 286,-160.75 286,-160.75 280,-160.75 274,-154.75 274,-148.75 274,-148.75 274,-136.75 274,-136.75 274,-130.75 280,-124.75 286,-124.75 286,-124.75 332,-124.75 332,-124.75 338,-124.75 344,-130.75 344,-136.75 344,-136.75 344,-148.75 344,-148.75 344,-154.75 338,-160.75 332,-160.75"/>
<text text-anchor="middle" x="309" y="-140" font-family="Monaco, Consolas, monospace" font-size="10.00" fill="#000000">acme_chat</text>
</g>
<!-- Step_14007697680&#45;&gt;Step_14007268464 -->
<g id="edge8" class="edge">
<title>Step_14007697680&#45;&gt;Step_14007268464</title>
<path fill="none" stroke="#30c1d7" d="M224.27,-228.19C229.05,-225.21 233.69,-222.05 238,-218.75 256.46,-204.62 274.16,-185.33 287.15,-169.71"/>
<polygon fill="#30c1d7" stroke="#30c1d7" points="289.68,-172.16 293.27,-162.19 284.24,-167.74 289.68,-172.16"/>
</g>
<!-- DictProducer_14007439904 -->
<g id="node2" class="node">
<title>DictProducer_14007439904</title>
<path fill="none" stroke="#30c1d7" d="M42,-160.75C42,-160.75 12,-160.75 12,-160.75 6,-160.75 0,-154.75 0,-148.75 0,-148.75 0,-136.75 0,-136.75 0,-130.75 6,-124.75 12,-124.75 12,-124.75 42,-124.75 42,-124.75 48,-124.75 54,-130.75 54,-136.75 54,-136.75 54,-148.75 54,-148.75 54,-154.75 48,-160.75 42,-160.75"/>
<text text-anchor="middle" x="27" y="-140" font-family="Monaco, Consolas, monospace" font-size="10.00" fill="#000000">input</text>
</g>
<!-- DictProducer_14007439904&#45;&gt;Step_14007697680 -->
<g id="edge6" class="edge">
<title>DictProducer_14007439904&#45;&gt;Step_14007697680</title>
<path fill="none" stroke="#30c1d7" d="M39.78,-161.12C51.12,-177.74 69.53,-202.09 90,-218.75 91.28,-219.79 92.6,-220.82 93.94,-221.83"/>
<polygon fill="#30c1d7" stroke="#30c1d7" points="91.69,-224.53 101.89,-227.36 95.68,-218.78 91.69,-224.53"/>
</g>
<!-- Step_14007710832 -->
<g id="node4" class="node">
<title>Step_14007710832</title>
<path fill="#43fda2" stroke="#30c1d7" d="M102,-152.5C102,-152.5 226,-152.5 226,-152.5 232,-152.5 238,-158.5 238,-164.5 238,-164.5 238,-197 238,-197 238,-203 232,-209 226,-209 226,-209 102,-209 102,-209 96,-209 90,-203 90,-197 90,-197 90,-164.5 90,-164.5 90,-158.5 96,-152.5 102,-152.5"/>
<text text-anchor="middle" x="164" y="-195.5" font-family="Monaco, Consolas, monospace" font-size="10.00" fill="#000000">augment</text>
<polyline fill="none" stroke="#30c1d7" points="90,-187.5 238,-187.5"/>
<text text-anchor="start" x="98" y="-174" font-family="Monaco, Consolas, monospace" font-size="10.00" fill="#000000">prefix=Hey th...ssage:</text>
<text text-anchor="start" x="98" y="-160.5" font-family="Monaco, Consolas, monospace" font-size="10.00" fill="#000000">label=positi...mation</text>
</g>
<!-- DictProducer_14007439904&#45;&gt;Step_14007710832 -->
<g id="edge9" class="edge">
<title>DictProducer_14007439904&#45;&gt;Step_14007710832</title>
<path fill="none" stroke="#30c1d7" d="M54.35,-150.17C61.66,-152.22 70.01,-154.58 78.76,-157.04"/>
<polygon fill="#30c1d7" stroke="#30c1d7" points="77.56,-160.34 88.14,-159.68 79.46,-153.6 77.56,-160.34"/>
</g>
<!-- Step_14007699600 -->
<g id="node5" class="node">
<title>Step_14007699600</title>
<path fill="#43fda2" stroke="#30c1d7" d="M102,-76.5C102,-76.5 226,-76.5 226,-76.5 232,-76.5 238,-82.5 238,-88.5 238,-88.5 238,-121 238,-121 238,-127 232,-133 226,-133 226,-133 102,-133 102,-133 96,-133 90,-127 90,-121 90,-121 90,-88.5 90,-88.5 90,-82.5 96,-76.5 102,-76.5"/>
<text text-anchor="middle" x="164" y="-119.5" font-family="Monaco, Consolas, monospace" font-size="10.00" fill="#000000">augment</text>
<polyline fill="none" stroke="#30c1d7" points="90,-111.5 238,-111.5"/>
<text text-anchor="start" x="98" y="-98" font-family="Monaco, Consolas, monospace" font-size="10.00" fill="#000000">prefix=If the...ssage:</text>
<text text-anchor="start" x="98" y="-84.5" font-family="Monaco, Consolas, monospace" font-size="10.00" fill="#000000">label=mission_appeal</text>
</g>
<!-- DictProducer_14007439904&#45;&gt;Step_14007699600 -->
<g id="edge2" class="edge">
<title>DictProducer_14007439904&#45;&gt;Step_14007699600</title>
<path fill="none" stroke="#30c1d7" d="M54.35,-135.33C61.66,-133.28 70.01,-130.92 78.76,-128.46"/>
<polygon fill="#30c1d7" stroke="#30c1d7" points="79.46,-131.9 88.14,-125.82 77.56,-125.16 79.46,-131.9"/>
</g>
<!-- Step_14007713472 -->
<g id="node6" class="node">
<title>Step_14007713472</title>
<path fill="#43fda2" stroke="#30c1d7" d="M105,-0.5C105,-0.5 223,-0.5 223,-0.5 229,-0.5 235,-6.5 235,-12.5 235,-12.5 235,-45 235,-45 235,-51 229,-57 223,-57 223,-57 105,-57 105,-57 99,-57 93,-51 93,-45 93,-45 93,-12.5 93,-12.5 93,-6.5 99,-0.5 105,-0.5"/>
<text text-anchor="middle" x="164" y="-43.5" font-family="Monaco, Consolas, monospace" font-size="10.00" fill="#000000">augment</text>
<polyline fill="none" stroke="#30c1d7" points="93,-35.5 235,-35.5"/>
<text text-anchor="start" x="101" y="-22" font-family="Monaco, Consolas, monospace" font-size="10.00" fill="#000000">prefix=</text>
<text text-anchor="start" x="101" y="-8.5" font-family="Monaco, Consolas, monospace" font-size="10.00" fill="#000000">label=beaver...iginal</text>
</g>
<!-- DictProducer_14007439904&#45;&gt;Step_14007713472 -->
<g id="edge5" class="edge">
<title>DictProducer_14007439904&#45;&gt;Step_14007713472</title>
<path fill="none" stroke="#30c1d7" d="M39.78,-124.38C51.12,-107.76 69.53,-83.41 90,-66.75 91.28,-65.71 92.6,-64.68 93.94,-63.67"/>
<polygon fill="#30c1d7" stroke="#30c1d7" points="95.68,-66.72 101.89,-58.14 91.69,-60.97 95.68,-66.72"/>
</g>
<!-- _EndNode_14008287840 -->
<g id="node3" class="node">
<title>_EndNode_14008287840</title>
<ellipse fill="none" stroke="#30c1d7" stroke-dasharray="5,2" cx="402" cy="-142.75" rx="18" ry="18"/>
<ellipse fill="none" stroke="#30c1d7" stroke-dasharray="5,2" cx="402" cy="-142.75" rx="22" ry="22"/>
<text text-anchor="middle" x="402" y="-140" font-family="Monaco, Consolas, monospace" font-size="10.00" fill="#30c1d7">||</text>
</g>
<!-- Step_14007710832&#45;&gt;Step_14007268464 -->
<g id="edge7" class="edge">
<title>Step_14007710832&#45;&gt;Step_14007268464</title>
<path fill="none" stroke="#30c1d7" d="M238.18,-161.3C246.49,-159.1 254.77,-156.9 262.57,-154.82"/>
<polygon fill="#30c1d7" stroke="#30c1d7" points="263.37,-158.23 272.14,-152.28 261.57,-151.47 263.37,-158.23"/>
</g>
<!-- Step_14007699600&#45;&gt;Step_14007268464 -->
<g id="edge3" class="edge">
<title>Step_14007699600&#45;&gt;Step_14007268464</title>
<path fill="none" stroke="#30c1d7" d="M238.18,-124.2C246.49,-126.4 254.77,-128.6 262.57,-130.68"/>
<polygon fill="#30c1d7" stroke="#30c1d7" points="261.57,-134.03 272.14,-133.22 263.37,-127.27 261.57,-134.03"/>
</g>
<!-- Step_14007713472&#45;&gt;Step_14007268464 -->
<g id="edge4" class="edge">
<title>Step_14007713472&#45;&gt;Step_14007268464</title>
<path fill="none" stroke="#30c1d7" d="M224.27,-57.31C229.05,-60.29 233.69,-63.45 238,-66.75 256.46,-80.88 274.16,-100.17 287.15,-115.79"/>
<polygon fill="#30c1d7" stroke="#30c1d7" points="284.24,-117.76 293.27,-123.31 289.68,-113.34 284.24,-117.76"/>
</g>
<!-- Step_14007268464&#45;&gt;_EndNode_14008287840 -->
<g id="edge1" class="edge">
<title>Step_14007268464&#45;&gt;_EndNode_14008287840</title>
<path fill="none" stroke="#30c1d7" stroke-dasharray="5,2" d="M344.4,-142.75C352.29,-142.75 360.65,-142.75 368.46,-142.75"/>
<polygon fill="#30c1d7" stroke="#30c1d7" points="368.23,-146.25 378.23,-142.75 368.23,-139.25 368.23,-146.25"/>
</g>
</g>
</svg>
