<?xml version="1.0" encoding="UTF-8" standalone="no"?>
<!DOCTYPE svg PUBLIC "-//W3C//DTD SVG 1.1//EN"
 "http://www.w3.org/Graphics/SVG/1.1/DTD/svg11.dtd">
<!-- Generated by graphviz version 10.0.1 (20240210.2158)
 -->
<!-- Title: Flow Pages: 1 -->
<svg width="288pt" height="52pt"
 viewBox="0.00 0.00 288.00 52.00" xmlns="http://www.w3.org/2000/svg" xmlns:xlink="http://www.w3.org/1999/xlink">
<g id="graph0" class="graph" transform="scale(1 1) rotate(0) translate(4 48)">
<title>Flow</title>
<polygon fill="#ffffff" stroke="none" points="-4,4 -4,-48 284,-48 284,4 -4,4"/>
<!-- DictProducer_13186370448 -->
<g id="node1" class="node">
<title>DictProducer_13186370448</title>
<path fill="none" stroke="#30c1d7" d="M88,-40C88,-40 12,-40 12,-40 6,-40 0,-34 0,-28 0,-28 0,-16 0,-16 0,-10 6,-4 12,-4 12,-4 88,-4 88,-4 94,-4 100,-10 100,-16 100,-16 100,-28 100,-28 100,-34 94,-40 88,-40"/>
<text text-anchor="middle" x="50" y="-19.25" font-family="Monaco, Consolas, monospace" font-size="10.00" fill="#000000">test_responses</text>
</g>
<!-- Step_13186625856 -->
<g id="node2" class="node">
<title>Step_13186625856</title>
<path fill="#43fda2" stroke="#30c1d7" d="M188,-40C188,-40 148,-40 148,-40 142,-40 136,-34 136,-28 136,-28 136,-16 136,-16 136,-10 142,-4 148,-4 148,-4 188,-4 188,-4 194,-4 200,-10 200,-16 200,-16 200,-28 200,-28 200,-34 194,-40 188,-40"/>
<text text-anchor="middle" x="168" y="-19.25" font-family="Monaco, Consolas, monospace" font-size="10.00" fill="#000000">evaluate</text>
</g>
<!-- DictProducer_13186370448&#45;&gt;Step_13186625856 -->
<g id="edge2" class="edge">
<title>DictProducer_13186370448&#45;&gt;Step_13186625856</title>
<path fill="none" stroke="#30c1d7" d="M100.19,-22C108.15,-22 116.33,-22 124.12,-22"/>
<polygon fill="#30c1d7" stroke="#30c1d7" points="124.05,-25.5 134.05,-22 124.05,-18.5 124.05,-25.5"/>
</g>
<!-- _EndNode_13186624608 -->
<g id="node3" class="node">
<title>_EndNode_13186624608</title>
<ellipse fill="none" stroke="#30c1d7" stroke-dasharray="5,2" cx="258" cy="-22" rx="18" ry="18"/>
<ellipse fill="none" stroke="#30c1d7" stroke-dasharray="5,2" cx="258" cy="-22" rx="22" ry="22"/>
<text text-anchor="middle" x="258" y="-19.25" font-family="Monaco, Consolas, monospace" font-size="10.00" fill="#30c1d7">||</text>
</g>
<!-- Step_13186625856&#45;&gt;_EndNode_13186624608 -->
<g id="edge1" class="edge">
<title>Step_13186625856&#45;&gt;_EndNode_13186624608</title>
<path fill="none" stroke="#30c1d7" stroke-dasharray="5,2" d="M200.27,-22C208.08,-22 216.47,-22 224.35,-22"/>
<polygon fill="#30c1d7" stroke="#30c1d7" points="224.24,-25.5 234.24,-22 224.24,-18.5 224.24,-25.5"/>
</g>
</g>
</svg>
