<?xml version="1.0" encoding="UTF-8" standalone="no"?>
<!DOCTYPE svg PUBLIC "-//W3C//DTD SVG 1.1//EN"
 "http://www.w3.org/Graphics/SVG/1.1/DTD/svg11.dtd">
<!-- Generated by graphviz version 10.0.1 (20240210.2158)
 -->
<!-- Title: Flow Pages: 1 -->
<svg width="246pt" height="300pt"
 viewBox="0.00 0.00 245.94 300.00" xmlns="http://www.w3.org/2000/svg" xmlns:xlink="http://www.w3.org/1999/xlink">
<g id="graph0" class="graph" transform="scale(1 1) rotate(0) translate(4 296)">
<title>Flow</title>
<polygon fill="#ffffff" stroke="none" points="-4,4 -4,-296 241.94,-296 241.94,4 -4,4"/>
<!-- Step_6352937488 -->
<g id="node1" class="node">
<title>Step_6352937488</title>
<path fill="#43fda2" stroke="#30c1d7" d="M95.38,-248.5C95.38,-248.5 125.38,-248.5 125.38,-248.5 131.38,-248.5 137.38,-254.5 137.38,-260.5 137.38,-260.5 137.38,-279.5 137.38,-279.5 137.38,-285.5 131.38,-291.5 125.38,-291.5 125.38,-291.5 95.38,-291.5 95.38,-291.5 89.38,-291.5 83.38,-285.5 83.38,-279.5 83.38,-279.5 83.38,-260.5 83.38,-260.5 83.38,-254.5 89.38,-248.5 95.38,-248.5"/>
<text text-anchor="middle" x="110.38" y="-278" font-family="Monaco, Consolas, monospace" font-size="10.00" fill="#000000">print</text>
<polyline fill="none" stroke="#30c1d7" points="83.38,-270 137.38,-270"/>
<text text-anchor="start" x="91.38" y="-256.5" font-family="Monaco, Consolas, monospace" font-size="10.00" fill="#000000">val=2</text>
</g>
<!-- _EndNode_6376942928 -->
<g id="node3" class="node">
<title>_EndNode_6376942928</title>
<ellipse fill="none" stroke="#30c1d7" stroke-dasharray="5,2" cx="205.66" cy="-146" rx="28.28" ry="28.28"/>
<ellipse fill="none" stroke="#30c1d7" stroke-dasharray="5,2" cx="205.66" cy="-146" rx="32.28" ry="32.28"/>
<text text-anchor="middle" x="205.66" y="-139.75" font-family="Monaco, Consolas, monospace" font-size="20.00" fill="#30c1d7">||</text>
</g>
<!-- Step_6352937488&#45;&gt;_EndNode_6376942928 -->
<g id="edge1" class="edge">
<title>Step_6352937488&#45;&gt;_EndNode_6376942928</title>
<path fill="none" stroke="#30c1d7" stroke-dasharray="5,2" d="M130.04,-248.14C132.54,-245.1 135.04,-241.99 137.38,-239 151.85,-220.43 167.29,-199.2 179.73,-181.71"/>
<polygon fill="#30c1d7" stroke="#30c1d7" points="182.51,-183.85 185.43,-173.66 176.79,-179.8 182.51,-183.85"/>
</g>
<!-- Step_6352933712 -->
<g id="node2" class="node">
<title>Step_6352933712</title>
<path fill="#43fda2" stroke="#30c1d7" d="M95.38,-186.5C95.38,-186.5 125.38,-186.5 125.38,-186.5 131.38,-186.5 137.38,-192.5 137.38,-198.5 137.38,-198.5 137.38,-217.5 137.38,-217.5 137.38,-223.5 131.38,-229.5 125.38,-229.5 125.38,-229.5 95.38,-229.5 95.38,-229.5 89.38,-229.5 83.38,-223.5 83.38,-217.5 83.38,-217.5 83.38,-198.5 83.38,-198.5 83.38,-192.5 89.38,-186.5 95.38,-186.5"/>
<text text-anchor="middle" x="110.38" y="-216" font-family="Monaco, Consolas, monospace" font-size="10.00" fill="#000000">print</text>
<polyline fill="none" stroke="#30c1d7" points="83.38,-208 137.38,-208"/>
<text text-anchor="start" x="91.38" y="-194.5" font-family="Monaco, Consolas, monospace" font-size="10.00" fill="#000000">val=3</text>
</g>
<!-- Step_6352933712&#45;&gt;_EndNode_6376942928 -->
<g id="edge5" class="edge">
<title>Step_6352933712&#45;&gt;_EndNode_6376942928</title>
<path fill="none" stroke="#30c1d7" stroke-dasharray="5,2" d="M137.86,-190.4C147.41,-184.05 158.36,-176.77 168.59,-169.97"/>
<polygon fill="#30c1d7" stroke="#30c1d7" points="170.46,-172.93 176.85,-164.48 166.59,-167.1 170.46,-172.93"/>
</g>
<!-- _StartNode_6377427856 -->
<g id="node4" class="node">
<title>_StartNode_6377427856</title>
<ellipse fill="none" stroke="#30c1d7" stroke-dasharray="5,2" cx="23.69" cy="-146" rx="23.69" ry="23.69"/>
<text text-anchor="middle" x="23.69" y="-139.75" font-family="Monaco, Consolas, monospace" font-size="20.00" fill="#30c1d7">&gt;</text>
</g>
<!-- _StartNode_6377427856&#45;&gt;Step_6352937488 -->
<g id="edge3" class="edge">
<title>_StartNode_6377427856&#45;&gt;Step_6352937488</title>
<path fill="none" stroke="#30c1d7" stroke-dasharray="5,2" d="M36.52,-166.47C47.87,-185.67 65.82,-214.94 83.38,-239 83.45,-239.1 83.52,-239.19 83.59,-239.29"/>
<polygon fill="#30c1d7" stroke="#30c1d7" points="80.73,-241.31 89.61,-247.08 86.26,-237.03 80.73,-241.31"/>
</g>
<!-- _StartNode_6377427856&#45;&gt;Step_6352933712 -->
<g id="edge9" class="edge">
<title>_StartNode_6377427856&#45;&gt;Step_6352933712</title>
<path fill="none" stroke="#30c1d7" stroke-dasharray="5,2" d="M43.48,-159.76C52.45,-166.33 63.49,-174.41 73.95,-182.06"/>
<polygon fill="#30c1d7" stroke="#30c1d7" points="71.57,-184.66 81.7,-187.74 75.7,-179.01 71.57,-184.66"/>
</g>
<!-- Step_6352941712 -->
<g id="node5" class="node">
<title>Step_6352941712</title>
<path fill="#43fda2" stroke="#30c1d7" d="M95.38,-124.5C95.38,-124.5 125.38,-124.5 125.38,-124.5 131.38,-124.5 137.38,-130.5 137.38,-136.5 137.38,-136.5 137.38,-155.5 137.38,-155.5 137.38,-161.5 131.38,-167.5 125.38,-167.5 125.38,-167.5 95.38,-167.5 95.38,-167.5 89.38,-167.5 83.38,-161.5 83.38,-155.5 83.38,-155.5 83.38,-136.5 83.38,-136.5 83.38,-130.5 89.38,-124.5 95.38,-124.5"/>
<text text-anchor="middle" x="110.38" y="-154" font-family="Monaco, Consolas, monospace" font-size="10.00" fill="#000000">print</text>
<polyline fill="none" stroke="#30c1d7" points="83.38,-146 137.38,-146"/>
<text text-anchor="start" x="91.38" y="-132.5" font-family="Monaco, Consolas, monospace" font-size="10.00" fill="#000000">val=1</text>
</g>
<!-- _StartNode_6377427856&#45;&gt;Step_6352941712 -->
<g id="edge2" class="edge">
<title>_StartNode_6377427856&#45;&gt;Step_6352941712</title>
<path fill="none" stroke="#30c1d7" stroke-dasharray="5,2" d="M47.83,-146C55.13,-146 63.41,-146 71.46,-146"/>
<polygon fill="#30c1d7" stroke="#30c1d7" points="71.46,-149.5 81.46,-146 71.46,-142.5 71.46,-149.5"/>
</g>
<!-- Step_6352943248 -->
<g id="node6" class="node">
<title>Step_6352943248</title>
<path fill="#43fda2" stroke="#30c1d7" d="M95.38,-62.5C95.38,-62.5 125.38,-62.5 125.38,-62.5 131.38,-62.5 137.38,-68.5 137.38,-74.5 137.38,-74.5 137.38,-93.5 137.38,-93.5 137.38,-99.5 131.38,-105.5 125.38,-105.5 125.38,-105.5 95.38,-105.5 95.38,-105.5 89.38,-105.5 83.38,-99.5 83.38,-93.5 83.38,-93.5 83.38,-74.5 83.38,-74.5 83.38,-68.5 89.38,-62.5 95.38,-62.5"/>
<text text-anchor="middle" x="110.38" y="-92" font-family="Monaco, Consolas, monospace" font-size="10.00" fill="#000000">print</text>
<polyline fill="none" stroke="#30c1d7" points="83.38,-84 137.38,-84"/>
<text text-anchor="start" x="91.38" y="-70.5" font-family="Monaco, Consolas, monospace" font-size="10.00" fill="#000000">val=0</text>
</g>
<!-- _StartNode_6377427856&#45;&gt;Step_6352943248 -->
<g id="edge4" class="edge">
<title>_StartNode_6377427856&#45;&gt;Step_6352943248</title>
<path fill="none" stroke="#30c1d7" stroke-dasharray="5,2" d="M43.48,-132.24C52.45,-125.67 63.49,-117.59 73.95,-109.94"/>
<polygon fill="#30c1d7" stroke="#30c1d7" points="75.7,-112.99 81.7,-104.26 71.57,-107.34 75.7,-112.99"/>
</g>
<!-- Step_6352940496 -->
<g id="node7" class="node">
<title>Step_6352940496</title>
<path fill="#43fda2" stroke="#30c1d7" d="M95.38,-0.5C95.38,-0.5 125.38,-0.5 125.38,-0.5 131.38,-0.5 137.38,-6.5 137.38,-12.5 137.38,-12.5 137.38,-31.5 137.38,-31.5 137.38,-37.5 131.38,-43.5 125.38,-43.5 125.38,-43.5 95.38,-43.5 95.38,-43.5 89.38,-43.5 83.38,-37.5 83.38,-31.5 83.38,-31.5 83.38,-12.5 83.38,-12.5 83.38,-6.5 89.38,-0.5 95.38,-0.5"/>
<text text-anchor="middle" x="110.38" y="-30" font-family="Monaco, Consolas, monospace" font-size="10.00" fill="#000000">print</text>
<polyline fill="none" stroke="#30c1d7" points="83.38,-22 137.38,-22"/>
<text text-anchor="start" x="91.38" y="-8.5" font-family="Monaco, Consolas, monospace" font-size="10.00" fill="#000000">val=4</text>
</g>
<!-- _StartNode_6377427856&#45;&gt;Step_6352940496 -->
<g id="edge10" class="edge">
<title>_StartNode_6377427856&#45;&gt;Step_6352940496</title>
<path fill="none" stroke="#30c1d7" stroke-dasharray="5,2" d="M36.52,-125.53C47.87,-106.33 65.82,-77.06 83.38,-53 83.45,-52.9 83.52,-52.81 83.59,-52.71"/>
<polygon fill="#30c1d7" stroke="#30c1d7" points="86.26,-54.97 89.61,-44.92 80.73,-50.69 86.26,-54.97"/>
</g>
<!-- Step_6352941712&#45;&gt;_EndNode_6376942928 -->
<g id="edge6" class="edge">
<title>Step_6352941712&#45;&gt;_EndNode_6376942928</title>
<path fill="none" stroke="#30c1d7" stroke-dasharray="5,2" d="M137.86,-146C145.33,-146 153.65,-146 161.82,-146"/>
<polygon fill="#30c1d7" stroke="#30c1d7" points="161.64,-149.5 171.64,-146 161.64,-142.5 161.64,-149.5"/>
</g>
<!-- Step_6352943248&#45;&gt;_EndNode_6376942928 -->
<g id="edge8" class="edge">
<title>Step_6352943248&#45;&gt;_EndNode_6376942928</title>
<path fill="none" stroke="#30c1d7" stroke-dasharray="5,2" d="M137.86,-101.6C147.41,-107.95 158.36,-115.23 168.59,-122.03"/>
<polygon fill="#30c1d7" stroke="#30c1d7" points="166.59,-124.9 176.85,-127.52 170.46,-119.07 166.59,-124.9"/>
</g>
<!-- Step_6352940496&#45;&gt;_EndNode_6376942928 -->
<g id="edge7" class="edge">
<title>Step_6352940496&#45;&gt;_EndNode_6376942928</title>
<path fill="none" stroke="#30c1d7" stroke-dasharray="5,2" d="M130.04,-43.86C132.54,-46.9 135.04,-50.01 137.38,-53 151.85,-71.57 167.29,-92.8 179.73,-110.29"/>
<polygon fill="#30c1d7" stroke="#30c1d7" points="176.79,-112.2 185.43,-118.34 182.51,-108.15 176.79,-112.2"/>
</g>
</g>
</svg>
