<?xml version="1.0" encoding="UTF-8" standalone="no"?>
<!DOCTYPE svg PUBLIC "-//W3C//DTD SVG 1.1//EN"
 "http://www.w3.org/Graphics/SVG/1.1/DTD/svg11.dtd">
<!-- Generated by graphviz version 10.0.1 (20240210.2158)
 -->
<!-- Title: Flow Pages: 1 -->
<svg width="532pt" height="203pt"
 viewBox="0.00 0.00 532.00 202.96" xmlns="http://www.w3.org/2000/svg" xmlns:xlink="http://www.w3.org/1999/xlink">
<g id="graph0" class="graph" transform="scale(1 1) rotate(0) translate(4 198.96)">
<title>Flow</title>
<polygon fill="#ffffff" stroke="none" points="-4,4 -4,-198.96 528,-198.96 528,4 -4,4"/>
<!-- Step_6071825680 -->
<g id="node1" class="node">
<title>Step_6071825680</title>
<path fill="#43fda2" stroke="#30c1d7" d="M99,-151.46C99,-151.46 181,-151.46 181,-151.46 187,-151.46 193,-157.46 193,-163.46 193,-163.46 193,-182.46 193,-182.46 193,-188.46 187,-194.46 181,-194.46 181,-194.46 99,-194.46 99,-194.46 93,-194.46 87,-188.46 87,-182.46 87,-182.46 87,-163.46 87,-163.46 87,-157.46 93,-151.46 99,-151.46"/>
<text text-anchor="middle" x="140" y="-180.96" font-family="Monaco, Consolas, monospace" font-size="10.00" fill="#000000">tone_rephraser</text>
<polyline fill="none" stroke="#30c1d7" points="87,-172.96 193,-172.96"/>
<text text-anchor="start" x="95" y="-159.46" font-family="Monaco, Consolas, monospace" font-size="10.00" fill="#000000">tone=SCIENTIFIC</text>
</g>
<!-- Step_6071815632 -->
<g id="node5" class="node">
<title>Step_6071815632</title>
<path fill="#43fda2" stroke="#30c1d7" d="M296,-97.96C296,-97.96 256,-97.96 256,-97.96 250,-97.96 244,-91.96 244,-85.96 244,-85.96 244,-73.96 244,-73.96 244,-67.96 250,-61.96 256,-61.96 256,-61.96 296,-61.96 296,-61.96 302,-61.96 308,-67.96 308,-73.96 308,-73.96 308,-85.96 308,-85.96 308,-91.96 302,-97.96 296,-97.96"/>
<text text-anchor="middle" x="276" y="-77.21" font-family="Monaco, Consolas, monospace" font-size="10.00" fill="#000000">ask_chad</text>
</g>
<!-- Step_6071825680&#45;&gt;Step_6071815632 -->
<g id="edge3" class="edge">
<title>Step_6071825680&#45;&gt;Step_6071815632</title>
<path fill="none" stroke="#30c1d7" d="M192.75,-151.03C198.03,-148.2 203.21,-145.16 208,-141.96 223.19,-131.78 238.3,-118.19 250.31,-106.32"/>
<polygon fill="#30c1d7" stroke="#30c1d7" points="252.49,-109.09 257.03,-99.52 247.52,-104.17 252.49,-109.09"/>
</g>
<!-- _EndNode_6071881488 -->
<g id="node2" class="node">
<title>_EndNode_6071881488</title>
<ellipse fill="none" stroke="#30c1d7" stroke-dasharray="5,2" cx="502" cy="-79.96" rx="18" ry="18"/>
<ellipse fill="none" stroke="#30c1d7" stroke-dasharray="5,2" cx="502" cy="-79.96" rx="22" ry="22"/>
<text text-anchor="middle" x="502" y="-77.21" font-family="Monaco, Consolas, monospace" font-size="10.00" fill="#30c1d7">||</text>
</g>
<!-- Step_6071824720 -->
<g id="node3" class="node">
<title>Step_6071824720</title>
<path fill="#43fda2" stroke="#30c1d7" d="M102,-89.46C102,-89.46 178,-89.46 178,-89.46 184,-89.46 190,-95.46 190,-101.46 190,-101.46 190,-120.46 190,-120.46 190,-126.46 184,-132.46 178,-132.46 178,-132.46 102,-132.46 102,-132.46 96,-132.46 90,-126.46 90,-120.46 90,-120.46 90,-101.46 90,-101.46 90,-95.46 96,-89.46 102,-89.46"/>
<text text-anchor="middle" x="140" y="-118.96" font-family="Monaco, Consolas, monospace" font-size="10.00" fill="#000000">tone_rephraser</text>
<polyline fill="none" stroke="#30c1d7" points="90,-110.96 190,-110.96"/>
<text text-anchor="start" x="98" y="-97.46" font-family="Monaco, Consolas, monospace" font-size="10.00" fill="#000000">tone=SARCASTIC</text>
</g>
<!-- Step_6071824720&#45;&gt;Step_6071815632 -->
<g id="edge4" class="edge">
<title>Step_6071824720&#45;&gt;Step_6071815632</title>
<path fill="none" stroke="#30c1d7" d="M190.14,-99.59C204.14,-96.35 219.27,-92.85 232.82,-89.71"/>
<polygon fill="#30c1d7" stroke="#30c1d7" points="233.34,-93.18 242.3,-87.52 231.77,-86.36 233.34,-93.18"/>
</g>
<!-- Step_6071879888 -->
<g id="node4" class="node">
<title>Step_6071879888</title>
<path fill="#43fda2" stroke="#30c1d7" d="M84,-27.46C84,-27.46 196,-27.46 196,-27.46 202,-27.46 208,-33.46 208,-39.46 208,-39.46 208,-58.46 208,-58.46 208,-64.46 202,-70.46 196,-70.46 196,-70.46 84,-70.46 84,-70.46 78,-70.46 72,-64.46 72,-58.46 72,-58.46 72,-39.46 72,-39.46 72,-33.46 78,-27.46 84,-27.46"/>
<text text-anchor="middle" x="140" y="-56.96" font-family="Monaco, Consolas, monospace" font-size="10.00" fill="#000000">tone_rephraser</text>
<polyline fill="none" stroke="#30c1d7" points="72,-48.96 208,-48.96"/>
<text text-anchor="start" x="80" y="-35.46" font-family="Monaco, Consolas, monospace" font-size="10.00" fill="#000000">tone=INSTAG...UENCER</text>
</g>
<!-- Step_6071879888&#45;&gt;Step_6071815632 -->
<g id="edge7" class="edge">
<title>Step_6071879888&#45;&gt;Step_6071815632</title>
<path fill="none" stroke="#30c1d7" d="M208.39,-64.55C216.71,-66.47 225.02,-68.39 232.81,-70.2"/>
<polygon fill="#30c1d7" stroke="#30c1d7" points="231.79,-73.55 242.32,-72.39 233.37,-66.73 231.79,-73.55"/>
</g>
<!-- Step_6071623312 -->
<g id="node7" class="node">
<title>Step_6071623312</title>
<path fill="#43fda2" stroke="#30c1d7" d="M356,-58.46C356,-58.46 432,-58.46 432,-58.46 438,-58.46 444,-64.46 444,-70.46 444,-70.46 444,-89.46 444,-89.46 444,-95.46 438,-101.46 432,-101.46 432,-101.46 356,-101.46 356,-101.46 350,-101.46 344,-95.46 344,-89.46 344,-89.46 344,-70.46 344,-70.46 344,-64.46 350,-58.46 356,-58.46"/>
<text text-anchor="middle" x="394" y="-87.96" font-family="Monaco, Consolas, monospace" font-size="10.00" fill="#000000">evaluation</text>
<polyline fill="none" stroke="#30c1d7" points="344,-79.96 444,-79.96"/>
<text text-anchor="start" x="352" y="-66.46" font-family="Monaco, Consolas, monospace" font-size="10.00" fill="#000000">metric=SARCASM</text>
</g>
<!-- Step_6071815632&#45;&gt;Step_6071623312 -->
<g id="edge9" class="edge">
<title>Step_6071815632&#45;&gt;Step_6071623312</title>
<path fill="none" stroke="#30c1d7" d="M308.39,-79.96C315.86,-79.96 324.09,-79.96 332.39,-79.96"/>
<polygon fill="#30c1d7" stroke="#30c1d7" points="332.17,-83.46 342.17,-79.96 332.17,-76.46 332.17,-83.46"/>
</g>
<!-- _StartNode_6071822480 -->
<g id="node6" class="node">
<title>_StartNode_6071822480</title>
<ellipse fill="none" stroke="#30c1d7" stroke-dasharray="5,2" cx="18" cy="-79.96" rx="18" ry="18"/>
<text text-anchor="middle" x="18" y="-77.21" font-family="Monaco, Consolas, monospace" font-size="10.00" fill="#30c1d7">&gt;</text>
</g>
<!-- _StartNode_6071822480&#45;&gt;Step_6071825680 -->
<g id="edge2" class="edge">
<title>_StartNode_6071822480&#45;&gt;Step_6071825680</title>
<path fill="none" stroke="#30c1d7" stroke-dasharray="5,2" d="M28.88,-94.84C38.56,-108.51 54.39,-128.61 72,-141.96 73.55,-143.13 75.14,-144.27 76.78,-145.38"/>
<polygon fill="#30c1d7" stroke="#30c1d7" points="74.87,-148.31 85.22,-150.6 78.56,-142.36 74.87,-148.31"/>
</g>
<!-- _StartNode_6071822480&#45;&gt;Step_6071824720 -->
<g id="edge8" class="edge">
<title>_StartNode_6071822480&#45;&gt;Step_6071824720</title>
<path fill="none" stroke="#30c1d7" stroke-dasharray="5,2" d="M35.94,-84.33C47.33,-87.27 63.1,-91.35 78.88,-95.42"/>
<polygon fill="#30c1d7" stroke="#30c1d7" points="77.72,-98.74 88.28,-97.85 79.47,-91.96 77.72,-98.74"/>
</g>
<!-- _StartNode_6071822480&#45;&gt;Step_6071879888 -->
<g id="edge1" class="edge">
<title>_StartNode_6071822480&#45;&gt;Step_6071879888</title>
<path fill="none" stroke="#30c1d7" stroke-dasharray="5,2" d="M35.94,-75.58C42.86,-73.79 51.39,-71.59 60.56,-69.22"/>
<polygon fill="#30c1d7" stroke="#30c1d7" points="61.29,-72.65 70.09,-66.76 59.54,-65.87 61.29,-72.65"/>
</g>
<!-- _StartNode_6071822480&#45;&gt;Step_6071815632 -->
<g id="edge5" class="edge">
<title>_StartNode_6071822480&#45;&gt;Step_6071815632</title>
<path fill="none" stroke="#30c1d7" stroke-dasharray="5,2" d="M27.25,-64.05C36.06,-49.01 51.55,-27.38 72,-17.96 126.9,7.34 151.72,4.09 208,-17.96 226.28,-25.11 242.55,-39.86 254.49,-53.18"/>
<polygon fill="#30c1d7" stroke="#30c1d7" points="251.55,-55.13 260.7,-60.47 256.88,-50.59 251.55,-55.13"/>
</g>
<!-- Step_6071623312&#45;&gt;_EndNode_6071881488 -->
<g id="edge6" class="edge">
<title>Step_6071623312&#45;&gt;_EndNode_6071881488</title>
<path fill="none" stroke="#30c1d7" stroke-dasharray="5,2" d="M444.28,-79.96C452.44,-79.96 460.72,-79.96 468.33,-79.96"/>
<polygon fill="#30c1d7" stroke="#30c1d7" points="468.14,-83.46 478.14,-79.96 468.14,-76.46 468.14,-83.46"/>
</g>
</g>
</svg>
