<?xml version="1.0" encoding="UTF-8" standalone="no"?>
<!DOCTYPE svg PUBLIC "-//W3C//DTD SVG 1.1//EN"
 "http://www.w3.org/Graphics/SVG/1.1/DTD/svg11.dtd">
<!-- Generated by graphviz version 10.0.1 (20240210.2158)
 -->
<!-- Title: Flow Pages: 1 -->
<svg width="674pt" height="176pt"
 viewBox="0.00 0.00 674.00 176.00" xmlns="http://www.w3.org/2000/svg" xmlns:xlink="http://www.w3.org/1999/xlink">
<g id="graph0" class="graph" transform="scale(1 1) rotate(0) translate(4 172)">
<title>Flow</title>
<polygon fill="#ffffff" stroke="none" points="-4,4 -4,-172 670,-172 670,4 -4,4"/>
<!-- Step_6042697488 -->
<g id="node1" class="node">
<title>Step_6042697488</title>
<path fill="#43fda2" stroke="#30c1d7" d="M574,-102C574,-102 450,-102 450,-102 444,-102 438,-96 438,-90 438,-90 438,-78 438,-78 438,-72 444,-66 450,-66 450,-66 574,-66 574,-66 580,-66 586,-72 586,-78 586,-78 586,-90 586,-90 586,-96 580,-102 574,-102"/>
<text text-anchor="middle" x="512" y="-81.25" font-family="Monaco, Consolas, monospace" font-size="10.00" fill="#000000">check_greater_than_100</text>
</g>
<!-- _EndNode_6070034384 -->
<g id="node3" class="node">
<title>_EndNode_6070034384</title>
<ellipse fill="none" stroke="#30c1d7" stroke-dasharray="5,2" cx="644" cy="-84" rx="18" ry="18"/>
<ellipse fill="none" stroke="#30c1d7" stroke-dasharray="5,2" cx="644" cy="-84" rx="22" ry="22"/>
<text text-anchor="middle" x="644" y="-81.25" font-family="Monaco, Consolas, monospace" font-size="10.00" fill="#30c1d7">||</text>
</g>
<!-- Step_6042697488&#45;&gt;_EndNode_6070034384 -->
<g id="edge4" class="edge">
<title>Step_6042697488&#45;&gt;_EndNode_6070034384</title>
<path fill="none" stroke="#30c1d7" stroke-dasharray="5,2" d="M586.36,-84C594.72,-84 602.9,-84 610.32,-84"/>
<polygon fill="#30c1d7" stroke="#30c1d7" points="610.13,-87.5 620.13,-84 610.13,-80.5 610.13,-87.5"/>
</g>
<!-- DictProducer_6042607888 -->
<g id="node2" class="node">
<title>DictProducer_6042607888</title>
<path fill="none" stroke="#30c1d7" d="M106,-102C106,-102 12,-102 12,-102 6,-102 0,-96 0,-90 0,-90 0,-78 0,-78 0,-72 6,-66 12,-66 12,-66 106,-66 106,-66 112,-66 118,-72 118,-78 118,-78 118,-90 118,-90 118,-96 112,-102 106,-102"/>
<text text-anchor="middle" x="59" y="-81.25" font-family="Monaco, Consolas, monospace" font-size="10.00" fill="#000000">ultimate_question</text>
</g>
<!-- Step_6042610896 -->
<g id="node7" class="node">
<title>Step_6042610896</title>
<path fill="#43fda2" stroke="#30c1d7" d="M248,-102C248,-102 166,-102 166,-102 160,-102 154,-96 154,-90 154,-90 154,-78 154,-78 154,-72 160,-66 166,-66 166,-66 248,-66 248,-66 254,-66 260,-72 260,-78 260,-78 260,-90 260,-90 260,-96 254,-102 248,-102"/>
<text text-anchor="middle" x="207" y="-81.25" font-family="Monaco, Consolas, monospace" font-size="10.00" fill="#000000">ultimate_answer</text>
</g>
<!-- DictProducer_6042607888&#45;&gt;Step_6042610896 -->
<g id="edge7" class="edge">
<title>DictProducer_6042607888&#45;&gt;Step_6042610896</title>
<path fill="none" stroke="#30c1d7" d="M118.12,-84C126.12,-84 134.37,-84 142.46,-84"/>
<polygon fill="#30c1d7" stroke="#30c1d7" points="142.24,-87.5 152.24,-84 142.24,-80.5 142.24,-87.5"/>
</g>
<!-- Step_6042607952 -->
<g id="node4" class="node">
<title>Step_6042607952</title>
<path fill="#43fda2" stroke="#30c1d7" d="M308,-124.5C308,-124.5 390,-124.5 390,-124.5 396,-124.5 402,-130.5 402,-136.5 402,-136.5 402,-155.5 402,-155.5 402,-161.5 396,-167.5 390,-167.5 390,-167.5 308,-167.5 308,-167.5 302,-167.5 296,-161.5 296,-155.5 296,-155.5 296,-136.5 296,-136.5 296,-130.5 302,-124.5 308,-124.5"/>
<text text-anchor="middle" x="349" y="-154" font-family="Monaco, Consolas, monospace" font-size="10.00" fill="#000000">multiply_answer</text>
<polyline fill="none" stroke="#30c1d7" points="296,-146 402,-146"/>
<text text-anchor="start" x="304" y="-132.5" font-family="Monaco, Consolas, monospace" font-size="10.00" fill="#000000">multiplier=1</text>
</g>
<!-- Step_6042607952&#45;&gt;Step_6042697488 -->
<g id="edge2" class="edge">
<title>Step_6042607952&#45;&gt;Step_6042697488</title>
<path fill="none" stroke="#30c1d7" d="M402.27,-125.87C418.32,-119.69 436.07,-112.85 452.5,-106.53"/>
<polygon fill="#30c1d7" stroke="#30c1d7" points="453.59,-109.86 461.66,-103 451.07,-103.33 453.59,-109.86"/>
</g>
<!-- Step_6042684240 -->
<g id="node5" class="node">
<title>Step_6042684240</title>
<path fill="#43fda2" stroke="#30c1d7" d="M308,-62.5C308,-62.5 390,-62.5 390,-62.5 396,-62.5 402,-68.5 402,-74.5 402,-74.5 402,-93.5 402,-93.5 402,-99.5 396,-105.5 390,-105.5 390,-105.5 308,-105.5 308,-105.5 302,-105.5 296,-99.5 296,-93.5 296,-93.5 296,-74.5 296,-74.5 296,-68.5 302,-62.5 308,-62.5"/>
<text text-anchor="middle" x="349" y="-92" font-family="Monaco, Consolas, monospace" font-size="10.00" fill="#000000">multiply_answer</text>
<polyline fill="none" stroke="#30c1d7" points="296,-84 402,-84"/>
<text text-anchor="start" x="304" y="-70.5" font-family="Monaco, Consolas, monospace" font-size="10.00" fill="#000000">multiplier=3</text>
</g>
<!-- Step_6042684240&#45;&gt;Step_6042697488 -->
<g id="edge6" class="edge">
<title>Step_6042684240&#45;&gt;Step_6042697488</title>
<path fill="none" stroke="#30c1d7" d="M402.27,-84C409.95,-84 418.02,-84 426.14,-84"/>
<polygon fill="#30c1d7" stroke="#30c1d7" points="426.13,-87.5 436.13,-84 426.13,-80.5 426.13,-87.5"/>
</g>
<!-- Step_6042695824 -->
<g id="node6" class="node">
<title>Step_6042695824</title>
<path fill="#43fda2" stroke="#30c1d7" d="M308,-0.5C308,-0.5 390,-0.5 390,-0.5 396,-0.5 402,-6.5 402,-12.5 402,-12.5 402,-31.5 402,-31.5 402,-37.5 396,-43.5 390,-43.5 390,-43.5 308,-43.5 308,-43.5 302,-43.5 296,-37.5 296,-31.5 296,-31.5 296,-12.5 296,-12.5 296,-6.5 302,-0.5 308,-0.5"/>
<text text-anchor="middle" x="349" y="-30" font-family="Monaco, Consolas, monospace" font-size="10.00" fill="#000000">multiply_answer</text>
<polyline fill="none" stroke="#30c1d7" points="296,-22 402,-22"/>
<text text-anchor="start" x="304" y="-8.5" font-family="Monaco, Consolas, monospace" font-size="10.00" fill="#000000">multiplier=2</text>
</g>
<!-- Step_6042695824&#45;&gt;Step_6042697488 -->
<g id="edge3" class="edge">
<title>Step_6042695824&#45;&gt;Step_6042697488</title>
<path fill="none" stroke="#30c1d7" d="M402.27,-42.13C418.32,-48.31 436.07,-55.15 452.5,-61.47"/>
<polygon fill="#30c1d7" stroke="#30c1d7" points="451.07,-64.67 461.66,-65 453.59,-58.14 451.07,-64.67"/>
</g>
<!-- Step_6042610896&#45;&gt;Step_6042607952 -->
<g id="edge1" class="edge">
<title>Step_6042610896&#45;&gt;Step_6042607952</title>
<path fill="none" stroke="#30c1d7" d="M249.63,-102.43C261.71,-107.79 275.15,-113.74 288.12,-119.48"/>
<polygon fill="#30c1d7" stroke="#30c1d7" points="286.44,-122.57 297,-123.41 289.27,-116.16 286.44,-122.57"/>
</g>
<!-- Step_6042610896&#45;&gt;Step_6042684240 -->
<g id="edge8" class="edge">
<title>Step_6042610896&#45;&gt;Step_6042684240</title>
<path fill="none" stroke="#30c1d7" d="M260.13,-84C268.06,-84 276.31,-84 284.45,-84"/>
<polygon fill="#30c1d7" stroke="#30c1d7" points="284.31,-87.5 294.31,-84 284.31,-80.5 284.31,-87.5"/>
</g>
<!-- Step_6042610896&#45;&gt;Step_6042695824 -->
<g id="edge5" class="edge">
<title>Step_6042610896&#45;&gt;Step_6042695824</title>
<path fill="none" stroke="#30c1d7" d="M249.63,-65.57C261.71,-60.21 275.15,-54.26 288.12,-48.52"/>
<polygon fill="#30c1d7" stroke="#30c1d7" points="289.27,-51.84 297,-44.59 286.44,-45.43 289.27,-51.84"/>
</g>
</g>
</svg>
