<?xml version="1.0" encoding="UTF-8" standalone="no"?>
<!DOCTYPE svg PUBLIC "-//W3C//DTD SVG 1.1//EN"
 "http://www.w3.org/Graphics/SVG/1.1/DTD/svg11.dtd">
<!-- Generated by graphviz version 10.0.1 (20240210.2158)
 -->
<!-- Title: Flow Pages: 1 -->
<svg width="468pt" height="218pt"
 viewBox="0.00 0.00 468.00 217.50" xmlns="http://www.w3.org/2000/svg" xmlns:xlink="http://www.w3.org/1999/xlink">
<g id="graph0" class="graph" transform="scale(1 1) rotate(0) translate(4 213.5)">
<title>Flow</title>
<polygon fill="#ffffff" stroke="none" points="-4,4 -4,-213.5 464,-213.5 464,4 -4,4"/>
<!-- Step_12922723392 -->
<g id="node1" class="node">
<title>Step_12922723392</title>
<path fill="#43fda2" stroke="#30c1d7" d="M253,-152.5C253,-152.5 365,-152.5 365,-152.5 371,-152.5 377,-158.5 377,-164.5 377,-164.5 377,-197 377,-197 377,-203 371,-209 365,-209 365,-209 253,-209 253,-209 247,-209 241,-203 241,-197 241,-197 241,-164.5 241,-164.5 241,-158.5 247,-152.5 253,-152.5"/>
<text text-anchor="middle" x="309" y="-195.5" font-family="Monaco, Consolas, monospace" font-size="10.00" fill="#000000">augment_noise</text>
<polyline fill="none" stroke="#30c1d7" points="241,-187.5 377,-187.5"/>
<text text-anchor="start" x="249" y="-174" font-family="Monaco, Consolas, monospace" font-size="10.00" fill="#000000">noise=Missin...space</text>
<text text-anchor="start" x="249" y="-160.5" font-family="Monaco, Consolas, monospace" font-size="10.00" fill="#000000">n=1</text>
</g>
<!-- _EndNode_12922665248 -->
<g id="node6" class="node">
<title>_EndNode_12922665248</title>
<ellipse fill="none" stroke="#30c1d7" stroke-dasharray="5,2" cx="438" cy="-104.75" rx="18" ry="18"/>
<ellipse fill="none" stroke="#30c1d7" stroke-dasharray="5,2" cx="438" cy="-104.75" rx="22" ry="22"/>
<text text-anchor="middle" x="438" y="-102" font-family="Monaco, Consolas, monospace" font-size="10.00" fill="#30c1d7">||</text>
</g>
<!-- Step_12922723392&#45;&gt;_EndNode_12922665248 -->
<g id="edge6" class="edge">
<title>Step_12922723392&#45;&gt;_EndNode_12922665248</title>
<path fill="none" stroke="#30c1d7" stroke-dasharray="5,2" d="M363.79,-152.2C369.3,-149.08 374.79,-145.89 380,-142.75 389.98,-136.73 400.67,-129.76 410.06,-123.43"/>
<polygon fill="#30c1d7" stroke="#30c1d7" points="411.75,-126.52 418.05,-118 407.81,-120.73 411.75,-126.52"/>
</g>
<!-- DictProducer_12922716240 -->
<g id="node2" class="node">
<title>DictProducer_12922716240</title>
<path fill="none" stroke="#30c1d7" d="M42,-122.75C42,-122.75 12,-122.75 12,-122.75 6,-122.75 0,-116.75 0,-110.75 0,-110.75 0,-98.75 0,-98.75 0,-92.75 6,-86.75 12,-86.75 12,-86.75 42,-86.75 42,-86.75 48,-86.75 54,-92.75 54,-98.75 54,-98.75 54,-110.75 54,-110.75 54,-116.75 48,-122.75 42,-122.75"/>
<text text-anchor="middle" x="27" y="-102" font-family="Monaco, Consolas, monospace" font-size="10.00" fill="#000000">input</text>
</g>
<!-- Step_12922732464 -->
<g id="node3" class="node">
<title>Step_12922732464</title>
<path fill="#43fda2" stroke="#30c1d7" d="M114,-145.25C114,-145.25 178,-145.25 178,-145.25 184,-145.25 190,-151.25 190,-157.25 190,-157.25 190,-176.25 190,-176.25 190,-182.25 184,-188.25 178,-188.25 178,-188.25 114,-188.25 114,-188.25 108,-188.25 102,-182.25 102,-176.25 102,-176.25 102,-157.25 102,-157.25 102,-151.25 108,-145.25 114,-145.25"/>
<text text-anchor="middle" x="146" y="-174.75" font-family="Monaco, Consolas, monospace" font-size="10.00" fill="#000000">augment_tone</text>
<polyline fill="none" stroke="#30c1d7" points="102,-166.75 190,-166.75"/>
<text text-anchor="start" x="110" y="-153.25" font-family="Monaco, Consolas, monospace" font-size="10.00" fill="#000000">tone=Formal</text>
</g>
<!-- DictProducer_12922716240&#45;&gt;Step_12922732464 -->
<g id="edge13" class="edge">
<title>DictProducer_12922716240&#45;&gt;Step_12922732464</title>
<path fill="none" stroke="#30c1d7" d="M54.26,-118.66C65.97,-124.87 80.18,-132.4 93.86,-139.65"/>
<polygon fill="#30c1d7" stroke="#30c1d7" points="91.86,-142.55 102.34,-144.14 95.14,-136.37 91.86,-142.55"/>
</g>
<!-- Step_12922726032 -->
<g id="node4" class="node">
<title>Step_12922726032</title>
<path fill="#43fda2" stroke="#30c1d7" d="M102,-83.25C102,-83.25 190,-83.25 190,-83.25 196,-83.25 202,-89.25 202,-95.25 202,-95.25 202,-114.25 202,-114.25 202,-120.25 196,-126.25 190,-126.25 190,-126.25 102,-126.25 102,-126.25 96,-126.25 90,-120.25 90,-114.25 90,-114.25 90,-95.25 90,-95.25 90,-89.25 96,-83.25 102,-83.25"/>
<text text-anchor="middle" x="146" y="-112.75" font-family="Monaco, Consolas, monospace" font-size="10.00" fill="#000000">augment_tone</text>
<polyline fill="none" stroke="#30c1d7" points="90,-104.75 202,-104.75"/>
<text text-anchor="start" x="98" y="-91.25" font-family="Monaco, Consolas, monospace" font-size="10.00" fill="#000000">tone=Indifferent</text>
</g>
<!-- DictProducer_12922716240&#45;&gt;Step_12922726032 -->
<g id="edge10" class="edge">
<title>DictProducer_12922716240&#45;&gt;Step_12922726032</title>
<path fill="none" stroke="#30c1d7" d="M54.26,-104.75C61.57,-104.75 69.85,-104.75 78.37,-104.75"/>
<polygon fill="#30c1d7" stroke="#30c1d7" points="78.13,-108.25 88.13,-104.75 78.13,-101.25 78.13,-108.25"/>
</g>
<!-- Step_12922718928 -->
<g id="node5" class="node">
<title>Step_12922718928</title>
<path fill="#43fda2" stroke="#30c1d7" d="M105,-21.25C105,-21.25 187,-21.25 187,-21.25 193,-21.25 199,-27.25 199,-33.25 199,-33.25 199,-52.25 199,-52.25 199,-58.25 193,-64.25 187,-64.25 187,-64.25 105,-64.25 105,-64.25 99,-64.25 93,-58.25 93,-52.25 93,-52.25 93,-33.25 93,-33.25 93,-27.25 99,-21.25 105,-21.25"/>
<text text-anchor="middle" x="146" y="-50.75" font-family="Monaco, Consolas, monospace" font-size="10.00" fill="#000000">augment_tone</text>
<polyline fill="none" stroke="#30c1d7" points="93,-42.75 199,-42.75"/>
<text text-anchor="start" x="101" y="-29.25" font-family="Monaco, Consolas, monospace" font-size="10.00" fill="#000000">tone=Aggressive</text>
</g>
<!-- DictProducer_12922716240&#45;&gt;Step_12922718928 -->
<g id="edge14" class="edge">
<title>DictProducer_12922716240&#45;&gt;Step_12922718928</title>
<path fill="none" stroke="#30c1d7" d="M54.26,-90.84C65.97,-84.63 80.18,-77.1 93.86,-69.85"/>
<polygon fill="#30c1d7" stroke="#30c1d7" points="95.14,-73.13 102.34,-65.36 91.86,-66.95 95.14,-73.13"/>
</g>
<!-- Step_12922732464&#45;&gt;Step_12922723392 -->
<g id="edge11" class="edge">
<title>Step_12922732464&#45;&gt;Step_12922723392</title>
<path fill="none" stroke="#30c1d7" d="M190.15,-170.5C202.3,-171.56 215.91,-172.74 229.45,-173.92"/>
<polygon fill="#30c1d7" stroke="#30c1d7" points="229,-177.39 239.26,-174.77 229.6,-170.42 229,-177.39"/>
</g>
<!-- Step_12922724736 -->
<g id="node7" class="node">
<title>Step_12922724736</title>
<path fill="#43fda2" stroke="#30c1d7" d="M250,-76.5C250,-76.5 368,-76.5 368,-76.5 374,-76.5 380,-82.5 380,-88.5 380,-88.5 380,-121 380,-121 380,-127 374,-133 368,-133 368,-133 250,-133 250,-133 244,-133 238,-127 238,-121 238,-121 238,-88.5 238,-88.5 238,-82.5 244,-76.5 250,-76.5"/>
<text text-anchor="middle" x="309" y="-119.5" font-family="Monaco, Consolas, monospace" font-size="10.00" fill="#000000">augment_noise</text>
<polyline fill="none" stroke="#30c1d7" points="238,-111.5 380,-111.5"/>
<text text-anchor="start" x="246" y="-98" font-family="Monaco, Consolas, monospace" font-size="10.00" fill="#000000">noise=Insert...symbol</text>
<text text-anchor="start" x="246" y="-84.5" font-family="Monaco, Consolas, monospace" font-size="10.00" fill="#000000">n=1</text>
</g>
<!-- Step_12922732464&#45;&gt;Step_12922724736 -->
<g id="edge4" class="edge">
<title>Step_12922732464&#45;&gt;Step_12922724736</title>
<path fill="none" stroke="#30c1d7" d="M190.15,-150.14C201.57,-145.74 214.28,-140.84 227.02,-135.94"/>
<polygon fill="#30c1d7" stroke="#30c1d7" points="228.2,-139.23 236.27,-132.37 225.68,-132.7 228.2,-139.23"/>
</g>
<!-- Step_12922717104 -->
<g id="node8" class="node">
<title>Step_12922717104</title>
<path fill="#43fda2" stroke="#30c1d7" d="M250,-0.5C250,-0.5 368,-0.5 368,-0.5 374,-0.5 380,-6.5 380,-12.5 380,-12.5 380,-45 380,-45 380,-51 374,-57 368,-57 368,-57 250,-57 250,-57 244,-57 238,-51 238,-45 238,-45 238,-12.5 238,-12.5 238,-6.5 244,-0.5 250,-0.5"/>
<text text-anchor="middle" x="309" y="-43.5" font-family="Monaco, Consolas, monospace" font-size="10.00" fill="#000000">augment_noise</text>
<polyline fill="none" stroke="#30c1d7" points="238,-35.5 380,-35.5"/>
<text text-anchor="start" x="246" y="-22" font-family="Monaco, Consolas, monospace" font-size="10.00" fill="#000000">noise=Bad Autocorrect</text>
<text text-anchor="start" x="246" y="-8.5" font-family="Monaco, Consolas, monospace" font-size="10.00" fill="#000000">n=1</text>
</g>
<!-- Step_12922732464&#45;&gt;Step_12922717104 -->
<g id="edge15" class="edge">
<title>Step_12922732464&#45;&gt;Step_12922717104</title>
<path fill="none" stroke="#30c1d7" d="M190.23,-145.71C194.47,-142.69 198.49,-139.37 202,-135.75 226.06,-110.9 213.74,-91.41 238,-66.75 238.72,-66.02 239.46,-65.29 240.21,-64.58"/>
<polygon fill="#30c1d7" stroke="#30c1d7" points="242.25,-67.44 247.66,-58.33 237.75,-62.08 242.25,-67.44"/>
</g>
<!-- Step_12922726032&#45;&gt;Step_12922723392 -->
<g id="edge5" class="edge">
<title>Step_12922726032&#45;&gt;Step_12922723392</title>
<path fill="none" stroke="#30c1d7" d="M193.57,-126.73C207.15,-133.14 222.31,-140.3 237.04,-147.25"/>
<polygon fill="#30c1d7" stroke="#30c1d7" points="235.23,-150.27 245.77,-151.37 238.22,-143.94 235.23,-150.27"/>
</g>
<!-- Step_12922726032&#45;&gt;Step_12922724736 -->
<g id="edge12" class="edge">
<title>Step_12922726032&#45;&gt;Step_12922724736</title>
<path fill="none" stroke="#30c1d7" d="M202.41,-104.75C210.14,-104.75 218.21,-104.75 226.29,-104.75"/>
<polygon fill="#30c1d7" stroke="#30c1d7" points="226.19,-108.25 236.19,-104.75 226.19,-101.25 226.19,-108.25"/>
</g>
<!-- Step_12922726032&#45;&gt;Step_12922717104 -->
<g id="edge1" class="edge">
<title>Step_12922726032&#45;&gt;Step_12922717104</title>
<path fill="none" stroke="#30c1d7" d="M193.57,-82.77C207.15,-76.36 222.31,-69.2 237.04,-62.25"/>
<polygon fill="#30c1d7" stroke="#30c1d7" points="238.22,-65.56 245.77,-58.13 235.23,-59.23 238.22,-65.56"/>
</g>
<!-- Step_12922718928&#45;&gt;Step_12922723392 -->
<g id="edge3" class="edge">
<title>Step_12922718928&#45;&gt;Step_12922723392</title>
<path fill="none" stroke="#30c1d7" d="M191.33,-64.59C195.17,-67.39 198.8,-70.44 202,-73.75 226.06,-98.6 213.74,-118.09 238,-142.75 238.72,-143.48 239.46,-144.21 240.21,-144.92"/>
<polygon fill="#30c1d7" stroke="#30c1d7" points="237.75,-147.42 247.66,-151.17 242.25,-142.06 237.75,-147.42"/>
</g>
<!-- Step_12922718928&#45;&gt;Step_12922724736 -->
<g id="edge2" class="edge">
<title>Step_12922718928&#45;&gt;Step_12922724736</title>
<path fill="none" stroke="#30c1d7" d="M199.27,-62.88C208.14,-66.3 217.54,-69.91 226.95,-73.54"/>
<polygon fill="#30c1d7" stroke="#30c1d7" points="225.54,-76.75 236.13,-77.07 228.06,-70.21 225.54,-76.75"/>
</g>
<!-- Step_12922718928&#45;&gt;Step_12922717104 -->
<g id="edge7" class="edge">
<title>Step_12922718928&#45;&gt;Step_12922717104</title>
<path fill="none" stroke="#30c1d7" d="M199.27,-38.2C207.95,-37.45 217.14,-36.65 226.34,-35.85"/>
<polygon fill="#30c1d7" stroke="#30c1d7" points="226.38,-39.36 236.04,-35.01 225.77,-32.39 226.38,-39.36"/>
</g>
<!-- Step_12922724736&#45;&gt;_EndNode_12922665248 -->
<g id="edge9" class="edge">
<title>Step_12922724736&#45;&gt;_EndNode_12922665248</title>
<path fill="none" stroke="#30c1d7" stroke-dasharray="5,2" d="M380.19,-104.75C388.59,-104.75 396.84,-104.75 404.33,-104.75"/>
<polygon fill="#30c1d7" stroke="#30c1d7" points="404.25,-108.25 414.25,-104.75 404.25,-101.25 404.25,-108.25"/>
</g>
<!-- Step_12922717104&#45;&gt;_EndNode_12922665248 -->
<g id="edge8" class="edge">
<title>Step_12922717104&#45;&gt;_EndNode_12922665248</title>
<path fill="none" stroke="#30c1d7" stroke-dasharray="5,2" d="M363.79,-57.3C369.3,-60.42 374.79,-63.61 380,-66.75 389.98,-72.77 400.67,-79.74 410.06,-86.07"/>
<polygon fill="#30c1d7" stroke="#30c1d7" points="407.81,-88.77 418.05,-91.5 411.75,-82.98 407.81,-88.77"/>
</g>
</g>
</svg>
